<?xml version="1.0" standalone="no"?>
<!DOCTYPE svg PUBLIC "-//W3C//DTD SVG 1.1//EN" "http://www.w3.org/Graphics/SVG/1.1/DTD/svg11.dtd" >
<svg xmlns="http://www.w3.org/2000/svg" xmlns:xlink="http://www.w3.org/1999/xlink" version="1.1">
<metadata>
Created by FontForge 20190801 at Mon Apr 18 21:48:03 2022
 By Unknown
Copyright (c) 2022 by PangramPangramFoundry. All rights reserved.
</metadata>
<defs>
<font id="PPMori-SemiBold" horiz-adv-x="0" >
  <font-face 
    font-family="PP Mori SemiBold"
    font-weight="600"
    font-stretch="normal"
    units-per-em="1000"
    panose-1="0 0 7 0 0 0 0 0 0 0"
    ascent="800"
    descent="-200"
    x-height="530"
    cap-height="700"
    bbox="-468 -399 2175 1220"
    underline-thickness="50"
    underline-position="-100"
    unicode-range="U+000D-1F318"
  />
<missing-glyph horiz-adv-x="581" 
d="M526 0h-471v700h471v-700zM98 676l192 -302l193 302h-385zM81 655v-609l194 304zM306 350l194 -304v609zM291 327l-194 -303h387z" />
    <glyph glyph-name="f_f" unicode="ff" horiz-adv-x="722" 
d="M237 0h-118v430h-93v100h93v66q0 75 43.5 114.5t125.5 39.5h115v-100h-107q-59 0 -59 -62v-58h196v66q0 75 43.5 114.5t125.5 39.5h116v-100h-108q-58 0 -58 -62v-58h154v-100h-154v-430h-119v430h-196v-430z" />
    <glyph glyph-name="f_t" unicode="ft" horiz-adv-x="737" 
d="M237 0h-118v430h-93v100h93v66q0 75 43.5 114.5t125.5 39.5h115v-100h-107q-59 0 -59 -62v-58h219v181h119v-181h136v-100h-136v-260q0 -70 66 -70h60v-100h-68q-86 0 -131.5 41.5t-45.5 120.5v268h-219v-430z" />
    <glyph glyph-name="t_f" unicode="tf" horiz-adv-x="705" 
d="M364 0h-68q-86 0 -131.5 41.5t-45.5 120.5v268h-93v100h93v181h118v-181h179v66q0 75 43.5 114.5t125.5 39.5h116v-100h-108q-58 0 -58 -62v-58h154v-100h-154v-430h-119v430h-179v-260q0 -70 67 -70h60v-100z" />
    <glyph glyph-name="t_t" unicode="tt" horiz-adv-x="702" 
d="M364 0h-68q-86 0 -131.5 41.5t-45.5 120.5v268h-93v100h93v181h118v-181h184v181h118v-181h137v-100h-137v-260q0 -70 67 -70h60v-100h-68q-86 0 -131.5 41.5t-45.5 120.5v268h-184v-260q0 -70 67 -70h60v-100z" />
    <glyph glyph-name=".notdef" horiz-adv-x="581" 
d="M526 0h-471v700h471v-700zM98 676l192 -302l193 302h-385zM81 655v-609l194 304zM306 350l194 -304v609zM291 327l-194 -303h387z" />
    <glyph glyph-name=".null" horiz-adv-x="1150" 
 />
    <glyph glyph-name="nonmarkingreturn" horiz-adv-x="333" 
 />
    <glyph glyph-name="CR" unicode="&#xd;" horiz-adv-x="600" 
 />
    <glyph glyph-name="space" unicode=" " horiz-adv-x="218" 
 />
    <glyph glyph-name="exclam" unicode="!" horiz-adv-x="264" 
d="M192 200h-119v550h119v-550zM132 -13q-33 0 -55 22t-22 55q0 32 22 54t55 22t55 -22t22 -54q0 -33 -22 -55t-55 -22z" />
    <glyph glyph-name="quotedbl" unicode="&#x22;" horiz-adv-x="410" 
d="M169 420h-106v330h106v-330zM347 420h-106v330h106v-330z" />
    <glyph glyph-name="numbersign" unicode="#" horiz-adv-x="827" 
d="M296 168l-46 -191l-100 23l40 168h-158v91h180l43 175h-159v91h181l49 204l100 -23l-43 -181h148l49 204l101 -23l-44 -181h158v-91h-180l-42 -175h158v-91h-181l-46 -191l-100 23l41 168h-149zM360 434l-42 -175h149l42 175h-149z" />
    <glyph glyph-name="dollar" unicode="$" horiz-adv-x="654" 
d="M620 192q0 -92 -66.5 -147.5t-179.5 -59.5v-120h-81v124q-111 15 -177.5 75.5t-72.5 151.5h123q14 -93 127 -118v214l-20 6q-27 8 -38 11.5t-38.5 14.5t-41.5 19.5t-34.5 24.5t-31 33t-18.5 42t-8 53q0 84 62 139t168 60v112h81v-116q101 -15 160 -76.5t65 -158.5h-122
q-6 97 -103 124v-196l43 -13q38 -12 60 -20t53 -25t48 -36t29.5 -49.5t12.5 -68.5zM182 522q0 -38 27 -56t84 -36v178q-52 -4 -81.5 -26.5t-29.5 -59.5zM374 288v-196q60 3 92 27.5t32 66.5q0 38 -27 59t-84 39z" />
    <glyph glyph-name="percent" unicode="%" horiz-adv-x="909" 
d="M755 701l-505 -730l-87 42l504 729zM197 343q-74 0 -120.5 51t-46.5 132q0 84 46.5 136.5t120.5 52.5t121 -51t47 -132q0 -83 -47 -136t-121 -53zM197 424q35 0 57.5 29.5t22.5 76.5t-22 76t-57 29t-57.5 -29.5t-22.5 -76.5q0 -46 22 -75.5t57 -29.5zM712 -15
q-74 0 -121 51.5t-47 132.5q0 84 47 136.5t121 51.5t120.5 -52t46.5 -131q0 -83 -46.5 -136t-120.5 -53zM712 66q35 0 57.5 29.5t22.5 76.5q0 46 -22 75.5t-57 29.5q-36 0 -58.5 -29.5t-22.5 -76.5q0 -46 22.5 -75.5t57.5 -29.5z" />
    <glyph glyph-name="ampersand" unicode="&#x26;" horiz-adv-x="713" 
d="M308 -15q-119 0 -193 57t-74 149q0 74 44.5 123.5t119.5 88.5q-70 80 -70 151q0 70 51.5 115.5t130.5 45.5q80 0 132.5 -46t53.5 -116q0 -58 -35.5 -97t-98.5 -72l148 -151q25 67 27 159h109q0 -141 -54 -241l97 -99l-82 -73l-83 87q-89 -81 -223 -81zM302 450
q43 21 65 43.5t22 54.5q0 30 -19.5 49.5t-50.5 19.5t-51 -19.5t-20 -49.5q0 -41 54 -98zM314 89q88 0 143 53l-186 192q-52 -28 -80.5 -58.5t-28.5 -73.5q0 -51 41 -82t111 -31z" />
    <glyph glyph-name="quotesingle" unicode="'" horiz-adv-x="227" 
d="M164 418h-101v332h101v-332z" />
    <glyph glyph-name="parenleft" unicode="(" horiz-adv-x="326" 
d="M316 -107l-93 -32q-75 83 -117 201.5t-42 243.5t42 248t117 212l91 -35q-68 -81 -106 -194t-37 -231q0 -115 38.5 -225.5t106.5 -187.5z" />
    <glyph glyph-name="parenright" unicode=")" horiz-adv-x="326" 
d="M103 -139l-93 32q68 77 106.5 187.5t38.5 225.5q1 118 -37 231t-106 194l91 35q75 -89 117 -212t42 -248t-42 -243.5t-117 -201.5z" />
    <glyph glyph-name="asterisk" unicode="*" horiz-adv-x="498" 
d="M291 298h-84v147l-136 -79l-40 73l136 80l-136 78l40 73l136 -79v147h84v-147l137 79l39 -73l-135 -78l135 -79l-40 -73l-136 79v-148z" />
    <glyph glyph-name="plus" unicode="+" horiz-adv-x="571" 
d="M340 70h-108v188h-195v97h195v190h108v-190h194v-97h-194v-188z" />
    <glyph glyph-name="comma" unicode="," horiz-adv-x="247" 
d="M210 148l-114 -347l-91 28l110 348z" />
    <glyph glyph-name="hyphen" unicode="-" horiz-adv-x="521" 
d="M484 258h-447v97h447v-97z" />
    <glyph glyph-name="period" unicode="." horiz-adv-x="229" 
d="M114 -13q-32 0 -54 22t-22 55q0 32 22 54t54 22q33 0 55 -22t22 -54q0 -33 -22 -55t-55 -22z" />
    <glyph glyph-name="slash" unicode="/" horiz-adv-x="373" 
d="M375 764l-265 -882l-106 32l263 880z" />
    <glyph glyph-name="zero" unicode="0" horiz-adv-x="637" 
d="M319 -15q-126 0 -202 100t-76 267q0 164 75.5 263.5t202.5 99.5q125 0 201 -99t76 -264t-75.5 -266t-201.5 -101zM319 96q71 0 113.5 69.5t42.5 186.5q0 116 -42.5 184.5t-113.5 68.5q-72 0 -114.5 -68.5t-42.5 -184.5q0 -117 42.5 -186.5t114.5 -69.5z" />
    <glyph glyph-name="one" unicode="1" horiz-adv-x="382" 
d="M309 0h-120v521q-50 -70 -158 -70h-8v115h8q159 0 159 124v10h119v-700z" />
    <glyph glyph-name="two" unicode="2" horiz-adv-x="573" 
d="M534 502q0 -64 -32.5 -113t-80 -79.5t-96 -58t-87 -63.5t-46.5 -80h329v-108h-465v66q0 54 19.5 98.5t51 74t69.5 54t76 46t69.5 43t51 51t19.5 65.5q0 49 -31 79t-83 30q-57 0 -94 -36.5t-38 -102.5h-126q8 116 80 181.5t180 65.5q105 0 169.5 -59t64.5 -154z" />
    <glyph glyph-name="three" unicode="3" horiz-adv-x="607" 
d="M316 -16q-124 0 -202 64.5t-84 174.5h123q5 -61 49 -95.5t114 -34.5q64 0 102 29.5t38 79.5q0 49 -37.5 77t-103.5 28h-109v99h109q52 0 83 28.5t31 71.5q0 44 -32.5 72.5t-84.5 28.5q-53 0 -90 -31t-44 -83h-124q10 100 82 161t180 61q102 0 167.5 -52.5t65.5 -134.5
q0 -62 -38.5 -106.5t-102.5 -58.5q77 -14 121 -61t44 -117q0 -90 -70.5 -145.5t-186.5 -55.5z" />
    <glyph glyph-name="four" unicode="4" horiz-adv-x="632" 
d="M492 0h-120v156h-340v106l339 438h121v-436h121v-108h-121v-156zM372 536l-210 -272h210v272z" />
    <glyph glyph-name="five" unicode="5" horiz-adv-x="610" 
d="M314 -16q-110 0 -184.5 62t-87.5 168h127q8 -54 48.5 -87t97.5 -33q62 0 99 38.5t37 97.5q0 57 -36.5 96t-97.5 39q-68 0 -121 -56h-134l62 391h416v-109h-317l-31 -199q64 71 162 71q96 0 157 -65t61 -167q0 -110 -71.5 -178.5t-186.5 -68.5z" />
    <glyph glyph-name="six" unicode="6" horiz-adv-x="638" 
d="M344 -15q-140 0 -221.5 101.5t-81.5 265.5q0 167 82.5 265t222.5 98q107 0 177.5 -61.5t79.5 -161.5h-123q-5 51 -43 83t-93 32q-86 0 -136 -65t-55 -173v-34q23 60 80.5 98t133.5 38q102 0 166.5 -66.5t64.5 -171.5q0 -110 -71 -179t-183 -69zM338 93q56 0 97 36.5
t41 103.5q0 66 -40.5 102.5t-96.5 36.5q-57 0 -99.5 -37.5t-42.5 -102.5t42 -102t99 -37z" />
    <glyph glyph-name="seven" unicode="7" horiz-adv-x="539" 
d="M206 0h-138l319 592h-365v108h497v-108z" />
    <glyph glyph-name="eight" unicode="8" horiz-adv-x="628" 
d="M315 -15q-128 0 -204 59.5t-76 147.5q0 60 39 105t108 68q-55 24 -85 66.5t-30 94.5q0 80 67.5 134.5t180.5 54.5t179.5 -54.5t66.5 -134.5q0 -51 -30 -94t-84 -67q69 -22 107.5 -67.5t38.5 -105.5q0 -88 -74.5 -147.5t-203.5 -59.5zM315 404q57 0 92.5 29t35.5 76
q0 45 -35.5 73.5t-92.5 28.5t-92.5 -28.5t-35.5 -73.5q0 -47 35.5 -76t92.5 -29zM315 94q70 0 112 32t42 80q0 47 -42 79.5t-112 32.5t-112.5 -32.5t-42.5 -79.5q0 -48 42.5 -80t112.5 -32z" />
    <glyph glyph-name="nine" unicode="9" horiz-adv-x="617" 
d="M302 -15q-110 0 -182 59.5t-83 158.5h122q8 -52 46.5 -81t97.5 -29q75 0 117 60t46 171q2 18 0 36q-13 -56 -61.5 -90.5t-120.5 -34.5q-109 0 -178 67t-69 172q0 106 71.5 173.5t182.5 67.5q135 0 210.5 -100t75.5 -269q0 -167 -73 -264t-202 -97zM296 336q58 0 98 36.5
t40 99.5q0 64 -39.5 100.5t-97.5 36.5q-59 0 -99.5 -37t-41.5 -99q0 -63 40.5 -100t99.5 -37z" />
    <glyph glyph-name="colon" unicode=":" horiz-adv-x="229" 
d="M114 393q-32 0 -54 22t-22 55q0 32 22 54t54 22q33 0 55 -22t22 -54q0 -33 -22 -55t-55 -22zM114 -13q-32 0 -54 22t-22 55q0 32 22 54t54 22q33 0 55 -22t22 -54q0 -33 -22 -55t-55 -22z" />
    <glyph glyph-name="semicolon" unicode=";" horiz-adv-x="256" 
d="M136 393q-32 0 -54 22t-22 55q0 32 22 54t54 22q33 0 55 -22t22 -54q0 -33 -22 -55t-55 -22zM211 148l-115 -347l-90 28l110 348z" />
    <glyph glyph-name="less" unicode="&#x3c;" horiz-adv-x="572" 
d="M540 75l-57 -88l-446 233v121l446 232l57 -86l-396 -207z" />
    <glyph glyph-name="equal" unicode="=" horiz-adv-x="581" 
d="M539 353h-496v99h496v-99zM539 135h-496v98h496v-98z" />
    <glyph glyph-name="greater" unicode="&#x3e;" horiz-adv-x="572" 
d="M535 220l-446 -233l-57 88l396 205l-396 207l57 86l446 -232v-121z" />
    <glyph glyph-name="question" unicode="?" horiz-adv-x="570" 
d="M337 189h-117v40q0 45 19.5 80t47 57.5t55 43t47 46t19.5 56.5q0 41 -31 68t-83 27q-58 0 -95.5 -36.5t-38.5 -102.5h-126q8 116 79.5 181.5t181.5 65.5q105 0 169 -57t64 -142q0 -46 -19.5 -81.5t-48 -58.5t-56.5 -43.5t-47.5 -46.5t-19.5 -57v-40zM279 -13
q-33 0 -55 22t-22 55q0 32 22 54t55 22t55 -22t22 -54q0 -33 -22 -55t-55 -22z" />
    <glyph glyph-name="at" unicode="@" horiz-adv-x="890" 
d="M474 -113q-195 0 -311.5 103.5t-116.5 280.5q0 182 119 299.5t306 117.5q167 0 272.5 -100.5t105.5 -258.5q0 -109 -50.5 -177.5t-129.5 -68.5q-46 0 -75.5 23t-31.5 59q-51 -82 -149 -82q-76 0 -123.5 51.5t-47.5 133.5q0 100 58.5 167.5t144.5 67.5q94 0 137 -75l17 61
h55l-28 -279q-2 -24 10 -38.5t34 -14.5q43 0 70 47t27 120q0 126 -83 203.5t-216 77.5q-146 0 -239.5 -94t-93.5 -239q0 -141 93 -222.5t250 -81.5q114 0 209 46v-88q-94 -39 -213 -39zM431 154q49 0 83 38.5t40 98.5q7 62 -21 101.5t-78 39.5q-53 0 -89.5 -45t-36.5 -112
q0 -53 28 -87t74 -34z" />
    <glyph glyph-name="A" unicode="A" horiz-adv-x="729" 
d="M142 0h-124l286 700h120l287 -700h-124l-71 173h-303zM365 545l-109 -266h217z" />
    <glyph glyph-name="B" unicode="B" horiz-adv-x="676" 
d="M411 0h-338v700h332q95 0 155.5 -49t60.5 -128q0 -59 -39.5 -103t-104.5 -60q73 -11 116 -57t43 -113q0 -84 -62.5 -137t-162.5 -53zM192 593v-185h209q45 0 73 27t28 69q0 39 -26 64t-66 25h-218zM192 304v-196h225q44 0 70.5 28t26.5 71t-30 70t-78 27h-214z" />
    <glyph glyph-name="C" unicode="C" horiz-adv-x="771" 
d="M393 -15q-160 0 -256 101t-96 266q0 161 95.5 262t256.5 101q136 0 225 -75.5t112 -209.5h-123q-17 83 -74 130t-140 47q-106 0 -167.5 -69t-61.5 -186q0 -120 61.5 -189t167.5 -69q85 0 141 46.5t73 129.5h123q-24 -136 -112 -210.5t-225 -74.5z" />
    <glyph glyph-name="D" unicode="D" horiz-adv-x="719" 
d="M325 0h-252v700h252q156 0 254.5 -96.5t98.5 -249.5q0 -157 -98.5 -255.5t-254.5 -98.5zM193 592v-484h140q98 0 159.5 68.5t61.5 177.5q0 103 -62 170.5t-159 67.5h-140z" />
    <glyph glyph-name="E" unicode="E" horiz-adv-x="611" 
d="M572 0h-499v700h490v-108h-371v-180h336v-105h-336v-199h380v-108z" />
    <glyph glyph-name="F" unicode="F" horiz-adv-x="603" 
d="M193 0h-120v700h496v-108h-376v-193h349v-108h-349v-291z" />
    <glyph glyph-name="G" unicode="G" horiz-adv-x="788" 
d="M375 -15q-148 0 -241 100.5t-93 266.5q0 161 95 262t256 101q136 0 225 -76t112 -209h-123q-17 83 -74 130t-140 47q-105 0 -166.5 -68.5t-61.5 -186.5q0 -119 61 -188.5t162 -69.5q81 0 130.5 47.5t49.5 123.5h-211v101h239q68 0 103.5 -33t35.5 -97v-236h-106v214h-2
q-11 -106 -77 -167.5t-174 -61.5z" />
    <glyph glyph-name="H" unicode="H" horiz-adv-x="769" 
d="M193 0h-120v700h120v-288h384v288h120v-700h-120v304h-384v-304z" />
    <glyph glyph-name="I" unicode="I" horiz-adv-x="265" 
d="M193 0h-120v700h120v-700z" />
    <glyph glyph-name="J" unicode="J" horiz-adv-x="589" 
d="M282 -15q-109 0 -177.5 57.5t-68.5 148.5v99h119v-98q0 -44 35 -71t90 -27q54 0 88 30t34 77v499h120v-501q0 -95 -67 -154.5t-173 -59.5z" />
    <glyph glyph-name="K" unicode="K" horiz-adv-x="696" 
d="M193 0h-120v700h120v-343l318 343h152l-274 -287l294 -413h-147l-230 326l-113 -118v-208z" />
    <glyph glyph-name="L" unicode="L" horiz-adv-x="583" 
d="M550 0h-477v700h120v-592h357v-108z" />
    <glyph glyph-name="M" unicode="M" horiz-adv-x="879" 
d="M193 0h-120v700h148l219 -556l218 556h148v-700h-120v493l-194 -493h-105l-194 492v-492z" />
    <glyph glyph-name="N" unicode="N" horiz-adv-x="743" 
d="M193 0h-120v700h130l347 -527v527h120v-700h-130l-347 527v-527z" />
    <glyph glyph-name="O" unicode="O" horiz-adv-x="781" 
d="M390 -15q-156 0 -252.5 100.5t-96.5 266.5q0 161 95 262t254 101q157 0 254 -99.5t97 -263.5q0 -163 -95.5 -265t-255.5 -102zM390 94q105 0 167 70t62 188q0 117 -62 186t-167 69q-104 0 -165.5 -69t-61.5 -186q0 -118 61.5 -188t165.5 -70z" />
    <glyph glyph-name="P" unicode="P" horiz-adv-x="693" 
d="M193 0h-120v700h355q105 0 167.5 -62t62.5 -158q0 -104 -64.5 -165.5t-165.5 -61.5h-235v-253zM193 592v-231h229q54 0 84 34.5t30 84.5t-31.5 81t-82.5 31h-229z" />
    <glyph glyph-name="Q" unicode="Q" horiz-adv-x="781" 
d="M676 -93l-88 -45l-83 140q-54 -17 -115 -17q-156 0 -252.5 100.5t-96.5 266.5q0 161 95 262t254 101q157 0 254 -99.5t97 -263.5q0 -100 -38 -180t-108 -127zM390 94q30 0 56 6l-95 161l89 44l95 -161q84 68 84 208q0 117 -62 186t-167 69q-104 0 -165.5 -69t-61.5 -186
q0 -118 61.5 -188t165.5 -70z" />
    <glyph glyph-name="R" unicode="R" horiz-adv-x="695" 
d="M193 0h-120v700h342q100 0 162.5 -55t62.5 -143q0 -64 -42 -113.5t-112 -67.5q70 -14 96 -80l90 -241h-128l-81 221q-15 43 -65 43h-205v-264zM193 592v-222h216q53 0 82.5 33t29.5 81t-30.5 78t-81.5 30h-216z" />
    <glyph glyph-name="S" unicode="S" horiz-adv-x="654" 
d="M359 -15q-137 0 -223 63t-93 168h123q8 -58 59 -91t134 -33q68 0 103.5 24.5t35.5 69.5q0 38 -27 59t-84 39l-114 34q-27 8 -38 11.5t-38.5 14.5t-41.5 19.5t-34.5 24.5t-31 33t-18.5 42t-8 53q0 88 68 143.5t182 55.5q127 0 203 -64t83 -175h-122q-4 61 -47.5 96.5
t-120.5 35.5q-58 0 -92.5 -23t-34.5 -63q0 -27 17 -45.5t39.5 -27.5t58.5 -21q9 -3 14 -4l106 -33q38 -12 60 -20t53 -25t48 -36t29.5 -49.5t12.5 -68.5q0 -95 -70.5 -151t-190.5 -56z" />
    <glyph glyph-name="T" unicode="T" horiz-adv-x="645" 
d="M383 0h-120v592h-234v108h587v-108h-233v-592z" />
    <glyph glyph-name="U" unicode="U" horiz-adv-x="717" 
d="M359 -15q-133 0 -212.5 70t-79.5 178v467h120v-464q0 -66 47.5 -103.5t123.5 -37.5t124 37.5t48 103.5v464h120v-467q0 -108 -79 -178t-212 -70z" />
    <glyph glyph-name="V" unicode="V" horiz-adv-x="688" 
d="M411 0h-126l-272 700h129l206 -536l199 536h128z" />
    <glyph glyph-name="W" unicode="W" horiz-adv-x="967" 
d="M342 0h-131l-198 700h125l146 -525l143 525h112l144 -526l146 526h125l-198 -700h-131l-142 523z" />
    <glyph glyph-name="X" unicode="X" horiz-adv-x="715" 
d="M168 0h-145l263 351l-256 349h145l184 -253l183 253h144l-255 -348l262 -352h-145l-189 257z" />
    <glyph glyph-name="Y" unicode="Y" horiz-adv-x="672" 
d="M395 0h-120v299l-265 401h139l187 -287l187 287h139l-267 -401v-299z" />
    <glyph glyph-name="Z" unicode="Z" horiz-adv-x="608" 
d="M568 0h-528v111l377 481h-359v108h500v-111l-377 -481h387v-108z" />
    <glyph glyph-name="bracketleft" unicode="[" horiz-adv-x="347" 
d="M330 -128h-244v892h244v-91h-141v-710h141v-91z" />
    <glyph glyph-name="backslash" unicode="\" horiz-adv-x="373" 
d="M370 -86l-106 -32l-266 882l109 30z" />
    <glyph glyph-name="bracketright" unicode="]" horiz-adv-x="347" 
d="M261 764v-892h-244v91h141v710h-141v91h244z" />
    <glyph glyph-name="asciicircum" unicode="^" horiz-adv-x="484" 
d="M158 432h-125l156 268h105l157 -268h-125l-84 149z" />
    <glyph glyph-name="underscore" unicode="_" horiz-adv-x="541" 
d="M504 -112h-467v97h467v-97z" />
    <glyph glyph-name="grave" unicode="`" horiz-adv-x="362" 
d="M354 649l-65 -72l-281 230l64 71z" />
    <glyph glyph-name="a" unicode="a" horiz-adv-x="589" 
d="M235 -11q-92 0 -147 42t-54 116q0 36 14.5 63.5t35.5 44t53.5 28t60 17t63.5 9.5q6 1 18 2q34 4 50 6.5t36 8t28 14.5t8 23q-1 39 -30 62.5t-79 23.5q-52 0 -87 -25.5t-40 -67.5h-119q8 84 77 137t171 53q105 0 163.5 -52t58.5 -139v-240q0 -23 26 -23h29v-92h-56
q-82 0 -96 62q-3 9 -5 18q-49 -91 -179 -91zM259 82q62 0 102 32t40 85v74q-9 -15 -31 -24t-41 -13t-55 -8q-30 -4 -47.5 -7.5t-37 -11t-28 -21t-8.5 -33.5q0 -35 27.5 -54t78.5 -19z" />
    <glyph glyph-name="b" unicode="b" horiz-adv-x="627" 
d="M355 -15q-63 0 -112.5 29t-74.5 80l-11 -94h-95v750h118v-289q62 85 176 85q105 0 172 -77.5t67 -200.5q0 -125 -67 -204t-173 -79zM329 85q64 0 104.5 51t40.5 132q0 79 -40.5 128.5t-104.5 49.5q-65 0 -107 -49t-42 -126q0 -82 42 -134t107 -52z" />
    <glyph glyph-name="c" unicode="c" horiz-adv-x="588" 
d="M306 -15q-127 0 -200.5 80t-73.5 204q0 128 76.5 202.5t194.5 74.5q108 0 176.5 -60.5t76.5 -160.5h-116q-8 55 -45 87.5t-93 32.5q-68 0 -109 -47.5t-41 -128.5q0 -85 43 -134t111 -49q54 0 89.5 32.5t44.5 89.5h116q-11 -103 -78 -163t-172 -60z" />
    <glyph glyph-name="d" unicode="d" horiz-adv-x="628" 
d="M278 -15q-108 0 -177 79t-69 204q0 123 68 200.5t174 77.5q114 0 174 -81v285h118v-750h-95l-11 94q-23 -51 -70.5 -80t-111.5 -29zM300 85q65 0 106.5 51.5t41.5 132.5q0 79 -40.5 128.5t-105.5 49.5q-66 0 -107.5 -50t-41.5 -130t41 -131t106 -51z" />
    <glyph glyph-name="e" unicode="e" horiz-adv-x="580" 
d="M305 -15q-121 0 -197 78t-76 200q0 129 74.5 206t188.5 77q113 0 182 -74.5t71 -202.5v-28h-398q6 -71 47.5 -113.5t108.5 -42.5q46 0 79 21.5t46 61.5h115q-20 -86 -84 -134.5t-157 -48.5zM155 324h271q-11 58 -45.5 90t-85.5 32q-52 0 -89 -32.5t-51 -89.5z" />
    <glyph glyph-name="f" unicode="f" horiz-adv-x="408" 
d="M237 0h-118v430h-93v100h93v66q0 75 43.5 114.5t125.5 39.5h115v-100h-107q-59 0 -59 -62v-58h154v-100h-154v-430z" />
    <glyph glyph-name="g" unicode="g" horiz-adv-x="621" 
d="M302 -216q-112 0 -181 50.5t-69 135.5h118q0 -38 37 -64t95 -26q69 0 106 37t37 99v75q-55 -83 -169 -83q-107 0 -175.5 75t-68.5 193q0 119 68.5 194.5t174.5 75.5q61 0 109.5 -26.5t73.5 -71.5l10 82h94v-514q0 -106 -70 -169t-190 -63zM299 107q64 0 105 47.5
t41 122.5t-40.5 122t-105.5 47t-105 -47t-40 -123q0 -75 40.5 -122t104.5 -47z" />
    <glyph glyph-name="h" unicode="h" horiz-adv-x="586" 
d="M180 0h-118v750h118v-277q60 73 166 73q85 0 136 -53t51 -142v-351h-118v345q0 45 -27.5 71.5t-74.5 26.5q-59 0 -95.5 -34.5t-37.5 -87.5v-321z" />
    <glyph glyph-name="i" unicode="i" horiz-adv-x="238" 
d="M119 601q-32 0 -54 22.5t-22 54.5t22 54t54 22q33 0 54.5 -22t21.5 -54q0 -33 -21.5 -55t-54.5 -22zM178 0h-118v530h118v-530z" />
    <glyph glyph-name="j" unicode="j" horiz-adv-x="238" 
d="M119 601q-32 0 -54 22t-22 55q0 32 22 54t54 22q33 0 54.5 -22t21.5 -54q0 -33 -21.5 -55t-54.5 -22zM1 -200h-84v100h76q67 0 67 70v560h118v-569q0 -79 -45.5 -120t-131.5 -41z" />
    <glyph glyph-name="k" unicode="k" horiz-adv-x="572" 
d="M180 0h-118v750h118v-450l226 230h144l-192 -191l218 -339h-137l-163 257l-96 -96v-161z" />
    <glyph glyph-name="l" unicode="l" horiz-adv-x="242" 
d="M180 0h-118v750h118v-750z" />
    <glyph glyph-name="m" unicode="m" horiz-adv-x="920" 
d="M178 0h-118v530h95l9 -74q26 40 72.5 65t104.5 25q56 0 98.5 -26.5t63.5 -72.5q23 44 72 71.5t110 27.5q83 0 132.5 -53.5t49.5 -139.5v-353h-119v347q0 44 -25 70.5t-68 26.5q-60 0 -96 -34.5t-37 -88.5v-321h-118v347q0 44 -25 70.5t-68 26.5q-60 0 -96 -34.5
t-37 -88.5v-321z" />
    <glyph glyph-name="n" unicode="n" horiz-adv-x="584" 
d="M178 0h-118v530h95l10 -78q25 42 73 68t106 26q85 0 136 -53t51 -142v-351h-118v345q0 45 -28 71.5t-77 26.5q-57 0 -93 -34.5t-37 -87.5v-321z" />
    <glyph glyph-name="o" unicode="o" horiz-adv-x="607" 
d="M304 -15q-126 0 -199 79.5t-73 205.5q0 127 76.5 201.5t195.5 74.5q125 0 198 -78t73 -198q0 -132 -75 -208.5t-196 -76.5zM304 86q70 0 110.5 51.5t40.5 132.5q0 79 -41 127t-110 48t-110.5 -48t-41.5 -127q0 -85 42.5 -134.5t109.5 -49.5z" />
    <glyph glyph-name="p" unicode="p" horiz-adv-x="627" 
d="M180 -200h-119v730h95l12 -87q27 47 76.5 75t111.5 28q105 0 172 -77.5t67 -200.5q0 -125 -67 -204t-173 -79q-56 0 -102 23.5t-73 65.5v-274zM329 85q64 0 104.5 51t40.5 132q0 79 -40.5 128.5t-105.5 49.5t-106.5 -49t-41.5 -126q0 -82 41.5 -134t107.5 -52z" />
    <glyph glyph-name="q" unicode="q" horiz-adv-x="627" 
d="M566 -200h-118v272q-55 -87 -170 -87q-108 0 -177 79t-69 204q0 123 68 200.5t174 77.5q62 0 111.5 -27t74.5 -73l11 84h95v-730zM300 85q65 0 106.5 51.5t41.5 132.5q0 79 -40.5 128.5t-105.5 49.5q-66 0 -107.5 -50t-41.5 -130t41 -131t106 -51z" />
    <glyph glyph-name="r" unicode="r" horiz-adv-x="391" 
d="M178 0h-118v530h95l14 -104q52 110 184 110h20v-115h-20q-83 0 -129 -42t-46 -117v-262z" />
    <glyph glyph-name="s" unicode="s" horiz-adv-x="500" 
d="M271 -15q-108 0 -170.5 48.5t-67.5 135.5h114q3 -42 35.5 -64.5t82.5 -22.5q92 0 92 64q0 26 -16 37.5t-55 23.5l-9 3l-70 23q-40 13 -64 23.5t-50 28.5t-38 44t-12 61q0 72 52.5 114t146.5 42q93 0 152 -48t69 -137h-112q-9 88 -110 88q-39 0 -60.5 -15.5t-21.5 -42.5
q0 -7 1.5 -12.5t5 -10.5t6.5 -9t9.5 -8t10.5 -6t12.5 -5.5t12.5 -5t13.5 -4.5t12.5 -4l64 -21q89 -30 128.5 -63t39.5 -99q0 -74 -53.5 -116t-150.5 -42z" />
    <glyph glyph-name="t" unicode="t" horiz-adv-x="400" 
d="M364 0h-68q-86 0 -131.5 41.5t-45.5 120.5v268h-93v100h93v181h118v-181h137v-100h-137v-260q0 -70 67 -70h60v-100z" />
    <glyph glyph-name="u" unicode="u" horiz-adv-x="582" 
d="M250 -15q-93 0 -146 53t-53 141v351h118v-346q0 -44 28.5 -69.5t76.5 -25.5q59 0 94 34t36 87v320h118v-530h-95l-9 77q-23 -43 -68 -67.5t-100 -24.5z" />
    <glyph glyph-name="v" unicode="v" horiz-adv-x="591" 
d="M357 0h-123l-221 530h128l155 -391l154 391h128z" />
    <glyph glyph-name="w" unicode="w" horiz-adv-x="789" 
d="M294 0h-124l-157 530h121l107 -384l105 384h98l106 -380l105 380h121l-157 -530h-122l-102 362z" />
    <glyph glyph-name="x" unicode="x" horiz-adv-x="549" 
d="M150 0h-133l191 265l-188 265h132l123 -177l122 177h132l-188 -265l191 -265h-133l-124 183z" />
    <glyph glyph-name="y" unicode="y" horiz-adv-x="577" 
d="M146 -200h-96v100h96q62 0 78 44l21 56h-22l-210 530h127l152 -402l149 402h123l-231 -621q-41 -109 -187 -109z" />
    <glyph glyph-name="z" unicode="z" horiz-adv-x="499" 
d="M460 0h-420v108l284 318h-275v104h407v-108l-285 -317h289v-105z" />
    <glyph glyph-name="braceleft" unicode="{" horiz-adv-x="359" 
d="M342 -128h-77q-70 0 -111 38t-41 103v198q0 31 -22 48t-62 17v83q40 0 62 16.5t22 47.5v189q0 74 41 113t120 39h68v-91h-64q-62 0 -62 -64v-195q0 -77 -75 -98q75 -21 75 -99v-194q0 -60 61 -60h65v-91z" />
    <glyph glyph-name="bar" unicode="|" horiz-adv-x="278" 
d="M199 -115h-120v865h120v-865z" />
    <glyph glyph-name="braceright" unicode="}" horiz-adv-x="359" 
d="M95 -128h-78v91h65q61 0 61 60v194q0 78 75 99q-75 22 -75 98v195q0 64 -61 64h-65v91h68q79 0 120.5 -39t41.5 -113v-189q0 -31 22 -47.5t62 -16.5v-83q-40 0 -62 -17t-22 -48v-198q0 -65 -41.5 -103t-110.5 -38z" />
    <glyph glyph-name="asciitilde" unicode="~" horiz-adv-x="603" 
d="M432 187q-43 0 -89.5 25.5t-84 50.5t-58.5 25q-54 0 -54 -87h-109q0 96 36.5 145.5t105.5 49.5q39 0 82.5 -25.5t82 -51t63.5 -25.5q48 0 48 83h112q0 -190 -135 -190z" />
    <glyph glyph-name="exclamdown" unicode="&#xa1;" horiz-adv-x="264" 
d="M132 393q-33 0 -55 22t-22 55q0 32 22 54t55 22t55 -22t22 -54q0 -33 -22 -55t-55 -22zM192 -217h-119v550h119v-550z" />
    <glyph glyph-name="cent" unicode="&#xa2;" horiz-adv-x="588" 
d="M335 -51h-81v125q-104 16 -163 92.5t-59 186.5q0 114 61.5 186t160.5 87v116h81v-114q95 -9 154.5 -68t66.5 -151h-116q-7 46 -34.5 77t-70.5 39v-351q42 8 70 38.5t35 79.5h116q-10 -96 -68.5 -154.5t-152.5 -66.5v-122zM254 180v341q-48 -15 -75 -59t-27 -109
q0 -67 27.5 -112t74.5 -61z" />
    <glyph glyph-name="sterling" unicode="&#xa3;" horiz-adv-x="663" 
d="M419 0h-375v109q144 0 144 92q0 36 -29 90h-115v90h66q-26 57 -26 111q0 98 69.5 160.5t179.5 62.5q103 0 172 -60.5t83 -171.5h-126q-10 59 -44 91t-85 32q-53 0 -87 -32.5t-34 -84.5q0 -44 31 -108h193v-90h-146q22 -46 22 -79q0 -37 -24 -64.5t-63 -38.5h194
q79 0 79 77v95h117v-95q0 -91 -50.5 -138.5t-145.5 -47.5z" />
    <glyph glyph-name="currency" unicode="&#xa4;" horiz-adv-x="570" 
d="M168 133l-81 -81l-51 48l79 79q-43 52 -43 131q0 73 39 124l-75 76l51 48l76 -76q54 32 122 32q72 0 122 -32l77 76l51 -47l-76 -75q41 -54 41 -127q0 -78 -44 -131l78 -79l-51 -47l-81 81q-52 -30 -117 -30t-117 30zM285 202q48 0 78 30t30 77q0 48 -30 77.5t-78 29.5
q-47 0 -76.5 -30t-29.5 -77t29.5 -77t76.5 -30z" />
    <glyph glyph-name="yen" unicode="&#xa5;" horiz-adv-x="672" 
d="M395 0h-120v98h-201v72h201v58h-201v71h201l-265 401h139l187 -287l187 287h139l-267 -401h203v-71h-203v-58h203v-72h-203v-98z" />
    <glyph glyph-name="brokenbar" unicode="&#xa6;" horiz-adv-x="278" 
d="M199 370h-120v380h120v-380zM199 -115h-120v380h120v-380z" />
    <glyph glyph-name="section" unicode="&#xa7;" horiz-adv-x="594" 
d="M300 -98q-98 0 -159 46.5t-66 125.5h114q4 -34 35 -54.5t80 -20.5q45 0 70 16.5t25 47.5q0 18 -11 30.5t-20.5 16.5t-39.5 14q-5 2 -8 3l-79 26q-80 26 -122 57t-42 90q0 86 96 129q-93 43 -93 130q0 71 55 113.5t148 42.5q92 0 149.5 -47t67.5 -131h-112q-4 39 -33 60
t-75 21q-39 0 -61.5 -15.5t-22.5 -42.5q0 -7 1.5 -12.5t5 -10.5t6.5 -9t9.5 -8t10.5 -6t12.5 -5.5t12.5 -5t13.5 -4.5t12.5 -4l64 -21q89 -30 128.5 -62t39.5 -93q0 -41 -27 -73t-72 -48q53 -22 78.5 -53.5t25.5 -84.5q0 -74 -57.5 -116t-159.5 -42zM277 246l74 -25
q52 26 52 78q0 33 -21 49t-68 31l-73 24q-55 -27 -55 -75q0 -12 2.5 -22t9.5 -17.5t11 -12.5t17 -10.5t16 -7.5t18.5 -7t16.5 -5z" />
    <glyph glyph-name="dieresis" unicode="&#xa8;" horiz-adv-x="410" 
d="M100 592q-31 0 -52 21t-21 52q0 30 21 51t52 21q30 0 51 -21t21 -51q0 -31 -21 -52t-51 -21zM311 592q-30 0 -51.5 21t-21.5 52q0 30 21.5 51t51.5 21t51 -21t21 -51q0 -31 -21 -52t-51 -21z" />
    <glyph glyph-name="copyright" unicode="&#xa9;" horiz-adv-x="880" 
d="M440 -51q-171 0 -284 112t-113 286q0 172 111.5 285t285.5 113q172 0 285 -111.5t113 -286.5q0 -171 -111.5 -284.5t-286.5 -113.5zM440 27q135 0 224 89.5t89 230.5q0 138 -87.5 229t-225.5 91q-135 0 -224 -89.5t-89 -230.5q0 -138 88 -229t225 -91zM448 155
q-84 0 -136.5 54t-52.5 140q0 85 52 138.5t134 53.5q74 0 122 -41t55 -111h-81q-4 36 -30.5 58t-65.5 22q-45 0 -74 -33.5t-29 -86.5q0 -55 30 -89t77 -34q38 0 63 22t29 59h81q-8 -69 -56 -110.5t-118 -41.5z" />
    <glyph glyph-name="ordfeminine" unicode="&#xaa;" horiz-adv-x="459" 
d="M182 305q-66 0 -106 32t-40 86q0 32 14 54.5t41.5 34.5t50.5 17t57 9q7 1 19 2t18.5 2t16 2t14.5 2.5t11.5 3.5t10 4t7 5.5t5 7.5t1.5 9q0 26 -20 42.5t-53 16.5q-41 0 -66.5 -16.5t-30.5 -46.5h-88q6 63 57 101t131 38q74 0 115.5 -37.5t41.5 -101.5v-167q0 -18 19 -18
h21v-75h-33q-66 0 -79 48q-3 5 -4 11q-39 -66 -131 -66zM198 376q45 0 74.5 24t29.5 61v43q-6 -12 -23 -19t-27.5 -8.5t-40.5 -5.5q-44 -4 -64.5 -14t-20.5 -34q0 -22 19.5 -34.5t52.5 -12.5z" />
    <glyph glyph-name="guillemotleft" unicode="&#xab;" horiz-adv-x="572" 
d="M322 82l-72 -65l-213 213v98l211 211l70 -65l-194 -195zM545 82l-73 -65l-213 213v98l211 211l71 -65l-194 -195z" />
    <glyph glyph-name="logicalnot" unicode="&#xac;" horiz-adv-x="578" 
d="M528 17h-108v223h-383v98h491v-321z" />
    <glyph glyph-name="registered" unicode="&#xae;" horiz-adv-x="607" 
d="M304 205q-117 0 -194.5 76t-77.5 195q0 117 76.5 194t195.5 77q117 0 194 -76t77 -195q0 -117 -76 -194t-195 -77zM304 271q86 0 142.5 57.5t56.5 147.5q0 88 -55.5 146t-143.5 58q-86 0 -143 -57t-57 -147q0 -88 56 -146.5t144 -58.5zM259 353h-61v247h135
q39 0 63.5 -21t24.5 -53q0 -24 -14 -41.5t-37 -25.5q26 -7 33 -30l25 -76h-63l-18 62q-5 17 -24 17h-64v-79zM259 546v-64h76q13 0 21 9.5t8 22.5t-8 22.5t-21 9.5h-76z" />
    <glyph glyph-name="macron" unicode="&#xaf;" horiz-adv-x="418" 
d="M404 620h-390v93h390v-93z" />
    <glyph glyph-name="degree" unicode="&#xb0;" horiz-adv-x="374" 
d="M187 391q-70 0 -113 44.5t-43 108.5q0 63 43 107t113 44t113 -44t43 -107q0 -64 -43 -108.5t-113 -44.5zM187 469q31 0 51 21.5t20 52.5t-20 52.5t-51 21.5t-51 -21.5t-20 -52.5t20 -52.5t51 -21.5z" />
    <glyph glyph-name="plusminus" unicode="&#xb1;" horiz-adv-x="611" 
d="M360 158h-108v146h-209v98h209v146h108v-146h209v-98h-209v-146zM569 19h-526v98h526v-98z" />
    <glyph glyph-name="uni00B2" unicode="&#xb2;" horiz-adv-x="374" 
d="M335 412h-283v36q0 48 30 84.5t66 55.5t66 44.5t30 52.5q0 21 -13.5 34t-36.5 13q-29 0 -46 -17.5t-19 -45.5h-89q8 65 50 102.5t109 37.5q59 0 96 -32.5t37 -83.5q0 -39 -27 -72t-59.5 -52t-59.5 -41t-27 -40h176v-76z" />
    <glyph glyph-name="uni00B3" unicode="&#xb3;" horiz-adv-x="381" 
d="M196 402q-72 0 -117 36.5t-49 102.5h88q3 -29 24.5 -46t55.5 -17q29 0 46 14t17 38q0 22 -17.5 34.5t-48.5 12.5h-63v67h62q25 0 39.5 12.5t14.5 32.5q0 19 -13.5 32.5t-40.5 13.5q-26 0 -44.5 -16t-21.5 -41h-89q9 65 52.5 98t105.5 33q60 0 97.5 -29.5t37.5 -76.5
q0 -65 -72 -87q42 -10 64.5 -35.5t22.5 -62.5q0 -52 -42 -84t-109 -32z" />
    <glyph glyph-name="acute" unicode="&#xb4;" horiz-adv-x="362" 
d="M354 807l-282 -230l-64 72l281 229z" />
    <glyph glyph-name="paragraph" unicode="&#xb6;" horiz-adv-x="640" 
d="M382 -103h-108v356h-6q-106 2 -169.5 65.5t-63.5 161.5q0 91 62 155t171 65h293v-803h-108v707h-71v-707z" />
    <glyph glyph-name="periodcentered" unicode="&#xb7;" horiz-adv-x="245" 
d="M122 241q-32 0 -54 22t-22 54q0 33 22 55t54 22q33 0 55 -22t22 -55q0 -32 -22 -54t-55 -22z" />
    <glyph glyph-name="cedilla" unicode="&#xb8;" horiz-adv-x="195" 
d="M183 0l-79 -226l-92 18l78 224z" />
    <glyph glyph-name="uni00B9" unicode="&#xb9;" horiz-adv-x="280" 
d="M207 412h-88v274q-19 -39 -82 -39h-14v90h14q82 0 82 57v6h88v-388z" />
    <glyph glyph-name="ordmasculine" unicode="&#xba;" horiz-adv-x="456" 
d="M228 303q-91 0 -143.5 58t-52.5 149q0 92 55.5 146.5t140.5 54.5q90 0 143 -57t53 -144q0 -96 -54.5 -151.5t-141.5 -55.5zM228 380q49 0 78 36.5t29 93.5q0 56 -29 90t-78 34t-78 -34t-29 -90q0 -60 30 -95t77 -35z" />
    <glyph glyph-name="guillemotright" unicode="&#xbb;" horiz-adv-x="572" 
d="M313 230l-213 -213l-72 65l198 197l-194 195l70 65l211 -211v-98zM536 230l-213 -213l-73 65l198 197l-194 195l71 65l211 -211v-98z" />
    <glyph glyph-name="onequarter" unicode="&#xbc;" horiz-adv-x="791" 
d="M677 699l-509 -736l-86 44l509 735zM207 312h-88v275q-19 -39 -82 -39h-14v90h14q82 0 82 56v6h88v-388zM710 0h-87v74h-184v81l185 233h86v-241h62v-73h-62v-74zM623 286l-111 -139h111v139z" />
    <glyph glyph-name="onehalf" unicode="&#xbd;" horiz-adv-x="841" 
d="M677 699l-509 -736l-86 44l509 735zM207 312h-88v275q-19 -39 -82 -39h-14v90h14q82 0 82 56v6h88v-388zM801 0h-283v36q0 39 20 70.5t48 51t56.5 36.5t48.5 37t20 43q0 20 -13.5 33.5t-36.5 13.5q-29 0 -46 -18t-20 -46h-88q7 65 49.5 103t109.5 38q59 0 95.5 -32.5
t36.5 -83.5q0 -39 -27 -72.5t-59.5 -52.5t-59.5 -40.5t-27 -39.5h176v-77z" />
    <glyph glyph-name="threequarters" unicode="&#xbe;" horiz-adv-x="896" 
d="M782 699l-509 -736l-86 44l509 735zM191 303q-72 0 -117 36t-49 102h88q3 -29 24.5 -46t55.5 -17q29 0 46 14t17 38q0 22 -17.5 35t-48.5 13h-63v66h62q25 0 39.5 13t14.5 33q0 19 -13.5 32t-40.5 13q-26 0 -44.5 -15.5t-21.5 -40.5h-89q9 65 52.5 98t105.5 33
q60 0 97.5 -30t37.5 -77q0 -31 -19 -53.5t-53 -33.5q42 -9 64.5 -34.5t22.5 -62.5q0 -52 -42 -84t-109 -32zM815 0h-87v74h-184v81l185 233h86v-241h62v-73h-62v-74zM728 286l-111 -139h111v139z" />
    <glyph glyph-name="questiondown" unicode="&#xbf;" horiz-adv-x="570" 
d="M291 546q33 0 55 -22t22 -54q0 -33 -22 -55t-55 -22t-55 22t-22 55q0 32 22 54t55 22zM233 344h117v-39q0 -45 -19.5 -80t-47 -57.5t-55 -43t-47 -46t-19.5 -56.5q0 -42 31 -69t83 -27q58 0 95.5 36.5t38.5 102.5h126q-8 -116 -79.5 -181.5t-181.5 -65.5q-105 0 -169 57
t-64 143q0 46 19.5 81.5t48 58t56.5 43t47.5 46.5t19.5 58v39z" />
    <glyph glyph-name="Agrave" unicode="&#xc0;" horiz-adv-x="729" 
d="M446 805l-65 -71l-274 226l64 71zM142 0h-124l286 700h120l287 -700h-124l-71 173h-303zM365 545l-109 -266h217z" />
    <glyph glyph-name="Aacute" unicode="&#xc1;" horiz-adv-x="729" 
d="M623 960l-275 -226l-64 71l274 226zM142 0h-124l286 700h120l287 -700h-124l-71 173h-303zM365 545l-109 -266h217z" />
    <glyph glyph-name="Acircumflex" unicode="&#xc2;" horiz-adv-x="729" 
d="M364 878l-149 -139l-70 66l181 164h78l179 -162l-70 -68zM142 0h-124l286 700h120l287 -700h-124l-71 173h-303zM365 545l-109 -266h217z" />
    <glyph glyph-name="Atilde" unicode="&#xc3;" horiz-adv-x="729" 
d="M461 772q-39 0 -90.5 35.5t-65.5 35.5q-17 0 -27.5 -18t-10.5 -47h-94q0 70 29 112t77 42q29 0 59 -18t54.5 -36t39.5 -18q32 0 32 64h92q0 -74 -24.5 -113t-70.5 -39zM142 0h-124l286 700h120l287 -700h-124l-71 173h-303zM365 545l-109 -266h217z" />
    <glyph glyph-name="Adieresis" unicode="&#xc4;" horiz-adv-x="729" 
d="M259 753q-31 0 -52 21.5t-21 51.5t21 51t52 21q30 0 51 -21t21 -51t-21 -51.5t-51 -21.5zM470 753q-30 0 -51.5 21.5t-21.5 51.5t21.5 51t51.5 21t51 -21t21 -51t-21 -51.5t-51 -21.5zM142 0h-124l286 700h120l287 -700h-124l-71 173h-303zM365 545l-109 -266h217z" />
    <glyph glyph-name="Aring" unicode="&#xc5;" horiz-adv-x="729" 
d="M365 737q-49 0 -82.5 31.5t-33.5 78.5t33 78.5t83 31.5t83 -31.5t33 -78.5t-33.5 -78.5t-82.5 -31.5zM365 798q22 0 35.5 14.5t13.5 34.5q0 21 -13 35t-36 14t-36 -14t-13 -35q0 -20 13.5 -34.5t35.5 -14.5zM142 0h-124l286 700h120l287 -700h-124l-71 173h-303zM365 545
l-109 -266h217z" />
    <glyph glyph-name="AE" unicode="&#xc6;" horiz-adv-x="974" 
d="M140 0h-122l264 700h644v-108h-371v-180h337v-105h-337v-199h380v-108h-499v176h-230zM363 591l-117 -309h190v309h-73z" />
    <glyph glyph-name="Ccedilla" unicode="&#xc7;" horiz-adv-x="771" 
d="M393 94q85 0 141 46.5t73 129.5h123q-22 -125 -97.5 -198t-194.5 -85l-75 -213l-92 18l68 196q-138 17 -218 115.5t-80 248.5q0 161 95.5 262t256.5 101q136 0 225 -75.5t112 -209.5h-123q-17 83 -74 130t-140 47q-106 0 -167.5 -69t-61.5 -186q0 -120 61.5 -189
t167.5 -69z" />
    <glyph glyph-name="Egrave" unicode="&#xc8;" horiz-adv-x="611" 
d="M404 805l-65 -71l-274 226l64 71zM572 0h-499v700h490v-108h-371v-180h336v-105h-336v-199h380v-108z" />
    <glyph glyph-name="Eacute" unicode="&#xc9;" horiz-adv-x="611" 
d="M581 960l-275 -226l-64 71l274 226zM572 0h-499v700h490v-108h-371v-180h336v-105h-336v-199h380v-108z" />
    <glyph glyph-name="Ecircumflex" unicode="&#xca;" horiz-adv-x="611" 
d="M322 878l-149 -139l-70 66l181 164h78l179 -162l-70 -68zM572 0h-499v700h490v-108h-371v-180h336v-105h-336v-199h380v-108z" />
    <glyph glyph-name="Edieresis" unicode="&#xcb;" horiz-adv-x="611" 
d="M218 753q-31 0 -52 21.5t-21 51.5t21 51t52 21q30 0 51 -21t21 -51t-21 -51.5t-51 -21.5zM429 753q-30 0 -51.5 21.5t-21.5 51.5t21.5 51t51.5 21t51 -21t21 -51t-21 -51.5t-51 -21.5zM572 0h-499v700h490v-108h-371v-180h336v-105h-336v-199h380v-108z" />
    <glyph glyph-name="Igrave" unicode="&#xcc;" horiz-adv-x="265" 
d="M214 805l-65 -71l-274 226l64 71zM193 0h-120v700h120v-700z" />
    <glyph glyph-name="Iacute" unicode="&#xcd;" horiz-adv-x="265" 
d="M391 960l-275 -226l-64 71l274 226zM193 0h-120v700h120v-700z" />
    <glyph glyph-name="Icircumflex" unicode="&#xce;" horiz-adv-x="265" 
d="M132 878l-149 -139l-70 66l181 164h78l179 -162l-70 -68zM193 0h-120v700h120v-700z" />
    <glyph glyph-name="Idieresis" unicode="&#xcf;" horiz-adv-x="265" 
d="M27 753q-31 0 -52.5 21.5t-21.5 51.5t21.5 51t52.5 21q30 0 51 -21t21 -51t-21 -51.5t-51 -21.5zM238 753q-30 0 -51.5 21.5t-21.5 51.5t21.5 51t51.5 21t51 -21t21 -51t-21 -51.5t-51 -21.5zM193 0h-120v700h120v-700z" />
    <glyph glyph-name="Eth" unicode="&#xd0;" horiz-adv-x="741" 
d="M348 0h-253v314h-101v86h101v300h253q156 0 254.5 -96.5t98.5 -249.5q0 -157 -98.5 -255.5t-254.5 -98.5zM215 314v-206h141q97 0 158.5 68.5t61.5 177.5q0 103 -62 170.5t-158 67.5h-141v-192h217v-86h-217z" />
    <glyph glyph-name="Ntilde" unicode="&#xd1;" horiz-adv-x="743" 
d="M468 772q-39 0 -90.5 35.5t-65.5 35.5q-17 0 -27.5 -18t-10.5 -47h-94q0 70 29 112t77 42q29 0 59 -18t54.5 -36t39.5 -18q32 0 32 64h92q0 -74 -24.5 -113t-70.5 -39zM193 0h-120v700h130l347 -527v527h120v-700h-130l-347 527v-527z" />
    <glyph glyph-name="Ograve" unicode="&#xd2;" horiz-adv-x="781" 
d="M471 805l-65 -71l-274 226l64 71zM390 -15q-156 0 -252.5 100.5t-96.5 266.5q0 161 95 262t254 101q157 0 254 -99.5t97 -263.5q0 -163 -95.5 -265t-255.5 -102zM390 94q105 0 167 70t62 188q0 117 -62 186t-167 69q-104 0 -165.5 -69t-61.5 -186q0 -118 61.5 -188
t165.5 -70z" />
    <glyph glyph-name="Oacute" unicode="&#xd3;" horiz-adv-x="781" 
d="M648 960l-275 -226l-64 71l274 226zM390 -15q-156 0 -252.5 100.5t-96.5 266.5q0 161 95 262t254 101q157 0 254 -99.5t97 -263.5q0 -163 -95.5 -265t-255.5 -102zM390 94q105 0 167 70t62 188q0 117 -62 186t-167 69q-104 0 -165.5 -69t-61.5 -186q0 -118 61.5 -188
t165.5 -70z" />
    <glyph glyph-name="Ocircumflex" unicode="&#xd4;" horiz-adv-x="781" 
d="M389 878l-149 -139l-70 66l181 164h78l179 -162l-70 -68zM390 -15q-156 0 -252.5 100.5t-96.5 266.5q0 161 95 262t254 101q157 0 254 -99.5t97 -263.5q0 -163 -95.5 -265t-255.5 -102zM390 94q105 0 167 70t62 188q0 117 -62 186t-167 69q-104 0 -165.5 -69t-61.5 -186
q0 -118 61.5 -188t165.5 -70z" />
    <glyph glyph-name="Otilde" unicode="&#xd5;" horiz-adv-x="781" 
d="M486 772q-39 0 -90.5 35.5t-65.5 35.5q-17 0 -27.5 -18t-10.5 -47h-94q0 70 29 112t77 42q29 0 59 -18t54.5 -36t39.5 -18q32 0 32 64h92q0 -74 -24.5 -113t-70.5 -39zM390 -15q-156 0 -252.5 100.5t-96.5 266.5q0 161 95 262t254 101q157 0 254 -99.5t97 -263.5
q0 -163 -95.5 -265t-255.5 -102zM390 94q105 0 167 70t62 188q0 117 -62 186t-167 69q-104 0 -165.5 -69t-61.5 -186q0 -118 61.5 -188t165.5 -70z" />
    <glyph glyph-name="Odieresis" unicode="&#xd6;" horiz-adv-x="781" 
d="M285 753q-31 0 -52 21.5t-21 51.5t21 51t52 21q30 0 51 -21t21 -51t-21 -51.5t-51 -21.5zM496 753q-30 0 -51.5 21.5t-21.5 51.5t21.5 51t51.5 21t51 -21t21 -51t-21 -51.5t-51 -21.5zM390 -15q-156 0 -252.5 100.5t-96.5 266.5q0 161 95 262t254 101q157 0 254 -99.5
t97 -263.5q0 -163 -95.5 -265t-255.5 -102zM390 94q105 0 167 70t62 188q0 117 -62 186t-167 69q-104 0 -165.5 -69t-61.5 -186q0 -118 61.5 -188t165.5 -70z" />
    <glyph glyph-name="multiply" unicode="&#xd7;" horiz-adv-x="517" 
d="M259 226l-156 -156l-71 70l157 157l-157 156l71 70l156 -156l156 156l71 -70l-156 -156l156 -157l-71 -70z" />
    <glyph glyph-name="Oslash" unicode="&#xd8;" horiz-adv-x="781" 
d="M730 727l-87 -110q98 -101 98 -265q0 -163 -95.5 -265t-255.5 -102q-114 0 -200 56l-84 -106l-54 41l86 109q-97 100 -97 267q0 161 95 262t254 101q114 0 200 -56l86 109zM163 352q0 -106 49 -173l308 391q-54 37 -130 37q-104 0 -165.5 -69t-61.5 -186zM390 94
q105 0 167 70t62 188q0 104 -50 171l-308 -392q54 -37 129 -37z" />
    <glyph glyph-name="Ugrave" unicode="&#xd9;" horiz-adv-x="717" 
d="M440 805l-65 -71l-274 226l64 71zM359 -15q-133 0 -212.5 70t-79.5 178v467h120v-464q0 -66 47.5 -103.5t123.5 -37.5t124 37.5t48 103.5v464h120v-467q0 -108 -79 -178t-212 -70z" />
    <glyph glyph-name="Uacute" unicode="&#xda;" horiz-adv-x="717" 
d="M617 960l-275 -226l-64 71l274 226zM359 -15q-133 0 -212.5 70t-79.5 178v467h120v-464q0 -66 47.5 -103.5t123.5 -37.5t124 37.5t48 103.5v464h120v-467q0 -108 -79 -178t-212 -70z" />
    <glyph glyph-name="Ucircumflex" unicode="&#xdb;" horiz-adv-x="717" 
d="M358 878l-149 -139l-70 66l181 164h78l179 -162l-70 -68zM359 -15q-133 0 -212.5 70t-79.5 178v467h120v-464q0 -66 47.5 -103.5t123.5 -37.5t124 37.5t48 103.5v464h120v-467q0 -108 -79 -178t-212 -70z" />
    <glyph glyph-name="Udieresis" unicode="&#xdc;" horiz-adv-x="717" 
d="M253 753q-31 0 -52 21.5t-21 51.5t21 51t52 21q30 0 51 -21t21 -51t-21 -51.5t-51 -21.5zM464 753q-30 0 -51.5 21.5t-21.5 51.5t21.5 51t51.5 21t51 -21t21 -51t-21 -51.5t-51 -21.5zM359 -15q-133 0 -212.5 70t-79.5 178v467h120v-464q0 -66 47.5 -103.5t123.5 -37.5
t124 37.5t48 103.5v464h120v-467q0 -108 -79 -178t-212 -70z" />
    <glyph glyph-name="Yacute" unicode="&#xdd;" horiz-adv-x="672" 
d="M594 960l-275 -226l-64 71l274 226zM395 0h-120v299l-265 401h139l187 -287l187 287h139l-267 -401v-299z" />
    <glyph glyph-name="Thorn" unicode="&#xde;" horiz-adv-x="693" 
d="M193 0h-120v700h120v-122h235q105 0 167.5 -62.5t62.5 -158.5q0 -103 -65 -165t-165 -62h-235v-130zM193 470v-232h229q54 0 84 34.5t30 84.5t-31.5 81.5t-82.5 31.5h-229z" />
    <glyph glyph-name="germandbls" unicode="&#xdf;" horiz-adv-x="599" 
d="M341 -15q-54 0 -109 17v103q47 -19 93 -19q54 0 86.5 28.5t32.5 76.5q0 51 -35.5 81.5t-93.5 30.5h-52v103h52q47 0 76.5 28.5t29.5 73.5q0 47 -32 76.5t-82 29.5q-60 0 -93.5 -37t-33.5 -102v-475h-118v477q0 109 66 173.5t182 64.5q100 0 163 -52.5t63 -134.5
q0 -64 -41.5 -108.5t-112.5 -55.5q83 -14 132 -65.5t49 -125.5q0 -83 -61 -135.5t-161 -52.5z" />
    <glyph glyph-name="agrave" unicode="&#xe0;" horiz-adv-x="589" 
d="M366 649l-65 -72l-281 230l64 71zM235 -11q-92 0 -147 42t-54 116q0 36 14.5 63.5t35.5 44t53.5 28t60 17t63.5 9.5q6 1 18 2q34 4 50 6.5t36 8t28 14.5t8 23q-1 39 -30 62.5t-79 23.5q-52 0 -87 -25.5t-40 -67.5h-119q8 84 77 137t171 53q105 0 163.5 -52t58.5 -139
v-240q0 -23 26 -23h29v-92h-56q-82 0 -96 62q-3 9 -5 18q-49 -91 -179 -91zM259 82q62 0 102 32t40 85v74q-9 -15 -31 -24t-41 -13t-55 -8q-30 -4 -47.5 -7.5t-37 -11t-28 -21t-8.5 -33.5q0 -35 27.5 -54t78.5 -19z" />
    <glyph glyph-name="aacute" unicode="&#xe1;" horiz-adv-x="589" 
d="M550 807l-282 -230l-64 72l281 229zM235 -11q-92 0 -147 42t-54 116q0 36 14.5 63.5t35.5 44t53.5 28t60 17t63.5 9.5q6 1 18 2q34 4 50 6.5t36 8t28 14.5t8 23q-1 39 -30 62.5t-79 23.5q-52 0 -87 -25.5t-40 -67.5h-119q8 84 77 137t171 53q105 0 163.5 -52t58.5 -139
v-240q0 -23 26 -23h29v-92h-56q-82 0 -96 62q-3 9 -5 18q-49 -91 -179 -91zM259 82q62 0 102 32t40 85v74q-9 -15 -31 -24t-41 -13t-55 -8q-30 -4 -47.5 -7.5t-37 -11t-28 -21t-8.5 -33.5q0 -35 27.5 -54t78.5 -19z" />
    <glyph glyph-name="acircumflex" unicode="&#xe2;" horiz-adv-x="589" 
d="M284 722l-156 -145l-70 66l188 170h78l186 -168l-71 -68zM235 -11q-92 0 -147 42t-54 116q0 36 14.5 63.5t35.5 44t53.5 28t60 17t63.5 9.5q6 1 18 2q34 4 50 6.5t36 8t28 14.5t8 23q-1 39 -30 62.5t-79 23.5q-52 0 -87 -25.5t-40 -67.5h-119q8 84 77 137t171 53
q105 0 163.5 -52t58.5 -139v-240q0 -23 26 -23h29v-92h-56q-82 0 -96 62q-3 9 -5 18q-49 -91 -179 -91zM259 82q62 0 102 32t40 85v74q-9 -15 -31 -24t-41 -13t-55 -8q-30 -4 -47.5 -7.5t-37 -11t-28 -21t-8.5 -33.5q0 -35 27.5 -54t78.5 -19z" />
    <glyph glyph-name="atilde" unicode="&#xe3;" horiz-adv-x="589" 
d="M381 623q-39 0 -91 35.5t-66 35.5q-16 0 -26.5 -18.5t-10.5 -47.5h-94q0 70 29 112t77 42q38 0 88 -35.5t65 -35.5q32 0 32 63h92q0 -73 -24.5 -112t-70.5 -39zM235 -11q-92 0 -147 42t-54 116q0 36 14.5 63.5t35.5 44t53.5 28t60 17t63.5 9.5q6 1 18 2q34 4 50 6.5t36 8
t28 14.5t8 23q-1 39 -30 62.5t-79 23.5q-52 0 -87 -25.5t-40 -67.5h-119q8 84 77 137t171 53q105 0 163.5 -52t58.5 -139v-240q0 -23 26 -23h29v-92h-56q-82 0 -96 62q-3 9 -5 18q-49 -91 -179 -91zM259 82q62 0 102 32t40 85v74q-9 -15 -31 -24t-41 -13t-55 -8
q-30 -4 -47.5 -7.5t-37 -11t-28 -21t-8.5 -33.5q0 -35 27.5 -54t78.5 -19z" />
    <glyph glyph-name="adieresis" unicode="&#xe4;" horiz-adv-x="589" 
d="M179 592q-31 0 -52 21t-21 52q0 30 21 51t52 21q30 0 51 -21t21 -51q0 -31 -21 -52t-51 -21zM390 592q-30 0 -51.5 21t-21.5 52q0 30 21.5 51t51.5 21t51 -21t21 -51q0 -31 -21 -52t-51 -21zM235 -11q-92 0 -147 42t-54 116q0 36 14.5 63.5t35.5 44t53.5 28t60 17
t63.5 9.5q6 1 18 2q34 4 50 6.5t36 8t28 14.5t8 23q-1 39 -30 62.5t-79 23.5q-52 0 -87 -25.5t-40 -67.5h-119q8 84 77 137t171 53q105 0 163.5 -52t58.5 -139v-240q0 -23 26 -23h29v-92h-56q-82 0 -96 62q-3 9 -5 18q-49 -91 -179 -91zM259 82q62 0 102 32t40 85v74
q-9 -15 -31 -24t-41 -13t-55 -8q-30 -4 -47.5 -7.5t-37 -11t-28 -21t-8.5 -33.5q0 -35 27.5 -54t78.5 -19z" />
    <glyph glyph-name="aring" unicode="&#xe5;" horiz-adv-x="589" 
d="M284 575q-49 0 -82.5 31.5t-33.5 78.5t33 78.5t83 31.5t83 -31.5t33 -78.5t-33.5 -78.5t-82.5 -31.5zM284 639q21 0 34 13.5t13 32.5t-13 33t-34 14q-22 0 -34.5 -13.5t-12.5 -33.5t12.5 -33t34.5 -13zM235 -11q-92 0 -147 42t-54 116q0 36 14.5 63.5t35.5 44t53.5 28
t60 17t63.5 9.5q6 1 18 2q34 4 50 6.5t36 8t28 14.5t8 23q-1 39 -30 62.5t-79 23.5q-52 0 -87 -25.5t-40 -67.5h-119q8 84 77 137t171 53q105 0 163.5 -52t58.5 -139v-240q0 -23 26 -23h29v-92h-56q-82 0 -96 62q-3 9 -5 18q-49 -91 -179 -91zM259 82q62 0 102 32t40 85v74
q-9 -15 -31 -24t-41 -13t-55 -8q-30 -4 -47.5 -7.5t-37 -11t-28 -21t-8.5 -33.5q0 -35 27.5 -54t78.5 -19z" />
    <glyph glyph-name="ae" unicode="&#xe6;" horiz-adv-x="960" 
d="M685 -15q-84 0 -147 38.5t-96 106.5q-18 -67 -70.5 -104t-136.5 -37q-92 0 -147 42t-54 116q0 36 14.5 63.5t35.5 44t53.5 28t60 17t63.5 9.5q6 1 18 2q34 4 50 6.5t36 8t28 14.5t8 23q-1 39 -30 62.5t-79 23.5q-52 0 -87 -25.5t-40 -67.5h-119q8 84 77 137t171 53
q132 0 190 -82q73 82 191 82q113 0 182 -74.5t71 -202.5v-28h-398q6 -71 47.5 -113.5t108.5 -42.5q46 0 79 21.5t46 61.5h115q-20 -86 -84 -134.5t-157 -48.5zM535 324h271q-11 58 -45.5 90t-85.5 32q-52 0 -89 -32.5t-51 -89.5zM259 82q63 0 102.5 34t39.5 93v64
q-9 -15 -31 -24t-41 -13t-55 -8q-30 -4 -47.5 -7.5t-37 -11t-28 -21t-8.5 -33.5q0 -35 27.5 -54t78.5 -19z" />
    <glyph glyph-name="ccedilla" unicode="&#xe7;" horiz-adv-x="588" 
d="M306 86q54 0 89.5 32.5t44.5 89.5h116q-9 -91 -64 -149.5t-142 -70.5l-75 -214l-92 18l69 197q-103 18 -161.5 94.5t-58.5 185.5q0 128 76.5 202.5t194.5 74.5q108 0 176.5 -60.5t76.5 -160.5h-116q-8 55 -45 87.5t-93 32.5q-68 0 -109 -47.5t-41 -128.5q0 -85 43 -134
t111 -49z" />
    <glyph glyph-name="egrave" unicode="&#xe8;" horiz-adv-x="580" 
d="M374 649l-65 -72l-281 230l64 71zM305 -15q-121 0 -197 78t-76 200q0 129 74.5 206t188.5 77q113 0 182 -74.5t71 -202.5v-28h-398q6 -71 47.5 -113.5t108.5 -42.5q46 0 79 21.5t46 61.5h115q-20 -86 -84 -134.5t-157 -48.5zM155 324h271q-11 58 -45.5 90t-85.5 32
q-52 0 -89 -32.5t-51 -89.5z" />
    <glyph glyph-name="eacute" unicode="&#xe9;" horiz-adv-x="580" 
d="M558 807l-282 -230l-64 72l281 229zM305 -15q-121 0 -197 78t-76 200q0 129 74.5 206t188.5 77q113 0 182 -74.5t71 -202.5v-28h-398q6 -71 47.5 -113.5t108.5 -42.5q46 0 79 21.5t46 61.5h115q-20 -86 -84 -134.5t-157 -48.5zM155 324h271q-11 58 -45.5 90t-85.5 32
q-52 0 -89 -32.5t-51 -89.5z" />
    <glyph glyph-name="ecircumflex" unicode="&#xea;" horiz-adv-x="580" 
d="M292 722l-156 -145l-70 66l188 170h78l186 -168l-71 -68zM305 -15q-121 0 -197 78t-76 200q0 129 74.5 206t188.5 77q113 0 182 -74.5t71 -202.5v-28h-398q6 -71 47.5 -113.5t108.5 -42.5q46 0 79 21.5t46 61.5h115q-20 -86 -84 -134.5t-157 -48.5zM155 324h271
q-11 58 -45.5 90t-85.5 32q-52 0 -89 -32.5t-51 -89.5z" />
    <glyph glyph-name="edieresis" unicode="&#xeb;" horiz-adv-x="580" 
d="M187 592q-31 0 -52 21t-21 52q0 30 21 51t52 21q30 0 51 -21t21 -51q0 -31 -21 -52t-51 -21zM398 592q-30 0 -51.5 21t-21.5 52q0 30 21.5 51t51.5 21t51 -21t21 -51q0 -31 -21 -52t-51 -21zM305 -15q-121 0 -197 78t-76 200q0 129 74.5 206t188.5 77q113 0 182 -74.5
t71 -202.5v-28h-398q6 -71 47.5 -113.5t108.5 -42.5q46 0 79 21.5t46 61.5h115q-20 -86 -84 -134.5t-157 -48.5zM155 324h271q-11 58 -45.5 90t-85.5 32q-52 0 -89 -32.5t-51 -89.5z" />
    <glyph glyph-name="igrave" unicode="&#xec;" horiz-adv-x="239" 
d="M201 649l-65 -72l-281 230l64 71zM178 0h-118l1 530h118z" />
    <glyph glyph-name="iacute" unicode="&#xed;" horiz-adv-x="239" 
d="M386 807l-282 -230l-64 72l281 229zM178 0h-118l1 530h118z" />
    <glyph glyph-name="icircumflex" unicode="&#xee;" horiz-adv-x="239" 
d="M120 722l-156 -145l-70 66l188 170h78l186 -168l-71 -68zM178 0h-118l1 530h118z" />
    <glyph glyph-name="idieresis" unicode="&#xef;" horiz-adv-x="239" 
d="M15 592q-31 0 -52.5 21t-21.5 52q0 30 21.5 51t52.5 21q30 0 51 -21t21 -51q0 -31 -21 -52t-51 -21zM226 592q-30 0 -51.5 21t-21.5 52q0 30 21.5 51t51.5 21t51 -21t21 -51q0 -31 -21 -52t-51 -21zM178 0h-118l1 530h118z" />
    <glyph glyph-name="eth" unicode="&#xf0;" horiz-adv-x="600" 
d="M286 -15q-111 0 -182.5 73.5t-71.5 188.5q0 110 65.5 178.5t168.5 68.5q111 0 167 -81q-21 97 -110 162l-188 -73l-35 79l121 46q-49 19 -113 33l27 98q127 -27 217 -80l163 62l34 -77l-118 -46q124 -115 124 -305q0 -149 -73.5 -238t-195.5 -89zM291 86q61 0 98.5 43.5
t37.5 114.5q0 67 -38 109.5t-99 42.5t-99.5 -42.5t-38.5 -110.5t39 -112.5t100 -44.5z" />
    <glyph glyph-name="ntilde" unicode="&#xf1;" horiz-adv-x="584" 
d="M400 623q-39 0 -91 35.5t-66 35.5q-16 0 -26.5 -18.5t-10.5 -47.5h-94q0 70 29 112t77 42q38 0 88 -35.5t65 -35.5q32 0 32 63h92q0 -73 -24.5 -112t-70.5 -39zM178 0h-118v530h95l10 -78q25 42 73 68t106 26q85 0 136 -53t51 -142v-351h-118v345q0 45 -28 71.5t-77 26.5
q-57 0 -93 -34.5t-37 -87.5v-321z" />
    <glyph glyph-name="ograve" unicode="&#xf2;" horiz-adv-x="607" 
d="M385 649l-65 -72l-281 230l64 71zM304 -15q-126 0 -199 79.5t-73 205.5q0 127 76.5 201.5t195.5 74.5q125 0 198 -78t73 -198q0 -132 -75 -208.5t-196 -76.5zM304 86q70 0 110.5 51.5t40.5 132.5q0 79 -41 127t-110 48t-110.5 -48t-41.5 -127q0 -85 42.5 -134.5
t109.5 -49.5z" />
    <glyph glyph-name="oacute" unicode="&#xf3;" horiz-adv-x="607" 
d="M569 807l-282 -230l-64 72l281 229zM304 -15q-126 0 -199 79.5t-73 205.5q0 127 76.5 201.5t195.5 74.5q125 0 198 -78t73 -198q0 -132 -75 -208.5t-196 -76.5zM304 86q70 0 110.5 51.5t40.5 132.5q0 79 -41 127t-110 48t-110.5 -48t-41.5 -127q0 -85 42.5 -134.5
t109.5 -49.5z" />
    <glyph glyph-name="ocircumflex" unicode="&#xf4;" horiz-adv-x="607" 
d="M304 722l-156 -145l-70 66l188 170h78l186 -168l-71 -68zM304 -15q-126 0 -199 79.5t-73 205.5q0 127 76.5 201.5t195.5 74.5q125 0 198 -78t73 -198q0 -132 -75 -208.5t-196 -76.5zM304 86q70 0 110.5 51.5t40.5 132.5q0 79 -41 127t-110 48t-110.5 -48t-41.5 -127
q0 -85 42.5 -134.5t109.5 -49.5z" />
    <glyph glyph-name="otilde" unicode="&#xf5;" horiz-adv-x="607" 
d="M400 623q-39 0 -91 35.5t-66 35.5q-16 0 -26.5 -18.5t-10.5 -47.5h-94q0 70 29 112t77 42q38 0 88 -35.5t65 -35.5q32 0 32 63h92q0 -73 -24.5 -112t-70.5 -39zM304 -15q-126 0 -199 79.5t-73 205.5q0 127 76.5 201.5t195.5 74.5q125 0 198 -78t73 -198
q0 -132 -75 -208.5t-196 -76.5zM304 86q70 0 110.5 51.5t40.5 132.5q0 79 -41 127t-110 48t-110.5 -48t-41.5 -127q0 -85 42.5 -134.5t109.5 -49.5z" />
    <glyph glyph-name="odieresis" unicode="&#xf6;" horiz-adv-x="607" 
d="M199 592q-31 0 -52 21t-21 52q0 30 21 51t52 21q30 0 51 -21t21 -51q0 -31 -21 -52t-51 -21zM410 592q-30 0 -51.5 21t-21.5 52q0 30 21.5 51t51.5 21t51 -21t21 -51q0 -31 -21 -52t-51 -21zM304 -15q-126 0 -199 79.5t-73 205.5q0 127 76.5 201.5t195.5 74.5
q125 0 198 -78t73 -198q0 -132 -75 -208.5t-196 -76.5zM304 86q70 0 110.5 51.5t40.5 132.5q0 79 -41 127t-110 48t-110.5 -48t-41.5 -127q0 -85 42.5 -134.5t109.5 -49.5z" />
    <glyph glyph-name="divide" unicode="&#xf7;" horiz-adv-x="581" 
d="M291 426q-34 0 -55.5 22t-21.5 55q0 32 21.5 53.5t55.5 21.5q33 0 55 -21.5t22 -53.5q0 -33 -22 -55t-55 -22zM545 258h-508v97h508v-97zM291 36q-33 0 -55 22.5t-22 55.5q0 32 22 53.5t55 21.5t55 -21.5t22 -53.5q0 -33 -22 -55.5t-55 -22.5z" />
    <glyph glyph-name="oslash" unicode="&#xf8;" horiz-adv-x="607" 
d="M561 539l-57 -73q71 -76 71 -196q0 -132 -75 -208.5t-196 -76.5q-85 0 -148 38l-55 -70l-52 35l58 74q-75 78 -75 208q0 127 76.5 201.5t195.5 74.5q86 0 150 -39l53 67zM152 270q0 -69 28 -114l207 265q-37 24 -83 24q-69 0 -110.5 -48t-41.5 -127zM304 86
q70 0 110.5 51.5t40.5 132.5q0 58 -24 103l-207 -264q35 -23 80 -23z" />
    <glyph glyph-name="ugrave" unicode="&#xf9;" horiz-adv-x="582" 
d="M368 649l-65 -72l-281 230l64 71zM250 -15q-93 0 -146 53t-53 141v351h118v-346q0 -44 28.5 -69.5t76.5 -25.5q59 0 94 34t36 87v320h118v-530h-95l-9 77q-23 -43 -68 -67.5t-100 -24.5z" />
    <glyph glyph-name="uacute" unicode="&#xfa;" horiz-adv-x="582" 
d="M552 807l-282 -230l-64 72l281 229zM250 -15q-93 0 -146 53t-53 141v351h118v-346q0 -44 28.5 -69.5t76.5 -25.5q59 0 94 34t36 87v320h118v-530h-95l-9 77q-23 -43 -68 -67.5t-100 -24.5z" />
    <glyph glyph-name="ucircumflex" unicode="&#xfb;" horiz-adv-x="582" 
d="M287 722l-156 -145l-70 66l188 170h78l186 -168l-71 -68zM250 -15q-93 0 -146 53t-53 141v351h118v-346q0 -44 28.5 -69.5t76.5 -25.5q59 0 94 34t36 87v320h118v-530h-95l-9 77q-23 -43 -68 -67.5t-100 -24.5z" />
    <glyph glyph-name="udieresis" unicode="&#xfc;" horiz-adv-x="582" 
d="M182 592q-31 0 -52 21t-21 52q0 30 21 51t52 21q30 0 51 -21t21 -51q0 -31 -21 -52t-51 -21zM393 592q-30 0 -51.5 21t-21.5 52q0 30 21.5 51t51.5 21t51 -21t21 -51q0 -31 -21 -52t-51 -21zM250 -15q-93 0 -146 53t-53 141v351h118v-346q0 -44 28.5 -69.5t76.5 -25.5
q59 0 94 34t36 87v320h118v-530h-95l-9 77q-23 -43 -68 -67.5t-100 -24.5z" />
    <glyph glyph-name="yacute" unicode="&#xfd;" horiz-adv-x="577" 
d="M556 807l-282 -230l-64 72l281 229zM146 -200h-96v100h96q62 0 78 44l21 56h-22l-210 530h127l152 -402l149 402h123l-231 -621q-41 -109 -187 -109z" />
    <glyph glyph-name="thorn" unicode="&#xfe;" horiz-adv-x="627" 
d="M180 -200h-118v950h118v-289q28 40 74.5 62.5t101.5 22.5q105 0 172 -77.5t67 -200.5q0 -125 -67 -204t-173 -79q-56 0 -102 23.5t-73 65.5v-274zM329 85q64 0 104.5 51t40.5 132q0 79 -40.5 128.5t-105.5 49.5t-106.5 -49t-41.5 -126q0 -82 41.5 -134t107.5 -52z" />
    <glyph glyph-name="ydieresis" unicode="&#xff;" horiz-adv-x="577" 
d="M186 592q-31 0 -52 21t-21 52q0 30 21 51t52 21q30 0 51 -21t21 -51q0 -31 -21 -52t-51 -21zM397 592q-30 0 -51.5 21t-21.5 52q0 30 21.5 51t51.5 21t51 -21t21 -51q0 -31 -21 -52t-51 -21zM146 -200h-96v100h96q62 0 78 44l21 56h-22l-210 530h127l152 -402l149 402
h123l-231 -621q-41 -109 -187 -109z" />
    <glyph glyph-name="Amacron" unicode="&#x100;" horiz-adv-x="729" 
d="M560 787h-390v93h390v-93zM142 0h-124l286 700h120l287 -700h-124l-71 173h-303zM365 545l-109 -266h217z" />
    <glyph glyph-name="amacron" unicode="&#x101;" horiz-adv-x="589" 
d="M479 620h-390v93h390v-93zM235 -11q-92 0 -147 42t-54 116q0 36 14.5 63.5t35.5 44t53.5 28t60 17t63.5 9.5q6 1 18 2q34 4 50 6.5t36 8t28 14.5t8 23q-1 39 -30 62.5t-79 23.5q-52 0 -87 -25.5t-40 -67.5h-119q8 84 77 137t171 53q105 0 163.5 -52t58.5 -139v-240
q0 -23 26 -23h29v-92h-56q-82 0 -96 62q-3 9 -5 18q-49 -91 -179 -91zM259 82q62 0 102 32t40 85v74q-9 -15 -31 -24t-41 -13t-55 -8q-30 -4 -47.5 -7.5t-37 -11t-28 -21t-8.5 -33.5q0 -35 27.5 -54t78.5 -19z" />
    <glyph glyph-name="Abreve" unicode="&#x102;" horiz-adv-x="729" 
d="M364 765q-79 0 -128.5 44.5t-49.5 114.5v9h101v-9q0 -32 21.5 -52t55.5 -20q33 0 54 20t21 52v9h100v-9q0 -70 -49 -114.5t-126 -44.5zM142 0h-124l286 700h120l287 -700h-124l-71 173h-303zM365 545l-109 -266h217z" />
    <glyph glyph-name="abreve" unicode="&#x103;" horiz-adv-x="589" 
d="M284 605q-79 0 -128.5 44.5t-49.5 114.5v9h101v-9q0 -32 21.5 -52t55.5 -20q33 0 54 20t21 52v9h100v-9q0 -70 -49 -114.5t-126 -44.5zM235 -11q-92 0 -147 42t-54 116q0 36 14.5 63.5t35.5 44t53.5 28t60 17t63.5 9.5q6 1 18 2q34 4 50 6.5t36 8t28 14.5t8 23
q-1 39 -30 62.5t-79 23.5q-52 0 -87 -25.5t-40 -67.5h-119q8 84 77 137t171 53q105 0 163.5 -52t58.5 -139v-240q0 -23 26 -23h29v-92h-56q-82 0 -96 62q-3 9 -5 18q-49 -91 -179 -91zM259 82q62 0 102 32t40 85v74q-9 -15 -31 -24t-41 -13t-55 -8q-30 -4 -47.5 -7.5
t-37 -11t-28 -21t-8.5 -33.5q0 -35 27.5 -54t78.5 -19z" />
    <glyph glyph-name="Aogonek" unicode="&#x104;" horiz-adv-x="729" 
d="M704 -111l15 -92q-39 -13 -76 -13q-55 0 -87 25t-32 66q0 71 79 125h-16l-71 173h-303l-71 -173h-124l286 700h120l287 -700h-14q-79 -43 -79 -90q0 -31 39 -31q17 0 47 10zM365 545l-109 -266h217z" />
    <glyph glyph-name="aogonek" unicode="&#x105;" horiz-adv-x="589" 
d="M578 -111l15 -92q-39 -13 -76 -13q-55 0 -87 25t-32 66q0 34 22.5 68.5t61.5 59.5q-52 12 -63 59q-3 9 -5 18q-49 -91 -179 -91q-92 0 -147 42t-54 116q0 36 14.5 63.5t35.5 44t53.5 28t60 17t63.5 9.5q6 1 18 2q34 4 50 6.5t36 8t28 14.5t8 23q-1 39 -30 62.5t-79 23.5
q-52 0 -87 -25.5t-40 -67.5h-119q8 84 77 137t171 53q105 0 163.5 -52t58.5 -139v-240q0 -23 26 -23h29v-92q-79 -43 -79 -90q0 -31 39 -31q17 0 47 10zM401 199v74q-9 -15 -31 -24t-41 -13t-55 -8q-30 -4 -47.5 -7.5t-37 -11t-28 -21t-8.5 -33.5q0 -35 27.5 -54t78.5 -19
q62 0 102 32t40 85z" />
    <glyph glyph-name="Cacute" unicode="&#x106;" horiz-adv-x="771" 
d="M651 960l-275 -226l-64 71l274 226zM393 -15q-160 0 -256 101t-96 266q0 161 95.5 262t256.5 101q136 0 225 -75.5t112 -209.5h-123q-17 83 -74 130t-140 47q-106 0 -167.5 -69t-61.5 -186q0 -120 61.5 -189t167.5 -69q85 0 141 46.5t73 129.5h123q-24 -136 -112 -210.5
t-225 -74.5z" />
    <glyph glyph-name="cacute" unicode="&#x107;" horiz-adv-x="588" 
d="M568 807l-282 -230l-64 72l281 229zM306 -15q-127 0 -200.5 80t-73.5 204q0 128 76.5 202.5t194.5 74.5q108 0 176.5 -60.5t76.5 -160.5h-116q-8 55 -45 87.5t-93 32.5q-68 0 -109 -47.5t-41 -128.5q0 -85 43 -134t111 -49q54 0 89.5 32.5t44.5 89.5h116
q-11 -103 -78 -163t-172 -60z" />
    <glyph glyph-name="Cdotaccent" unicode="&#x10a;" horiz-adv-x="771" 
d="M393 753q-31 0 -52 21t-21 52t21 51.5t52 20.5t52 -20.5t21 -51.5t-21 -52t-52 -21zM393 -15q-160 0 -256 101t-96 266q0 161 95.5 262t256.5 101q136 0 225 -75.5t112 -209.5h-123q-17 83 -74 130t-140 47q-106 0 -167.5 -69t-61.5 -186q0 -120 61.5 -189t167.5 -69
q85 0 141 46.5t73 129.5h123q-24 -136 -112 -210.5t-225 -74.5z" />
    <glyph glyph-name="cdotaccent" unicode="&#x10b;" horiz-adv-x="588" 
d="M303 592q-31 0 -52 21t-21 52q0 30 21 51t52 21t52 -21t21 -51q0 -31 -21 -52t-52 -21zM306 -15q-127 0 -200.5 80t-73.5 204q0 128 76.5 202.5t194.5 74.5q108 0 176.5 -60.5t76.5 -160.5h-116q-8 55 -45 87.5t-93 32.5q-68 0 -109 -47.5t-41 -128.5q0 -85 43 -134
t111 -49q54 0 89.5 32.5t44.5 89.5h116q-11 -103 -78 -163t-172 -60z" />
    <glyph glyph-name="Ccaron" unicode="&#x10c;" horiz-adv-x="771" 
d="M432 757h-78l-181 163l70 66l149 -139l149 139l70 -67zM393 -15q-160 0 -256 101t-96 266q0 161 95.5 262t256.5 101q136 0 225 -75.5t112 -209.5h-123q-17 83 -74 130t-140 47q-106 0 -167.5 -69t-61.5 -186q0 -120 61.5 -189t167.5 -69q85 0 141 46.5t73 129.5h123
q-24 -136 -112 -210.5t-225 -74.5z" />
    <glyph glyph-name="ccaron" unicode="&#x10d;" horiz-adv-x="588" 
d="M342 598h-78l-188 170l70 65l156 -145l155 145l71 -67zM306 -15q-127 0 -200.5 80t-73.5 204q0 128 76.5 202.5t194.5 74.5q108 0 176.5 -60.5t76.5 -160.5h-116q-8 55 -45 87.5t-93 32.5q-68 0 -109 -47.5t-41 -128.5q0 -85 43 -134t111 -49q54 0 89.5 32.5t44.5 89.5
h116q-11 -103 -78 -163t-172 -60z" />
    <glyph glyph-name="Dcaron" unicode="&#x10e;" horiz-adv-x="719" 
d="M359 757h-78l-181 163l70 66l149 -139l149 139l70 -67zM325 0h-252v700h252q156 0 254.5 -96.5t98.5 -249.5q0 -157 -98.5 -255.5t-254.5 -98.5zM193 592v-484h140q98 0 159.5 68.5t61.5 177.5q0 103 -62 170.5t-159 67.5h-140z" />
    <glyph glyph-name="dcaron" unicode="&#x10f;" horiz-adv-x="734" 
d="M278 -15q-108 0 -177 79t-69 204q0 123 68 200.5t174 77.5q114 0 174 -81v285h118v-750h-95l-11 94q-23 -51 -70.5 -80t-111.5 -29zM736 424h-98v326h98v-326zM300 85q65 0 106.5 51.5t41.5 132.5q0 79 -40.5 128.5t-105.5 49.5q-66 0 -107.5 -50t-41.5 -130t41 -131
t106 -51z" />
    <glyph glyph-name="Dcroat" unicode="&#x110;" horiz-adv-x="741" 
d="M348 0h-253v314h-101v86h101v300h253q156 0 254.5 -96.5t98.5 -249.5q0 -157 -98.5 -255.5t-254.5 -98.5zM215 314v-206h141q97 0 158.5 68.5t61.5 177.5q0 103 -62 170.5t-158 67.5h-141v-192h217v-86h-217z" />
    <glyph glyph-name="dcroat" unicode="&#x111;" horiz-adv-x="657" 
d="M278 -15q-108 0 -177 79t-69 204q0 123 68 200.5t174 77.5q114 0 174 -81v143h-228v86h228v56h118v-56h98v-86h-98v-608h-95l-11 94q-23 -51 -70.5 -80t-111.5 -29zM300 85q65 0 106.5 51.5t41.5 132.5q0 79 -40.5 128.5t-105.5 49.5q-66 0 -107.5 -50t-41.5 -130
t41 -131t106 -51z" />
    <glyph glyph-name="Emacron" unicode="&#x112;" horiz-adv-x="611" 
d="M518 787h-390v93h390v-93zM572 0h-499v700h490v-108h-371v-180h336v-105h-336v-199h380v-108z" />
    <glyph glyph-name="emacron" unicode="&#x113;" horiz-adv-x="580" 
d="M487 620h-390v93h390v-93zM305 -15q-121 0 -197 78t-76 200q0 129 74.5 206t188.5 77q113 0 182 -74.5t71 -202.5v-28h-398q6 -71 47.5 -113.5t108.5 -42.5q46 0 79 21.5t46 61.5h115q-20 -86 -84 -134.5t-157 -48.5zM155 324h271q-11 58 -45.5 90t-85.5 32
q-52 0 -89 -32.5t-51 -89.5z" />
    <glyph glyph-name="Edotaccent" unicode="&#x116;" horiz-adv-x="611" 
d="M323 753q-31 0 -52 21t-21 52t21 51.5t52 20.5t52 -20.5t21 -51.5t-21 -52t-52 -21zM572 0h-499v700h490v-108h-371v-180h336v-105h-336v-199h380v-108z" />
    <glyph glyph-name="edotaccent" unicode="&#x117;" horiz-adv-x="580" 
d="M293 592q-31 0 -52 21t-21 52q0 30 21 51t52 21t52 -21t21 -51q0 -31 -21 -52t-52 -21zM305 -15q-121 0 -197 78t-76 200q0 129 74.5 206t188.5 77q113 0 182 -74.5t71 -202.5v-28h-398q6 -71 47.5 -113.5t108.5 -42.5q46 0 79 21.5t46 61.5h115q-20 -86 -84 -134.5
t-157 -48.5zM155 324h271q-11 58 -45.5 90t-85.5 32q-52 0 -89 -32.5t-51 -89.5z" />
    <glyph glyph-name="Eogonek" unicode="&#x118;" horiz-adv-x="611" 
d="M563 -111l15 -92q-39 -13 -76 -13q-55 0 -87 25t-32 66q0 71 79 125h-389v700h490v-108h-371v-180h336v-105h-336v-199h380v-108h-16q-79 -43 -79 -90q0 -31 39 -31q17 0 47 10z" />
    <glyph glyph-name="eogonek" unicode="&#x119;" horiz-adv-x="580" 
d="M548 269v-28h-398q6 -71 47.5 -113.5t108.5 -42.5q46 0 79 21.5t46 61.5h115q-28 -116 -128 -161q-63 -38 -63 -80q0 -31 39 -31q17 0 47 10l15 -92q-39 -13 -76 -13q-55 0 -87 25t-32 66q0 47 41 93q-120 1 -195 79t-75 199q0 129 74.5 206t188.5 77q113 0 182 -74.5
t71 -202.5zM155 324h271q-11 58 -45.5 90t-85.5 32q-52 0 -89 -32.5t-51 -89.5z" />
    <glyph glyph-name="Ecaron" unicode="&#x11a;" horiz-adv-x="611" 
d="M362 757h-78l-181 163l70 66l149 -139l149 139l70 -67zM572 0h-499v700h490v-108h-371v-180h336v-105h-336v-199h380v-108z" />
    <glyph glyph-name="ecaron" unicode="&#x11b;" horiz-adv-x="580" 
d="M332 598h-78l-188 170l70 65l156 -145l155 145l71 -67zM305 -15q-121 0 -197 78t-76 200q0 129 74.5 206t188.5 77q113 0 182 -74.5t71 -202.5v-28h-398q6 -71 47.5 -113.5t108.5 -42.5q46 0 79 21.5t46 61.5h115q-20 -86 -84 -134.5t-157 -48.5zM155 324h271
q-11 58 -45.5 90t-85.5 32q-52 0 -89 -32.5t-51 -89.5z" />
    <glyph glyph-name="Gbreve" unicode="&#x11e;" horiz-adv-x="788" 
d="M392 765q-79 0 -128.5 44.5t-49.5 114.5v9h101v-9q0 -32 21.5 -52t55.5 -20q33 0 54 20t21 52v9h100v-9q0 -70 -49 -114.5t-126 -44.5zM375 -15q-148 0 -241 100.5t-93 266.5q0 161 95 262t256 101q136 0 225 -76t112 -209h-123q-17 83 -74 130t-140 47
q-105 0 -166.5 -68.5t-61.5 -186.5q0 -119 61 -188.5t162 -69.5q81 0 130.5 47.5t49.5 123.5h-211v101h239q68 0 103.5 -33t35.5 -97v-236h-106v214h-2q-11 -106 -77 -167.5t-174 -61.5z" />
    <glyph glyph-name="gbreve" unicode="&#x11f;" horiz-adv-x="621" 
d="M300 605q-79 0 -128.5 44.5t-49.5 114.5v9h101v-9q0 -32 21.5 -52t55.5 -20q33 0 54 20t21 52v9h100v-9q0 -70 -49 -114.5t-126 -44.5zM302 -216q-112 0 -181 50.5t-69 135.5h118q0 -38 37 -64t95 -26q69 0 106 37t37 99v75q-55 -83 -169 -83q-107 0 -175.5 75t-68.5 193
q0 119 68.5 194.5t174.5 75.5q61 0 109.5 -26.5t73.5 -71.5l10 82h94v-514q0 -106 -70 -169t-190 -63zM299 107q64 0 105 47.5t41 122.5t-40.5 122t-105.5 47t-105 -47t-40 -123q0 -75 40.5 -122t104.5 -47z" />
    <glyph glyph-name="Gdotaccent" unicode="&#x120;" horiz-adv-x="788" 
d="M392 753q-31 0 -52 21t-21 52t21 51.5t52 20.5t52 -20.5t21 -51.5t-21 -52t-52 -21zM375 -15q-148 0 -241 100.5t-93 266.5q0 161 95 262t256 101q136 0 225 -76t112 -209h-123q-17 83 -74 130t-140 47q-105 0 -166.5 -68.5t-61.5 -186.5q0 -119 61 -188.5t162 -69.5
q81 0 130.5 47.5t49.5 123.5h-211v101h239q68 0 103.5 -33t35.5 -97v-236h-106v214h-2q-11 -106 -77 -167.5t-174 -61.5z" />
    <glyph glyph-name="gdotaccent" unicode="&#x121;" horiz-adv-x="621" 
d="M300 592q-32 0 -52.5 21t-20.5 52q0 30 21 51t52 21t52 -21t21 -51q0 -31 -20.5 -52t-52.5 -21zM302 -216q-112 0 -181 50.5t-69 135.5h118q0 -38 37 -64t95 -26q69 0 106 37t37 99v75q-55 -83 -169 -83q-107 0 -175.5 75t-68.5 193q0 119 68.5 194.5t174.5 75.5
q61 0 109.5 -26.5t73.5 -71.5l10 82h94v-514q0 -106 -70 -169t-190 -63zM299 107q64 0 105 47.5t41 122.5t-40.5 122t-105.5 47t-105 -47t-40 -123q0 -75 40.5 -122t104.5 -47z" />
    <glyph glyph-name="uni0122" unicode="&#x122;" horiz-adv-x="788" 
d="M375 -15q-148 0 -241 100.5t-93 266.5q0 161 95 262t256 101q136 0 225 -76t112 -209h-123q-17 83 -74 130t-140 47q-105 0 -166.5 -68.5t-61.5 -186.5q0 -119 61 -188.5t162 -69.5q81 0 130.5 47.5t49.5 123.5h-211v101h239q68 0 103.5 -33t35.5 -97v-236h-106v214h-2
q-11 -106 -77 -167.5t-174 -61.5zM443 -59l-113 -340l-90 28l108 341z" />
    <glyph glyph-name="uni0123" unicode="&#x123;" horiz-adv-x="621" 
d="M248 589l112 340l91 -28l-108 -341zM302 -216q-112 0 -181 50.5t-69 135.5h118q0 -38 37 -64t95 -26q69 0 106 37t37 99v75q-55 -83 -169 -83q-107 0 -175.5 75t-68.5 193q0 119 68.5 194.5t174.5 75.5q61 0 109.5 -26.5t73.5 -71.5l10 82h94v-514q0 -106 -70 -169
t-190 -63zM299 107q64 0 105 47.5t41 122.5t-40.5 122t-105.5 47t-105 -47t-40 -123q0 -75 40.5 -122t104.5 -47z" />
    <glyph glyph-name="Hbar" unicode="&#x126;" horiz-adv-x="801" 
d="M209 0h-120v524h-112v86h112v90h120v-90h384v90h120v-90h111v-86h-111v-524h-120v304h-384v-304zM209 524v-112h384v112h-384z" />
    <glyph glyph-name="hbar" unicode="&#x127;" horiz-adv-x="625" 
d="M219 0h-119v608h-107v86h107v56h119v-56h214v-86h-214v-135q60 73 165 73q85 0 136.5 -53t51.5 -142v-351h-119v345q0 44 -27.5 71t-73.5 27q-60 0 -96.5 -34.5t-36.5 -87.5v-321z" />
    <glyph glyph-name="Imacron" unicode="&#x12a;" horiz-adv-x="265" 
d="M328 787h-390v93h390v-93zM193 0h-120v700h120v-700z" />
    <glyph glyph-name="imacron" unicode="&#x12b;" horiz-adv-x="239" 
d="M315 620h-390v93h390v-93zM178 0h-118l1 530h118z" />
    <glyph glyph-name="Iogonek" unicode="&#x12e;" horiz-adv-x="265" 
d="M188 -111l15 -92q-39 -13 -76 -13q-55 0 -87 25t-32 66q0 71 79 125h-14v700h120v-700h-12q-79 -43 -79 -90q0 -31 39 -31q17 0 47 10z" />
    <glyph glyph-name="iogonek" unicode="&#x12f;" horiz-adv-x="238" 
d="M119 601q-32 0 -54 22.5t-22 54.5t22 54t54 22q33 0 54.5 -22t21.5 -54q0 -33 -21.5 -55t-54.5 -22zM127 -121q17 0 47 10l15 -92q-39 -13 -76 -13q-55 0 -87 25t-32 66q0 71 79 125h-13v530h118v-530h-11q-79 -43 -79 -90q0 -31 39 -31z" />
    <glyph glyph-name="Idotaccent" unicode="&#x130;" horiz-adv-x="265" 
d="M133 753q-31 0 -52 21t-21 52t21 51.5t52 20.5t52 -20.5t21 -51.5t-21 -52t-52 -21zM193 0h-120v700h120v-700z" />
    <glyph glyph-name="dotlessi" unicode="&#x131;" horiz-adv-x="239" 
d="M178 0h-118l1 530h118z" />
    <glyph glyph-name="uni0136" unicode="&#x136;" horiz-adv-x="696" 
d="M193 0h-120v700h120v-343l318 343h152l-274 -287l294 -413h-147l-230 326l-113 -118v-208zM398 -59l-113 -340l-90 28l108 341z" />
    <glyph glyph-name="uni0137" unicode="&#x137;" horiz-adv-x="572" 
d="M180 0h-118v750h118v-450l226 230h144l-192 -191l218 -339h-137l-163 257l-96 -96v-161zM347 -59l-113 -340l-90 28l108 341z" />
    <glyph glyph-name="Lacute" unicode="&#x139;" horiz-adv-x="583" 
d="M391 960l-275 -226l-64 71l274 226zM550 0h-477v700h120v-592h357v-108z" />
    <glyph glyph-name="lacute" unicode="&#x13a;" horiz-adv-x="242" 
d="M380 1010l-275 -226l-64 71l274 226zM180 0h-118v750h118v-750z" />
    <glyph glyph-name="uni013B" unicode="&#x13b;" horiz-adv-x="583" 
d="M550 0h-477v700h120v-592h357v-108zM372 -59l-113 -340l-90 28l108 341z" />
    <glyph glyph-name="uni013C" unicode="&#x13c;" horiz-adv-x="242" 
d="M180 0h-118v750h118v-750zM174 -59l-113 -340l-91 28l109 341z" />
    <glyph glyph-name="Lcaron" unicode="&#x13d;" horiz-adv-x="583" 
d="M389 424h-97v326h97v-326zM550 0h-477v700h120v-592h357v-108z" />
    <glyph glyph-name="lcaron" unicode="&#x13e;" horiz-adv-x="348" 
d="M180 0h-118v750h118v-750zM350 424h-98v326h98v-326z" />
    <glyph glyph-name="Lslash" unicode="&#x141;" horiz-adv-x="640" 
d="M607 0h-478v310l-101 -61l-39 72l140 86v293h120v-219l130 80l40 -74l-170 -103v-276h358v-108z" />
    <glyph glyph-name="lslash" unicode="&#x142;" horiz-adv-x="407" 
d="M263 0h-118v320l-117 -71l-40 72l157 96v333h118v-261l116 71l40 -73l-156 -95v-392z" />
    <glyph glyph-name="Nacute" unicode="&#x143;" horiz-adv-x="743" 
d="M630 960l-275 -226l-64 71l274 226zM193 0h-120v700h130l347 -527v527h120v-700h-130l-347 527v-527z" />
    <glyph glyph-name="nacute" unicode="&#x144;" horiz-adv-x="584" 
d="M569 807l-282 -230l-64 72l281 229zM178 0h-118v530h95l10 -78q25 42 73 68t106 26q85 0 136 -53t51 -142v-351h-118v345q0 45 -28 71.5t-77 26.5q-57 0 -93 -34.5t-37 -87.5v-321z" />
    <glyph glyph-name="uni0145" unicode="&#x145;" horiz-adv-x="743" 
d="M193 0h-120v700h130l347 -527v527h120v-700h-130l-347 527v-527zM425 -59l-113 -340l-90 28l108 341z" />
    <glyph glyph-name="uni0146" unicode="&#x146;" horiz-adv-x="584" 
d="M178 0h-118v530h95l10 -78q25 42 73 68t106 26q85 0 136 -53t51 -142v-351h-118v345q0 45 -28 71.5t-77 26.5q-57 0 -93 -34.5t-37 -87.5v-321zM348 -59l-113 -340l-90 28l108 341z" />
    <glyph glyph-name="Ncaron" unicode="&#x147;" horiz-adv-x="743" 
d="M411 757h-78l-181 163l70 66l149 -139l149 139l70 -67zM193 0h-120v700h130l347 -527v527h120v-700h-130l-347 527v-527z" />
    <glyph glyph-name="ncaron" unicode="&#x148;" horiz-adv-x="584" 
d="M344 598h-78l-188 170l70 65l156 -145l155 145l71 -67zM178 0h-118v530h95l10 -78q25 42 73 68t106 26q85 0 136 -53t51 -142v-351h-118v345q0 45 -28 71.5t-77 26.5q-57 0 -93 -34.5t-37 -87.5v-321z" />
    <glyph glyph-name="Eng" unicode="&#x14a;" horiz-adv-x="743" 
d="M493 -200h-83v98h75q67 0 67 70v32h-12l-347 527v-527h-120v700h130l347 -527v527h120v-739q0 -79 -45.5 -120t-131.5 -41z" />
    <glyph glyph-name="eng" unicode="&#x14b;" horiz-adv-x="584" 
d="M354 -200h-83v98h75q67 0 67 70v377q0 45 -28 71.5t-77 26.5q-57 0 -93 -34.5t-37 -87.5v-321h-118v530h95l10 -78q25 42 73 68t106 26q85 0 136 -53t51 -142v-390q0 -79 -45.5 -120t-131.5 -41z" />
    <glyph glyph-name="Omacron" unicode="&#x14c;" horiz-adv-x="781" 
d="M585 787h-390v93h390v-93zM390 -15q-156 0 -252.5 100.5t-96.5 266.5q0 161 95 262t254 101q157 0 254 -99.5t97 -263.5q0 -163 -95.5 -265t-255.5 -102zM390 94q105 0 167 70t62 188q0 117 -62 186t-167 69q-104 0 -165.5 -69t-61.5 -186q0 -118 61.5 -188t165.5 -70z
" />
    <glyph glyph-name="omacron" unicode="&#x14d;" horiz-adv-x="607" 
d="M499 620h-390v93h390v-93zM304 -15q-126 0 -199 79.5t-73 205.5q0 127 76.5 201.5t195.5 74.5q125 0 198 -78t73 -198q0 -132 -75 -208.5t-196 -76.5zM304 86q70 0 110.5 51.5t40.5 132.5q0 79 -41 127t-110 48t-110.5 -48t-41.5 -127q0 -85 42.5 -134.5t109.5 -49.5z
" />
    <glyph glyph-name="Ohungarumlaut" unicode="&#x150;" horiz-adv-x="781" 
d="M562 1029l-220 -278l-86 48l223 277zM712 1004l-219 -280l-86 48l222 278zM390 -15q-156 0 -252.5 100.5t-96.5 266.5q0 161 95 262t254 101q157 0 254 -99.5t97 -263.5q0 -163 -95.5 -265t-255.5 -102zM390 94q105 0 167 70t62 188q0 117 -62 186t-167 69
q-104 0 -165.5 -69t-61.5 -186q0 -118 61.5 -188t165.5 -70z" />
    <glyph glyph-name="ohungarumlaut" unicode="&#x151;" horiz-adv-x="607" 
d="M476 871l-220 -278l-86 48l223 277zM626 846l-219 -280l-86 48l222 278zM304 -15q-126 0 -199 79.5t-73 205.5q0 127 76.5 201.5t195.5 74.5q125 0 198 -78t73 -198q0 -132 -75 -208.5t-196 -76.5zM304 86q70 0 110.5 51.5t40.5 132.5q0 79 -41 127t-110 48t-110.5 -48
t-41.5 -127q0 -85 42.5 -134.5t109.5 -49.5z" />
    <glyph glyph-name="OE" unicode="&#x152;" horiz-adv-x="1161" 
d="M390 -15q-156 0 -252.5 100.5t-96.5 266.5q0 161 95 262t254 101q144 0 233 -103v88h490v-108h-371v-180h336v-105h-336v-199h380v-108h-499v91q-87 -106 -233 -106zM390 94q105 0 167 70t62 188q0 117 -62 186t-167 69q-104 0 -165.5 -69t-61.5 -186q0 -118 61.5 -188
t165.5 -70z" />
    <glyph glyph-name="oe" unicode="&#x153;" horiz-adv-x="1044" 
d="M304 -15q-126 0 -199 79.5t-73 205.5q0 127 76.5 201.5t195.5 74.5q79 0 138.5 -33t93.5 -91q34 59 92.5 91.5t129.5 32.5q113 0 182.5 -74.5t71.5 -202.5v-28h-399q6 -71 48 -113.5t108 -42.5q96 0 126 83h115q-20 -86 -84 -134.5t-158 -48.5q-77 0 -137 33t-95 92
q-34 -60 -94.5 -92.5t-137.5 -32.5zM619 324h271q-11 58 -45.5 90t-86.5 32t-89 -32.5t-50 -89.5zM304 86q70 0 110.5 51.5t40.5 132.5q0 79 -41 127t-110 48t-110.5 -48t-41.5 -127q0 -85 42.5 -134.5t109.5 -49.5z" />
    <glyph glyph-name="Racute" unicode="&#x154;" horiz-adv-x="695" 
d="M579 960l-275 -226l-64 71l274 226zM193 0h-120v700h342q100 0 162.5 -55t62.5 -143q0 -64 -42 -113.5t-112 -67.5q70 -14 96 -80l90 -241h-128l-81 221q-15 43 -65 43h-205v-264zM193 592v-222h216q53 0 82.5 33t29.5 81t-30.5 78t-81.5 30h-216z" />
    <glyph glyph-name="racute" unicode="&#x155;" horiz-adv-x="391" 
d="M492 807l-282 -230l-64 72l281 229zM178 0h-118v530h95l14 -104q52 110 184 110h20v-115h-20q-83 0 -129 -42t-46 -117v-262z" />
    <glyph glyph-name="uni0156" unicode="&#x156;" horiz-adv-x="695" 
d="M193 0h-120v700h342q100 0 162.5 -55t62.5 -143q0 -64 -42 -113.5t-112 -67.5q70 -14 96 -80l90 -241h-128l-81 221q-15 43 -65 43h-205v-264zM193 592v-222h216q53 0 82.5 33t29.5 81t-30.5 78t-81.5 30h-216zM397 -59l-113 -340l-90 28l108 341z" />
    <glyph glyph-name="uni0157" unicode="&#x157;" horiz-adv-x="391" 
d="M178 0h-118v530h95l14 -104q52 110 184 110h20v-115h-20q-83 0 -129 -42t-46 -117v-262zM171 -59l-113 -340l-91 28l109 341z" />
    <glyph glyph-name="Rcaron" unicode="&#x158;" horiz-adv-x="695" 
d="M360 757h-78l-181 163l70 66l149 -139l149 139l70 -67zM193 0h-120v700h342q100 0 162.5 -55t62.5 -143q0 -64 -42 -113.5t-112 -67.5q70 -14 96 -80l90 -241h-128l-81 221q-15 43 -65 43h-205v-264zM193 592v-222h216q53 0 82.5 33t29.5 81t-30.5 78t-81.5 30h-216z" />
    <glyph glyph-name="rcaron" unicode="&#x159;" horiz-adv-x="391" 
d="M266 598h-78l-188 170l70 65l156 -145l155 145l71 -67zM178 0h-118v530h95l14 -104q52 110 184 110h20v-115h-20q-83 0 -129 -42t-46 -117v-262z" />
    <glyph glyph-name="Sacute" unicode="&#x15a;" horiz-adv-x="654" 
d="M583 960l-275 -226l-64 71l274 226zM359 -15q-137 0 -223 63t-93 168h123q8 -58 59 -91t134 -33q68 0 103.5 24.5t35.5 69.5q0 38 -27 59t-84 39l-114 34q-27 8 -38 11.5t-38.5 14.5t-41.5 19.5t-34.5 24.5t-31 33t-18.5 42t-8 53q0 88 68 143.5t182 55.5q127 0 203 -64
t83 -175h-122q-4 61 -47.5 96.5t-120.5 35.5q-58 0 -92.5 -23t-34.5 -63q0 -27 17 -45.5t39.5 -27.5t58.5 -21q9 -3 14 -4l106 -33q38 -12 60 -20t53 -25t48 -36t29.5 -49.5t12.5 -68.5q0 -95 -70.5 -151t-190.5 -56z" />
    <glyph glyph-name="sacute" unicode="&#x15b;" horiz-adv-x="500" 
d="M516 807l-282 -230l-64 72l281 229zM271 -15q-108 0 -170.5 48.5t-67.5 135.5h114q3 -42 35.5 -64.5t82.5 -22.5q92 0 92 64q0 26 -16 37.5t-55 23.5l-9 3l-70 23q-40 13 -64 23.5t-50 28.5t-38 44t-12 61q0 72 52.5 114t146.5 42q93 0 152 -48t69 -137h-112
q-9 88 -110 88q-39 0 -60.5 -15.5t-21.5 -42.5q0 -7 1.5 -12.5t5 -10.5t6.5 -9t9.5 -8t10.5 -6t12.5 -5.5t12.5 -5t13.5 -4.5t12.5 -4l64 -21q89 -30 128.5 -63t39.5 -99q0 -74 -53.5 -116t-150.5 -42z" />
    <glyph glyph-name="Scedilla" unicode="&#x15e;" horiz-adv-x="654" 
d="M620 192q0 -89 -62.5 -144t-170.5 -62l-74 -212l-92 18l69 198q-109 15 -175 75t-72 151h123q8 -58 59 -91t134 -33q68 0 103.5 24.5t35.5 69.5q0 38 -27 59t-84 39l-114 34q-27 8 -38 11.5t-38.5 14.5t-41.5 19.5t-34.5 24.5t-31 33t-18.5 42t-8 53q0 88 68 143.5
t182 55.5q127 0 203 -64t83 -175h-122q-4 61 -47.5 96.5t-120.5 35.5q-58 0 -92.5 -23t-34.5 -63q0 -27 17 -45.5t39.5 -27.5t58.5 -21q9 -3 14 -4l106 -33q38 -12 60 -20t53 -25t48 -36t29.5 -49.5t12.5 -68.5z" />
    <glyph glyph-name="scedilla" unicode="&#x15f;" horiz-adv-x="500" 
d="M475 143q0 -65 -40.5 -105t-116.5 -50l-75 -214l-92 18l68 196q-85 11 -133.5 58t-52.5 123h114q3 -42 35.5 -64.5t82.5 -22.5q92 0 92 64q0 26 -16 37.5t-55 23.5l-9 3l-70 23q-40 13 -64 23.5t-50 28.5t-38 44t-12 61q0 72 52.5 114t146.5 42q93 0 152 -48t69 -137
h-112q-9 88 -110 88q-39 0 -60.5 -15.5t-21.5 -42.5q0 -7 1.5 -12.5t5 -10.5t6.5 -9t9.5 -8t10.5 -6t12.5 -5.5t12.5 -5t13.5 -4.5t12.5 -4l64 -21q89 -30 128.5 -63t39.5 -99z" />
    <glyph glyph-name="Scaron" unicode="&#x160;" horiz-adv-x="654" 
d="M364 757h-78l-181 163l70 66l149 -139l149 139l70 -67zM359 -15q-137 0 -223 63t-93 168h123q8 -58 59 -91t134 -33q68 0 103.5 24.5t35.5 69.5q0 38 -27 59t-84 39l-114 34q-27 8 -38 11.5t-38.5 14.5t-41.5 19.5t-34.5 24.5t-31 33t-18.5 42t-8 53q0 88 68 143.5
t182 55.5q127 0 203 -64t83 -175h-122q-4 61 -47.5 96.5t-120.5 35.5q-58 0 -92.5 -23t-34.5 -63q0 -27 17 -45.5t39.5 -27.5t58.5 -21q9 -3 14 -4l106 -33q38 -12 60 -20t53 -25t48 -36t29.5 -49.5t12.5 -68.5q0 -95 -70.5 -151t-190.5 -56z" />
    <glyph glyph-name="scaron" unicode="&#x161;" horiz-adv-x="500" 
d="M291 598h-78l-188 170l70 65l156 -145l155 145l71 -67zM271 -15q-108 0 -170.5 48.5t-67.5 135.5h114q3 -42 35.5 -64.5t82.5 -22.5q92 0 92 64q0 26 -16 37.5t-55 23.5l-9 3l-70 23q-40 13 -64 23.5t-50 28.5t-38 44t-12 61q0 72 52.5 114t146.5 42q93 0 152 -48
t69 -137h-112q-9 88 -110 88q-39 0 -60.5 -15.5t-21.5 -42.5q0 -7 1.5 -12.5t5 -10.5t6.5 -9t9.5 -8t10.5 -6t12.5 -5.5t12.5 -5t13.5 -4.5t12.5 -4l64 -21q89 -30 128.5 -63t39.5 -99q0 -74 -53.5 -116t-150.5 -42z" />
    <glyph glyph-name="uni0162" unicode="&#x162;" horiz-adv-x="645" 
d="M29 592v108h587v-108h-233v-592h-11l-79 -226l-92 18l72 208h-10v592h-234z" />
    <glyph glyph-name="uni0163" unicode="&#x163;" horiz-adv-x="400" 
d="M374 530v-100h-137v-260q0 -70 67 -70h60v-100h-54l-79 -226l-92 18l77 220q-97 33 -97 150v268h-93v100h93v181h118v-181h137z" />
    <glyph glyph-name="Tcaron" unicode="&#x164;" horiz-adv-x="645" 
d="M362 757h-78l-181 163l70 66l149 -139l149 139l70 -67zM383 0h-120v592h-234v108h587v-108h-233v-592z" />
    <glyph glyph-name="tcaron" unicode="&#x165;" horiz-adv-x="403" 
d="M364 570h-93v245h93v-245zM364 0h-68q-86 0 -131.5 41.5t-45.5 120.5v268h-93v100h93v181h118v-181h137v-100h-137v-260q0 -70 67 -70h60v-100z" />
    <glyph glyph-name="Tbar" unicode="&#x166;" horiz-adv-x="645" 
d="M383 0h-120v331h-189v85h189v176h-234v108h587v-108h-233v-176h188v-85h-188v-331z" />
    <glyph glyph-name="tbar" unicode="&#x167;" horiz-adv-x="400" 
d="M364 0h-68q-86 0 -131.5 41.5t-45.5 120.5v84h-93v85h93v99h-93v100h93v181h118v-181h137v-100h-137v-99h137v-85h-137v-76q0 -70 67 -70h60v-100z" />
    <glyph glyph-name="Umacron" unicode="&#x16a;" horiz-adv-x="717" 
d="M554 787h-390v93h390v-93zM359 -15q-133 0 -212.5 70t-79.5 178v467h120v-464q0 -66 47.5 -103.5t123.5 -37.5t124 37.5t48 103.5v464h120v-467q0 -108 -79 -178t-212 -70z" />
    <glyph glyph-name="umacron" unicode="&#x16b;" horiz-adv-x="582" 
d="M482 620h-390v93h390v-93zM250 -15q-93 0 -146 53t-53 141v351h118v-346q0 -44 28.5 -69.5t76.5 -25.5q59 0 94 34t36 87v320h118v-530h-95l-9 77q-23 -43 -68 -67.5t-100 -24.5z" />
    <glyph glyph-name="Ubreve" unicode="&#x16c;" horiz-adv-x="717" 
d="M358 765q-79 0 -128.5 44.5t-49.5 114.5v9h101v-9q0 -32 21.5 -52t55.5 -20q33 0 54 20t21 52v9h100v-9q0 -70 -49 -114.5t-126 -44.5zM359 -15q-133 0 -212.5 70t-79.5 178v467h120v-464q0 -66 47.5 -103.5t123.5 -37.5t124 37.5t48 103.5v464h120v-467q0 -108 -79 -178
t-212 -70z" />
    <glyph glyph-name="ubreve" unicode="&#x16d;" horiz-adv-x="582" 
d="M287 605q-79 0 -128.5 44.5t-49.5 114.5v9h101v-9q0 -32 21.5 -52t55.5 -20q33 0 54 20t21 52v9h100v-9q0 -70 -49 -114.5t-126 -44.5zM250 -15q-93 0 -146 53t-53 141v351h118v-346q0 -44 28.5 -69.5t76.5 -25.5q59 0 94 34t36 87v320h118v-530h-95l-9 77
q-23 -43 -68 -67.5t-100 -24.5z" />
    <glyph glyph-name="Uring" unicode="&#x16e;" horiz-adv-x="717" 
d="M359 737q-49 0 -82.5 31.5t-33.5 78.5t33 78.5t83 31.5t83 -31.5t33 -78.5t-33.5 -78.5t-82.5 -31.5zM359 798q22 0 35.5 14.5t13.5 34.5q0 21 -13 35t-36 14t-36 -14t-13 -35q0 -20 13.5 -34.5t35.5 -14.5zM359 -15q-133 0 -212.5 70t-79.5 178v467h120v-464
q0 -66 47.5 -103.5t123.5 -37.5t124 37.5t48 103.5v464h120v-467q0 -108 -79 -178t-212 -70z" />
    <glyph glyph-name="uring" unicode="&#x16f;" horiz-adv-x="582" 
d="M287 575q-49 0 -82.5 31.5t-33.5 78.5t33 78.5t83 31.5t83 -31.5t33 -78.5t-33.5 -78.5t-82.5 -31.5zM287 639q21 0 34 13.5t13 32.5t-13 33t-34 14q-22 0 -34.5 -13.5t-12.5 -33.5t12.5 -33t34.5 -13zM250 -15q-93 0 -146 53t-53 141v351h118v-346q0 -44 28.5 -69.5
t76.5 -25.5q59 0 94 34t36 87v320h118v-530h-95l-9 77q-23 -43 -68 -67.5t-100 -24.5z" />
    <glyph glyph-name="Uhungarumlaut" unicode="&#x170;" horiz-adv-x="717" 
d="M530 1029l-220 -278l-86 48l223 277zM680 1004l-219 -280l-86 48l222 278zM359 -15q-133 0 -212.5 70t-79.5 178v467h120v-464q0 -66 47.5 -103.5t123.5 -37.5t124 37.5t48 103.5v464h120v-467q0 -108 -79 -178t-212 -70z" />
    <glyph glyph-name="uhungarumlaut" unicode="&#x171;" horiz-adv-x="582" 
d="M459 871l-220 -278l-86 48l223 277zM609 846l-219 -280l-86 48l222 278zM250 -15q-93 0 -146 53t-53 141v351h118v-346q0 -44 28.5 -69.5t76.5 -25.5q59 0 94 34t36 87v320h118v-530h-95l-9 77q-23 -43 -68 -67.5t-100 -24.5z" />
    <glyph glyph-name="Uogonek" unicode="&#x172;" horiz-adv-x="717" 
d="M530 236v464h120v-467q0 -72 -37.5 -130t-105.5 -89q-69 -40 -69 -84q0 -31 39 -31q17 0 47 10l15 -92q-39 -13 -76 -13q-55 0 -87 25t-32 66q0 47 39 91q-8 -1 -24 -1q-133 0 -212.5 70t-79.5 178v467h120v-464q0 -66 47.5 -103.5t123.5 -37.5t124 37.5t48 103.5z" />
    <glyph glyph-name="uogonek" unicode="&#x173;" horiz-adv-x="582" 
d="M527 -111l15 -92q-39 -13 -76 -13q-55 0 -87 25t-32 66q0 33 21 67t59 59l-9 76q-23 -43 -68 -67.5t-100 -24.5q-93 0 -146 53t-53 141v351h118v-346q0 -44 28.5 -69.5t76.5 -25.5q59 0 94 34t36 87v320h118v-530h-2q-79 -43 -79 -90q0 -31 39 -31q17 0 47 10z" />
    <glyph glyph-name="Wcircumflex" unicode="&#x174;" horiz-adv-x="967" 
d="M483 878l-149 -139l-70 66l181 164h78l179 -162l-70 -68zM342 0h-131l-198 700h125l146 -525l143 525h112l144 -526l146 526h125l-198 -700h-131l-142 523z" />
    <glyph glyph-name="wcircumflex" unicode="&#x175;" horiz-adv-x="789" 
d="M395 722l-156 -145l-70 66l188 170h78l186 -168l-71 -68zM294 0h-124l-157 530h121l107 -384l105 384h98l106 -380l105 380h121l-157 -530h-122l-102 362z" />
    <glyph glyph-name="Ycircumflex" unicode="&#x176;" horiz-adv-x="672" 
d="M336 892l-156 -145l-70 66l188 170h78l186 -168l-71 -68zM395 0h-120v299l-265 401h139l187 -287l187 287h139l-267 -401v-299z" />
    <glyph glyph-name="ycircumflex" unicode="&#x177;" horiz-adv-x="577" 
d="M291 722l-156 -145l-70 66l188 170h78l186 -168l-71 -68zM146 -200h-96v100h96q62 0 78 44l21 56h-22l-210 530h127l152 -402l149 402h123l-231 -621q-41 -109 -187 -109z" />
    <glyph glyph-name="Ydieresis" unicode="&#x178;" horiz-adv-x="672" 
d="M231 753q-31 0 -52 21.5t-21 51.5t21 51t52 21q30 0 51 -21t21 -51t-21 -51.5t-51 -21.5zM442 753q-30 0 -51.5 21.5t-21.5 51.5t21.5 51t51.5 21t51 -21t21 -51t-21 -51.5t-51 -21.5zM395 0h-120v299l-265 401h139l187 -287l187 287h139l-267 -401v-299z" />
    <glyph glyph-name="Zacute" unicode="&#x179;" horiz-adv-x="608" 
d="M557 960l-275 -226l-64 71l274 226zM568 0h-528v111l377 481h-359v108h500v-111l-377 -481h387v-108z" />
    <glyph glyph-name="zacute" unicode="&#x17a;" horiz-adv-x="499" 
d="M513 807l-282 -230l-64 72l281 229zM460 0h-420v108l284 318h-275v104h407v-108l-285 -317h289v-105z" />
    <glyph glyph-name="Zdotaccent" unicode="&#x17b;" horiz-adv-x="608" 
d="M299 753q-31 0 -52 21t-21 52t21 51.5t52 20.5t52 -20.5t21 -51.5t-21 -52t-52 -21zM568 0h-528v111l377 481h-359v108h500v-111l-377 -481h387v-108z" />
    <glyph glyph-name="zdotaccent" unicode="&#x17c;" horiz-adv-x="499" 
d="M248 592q-32 0 -52.5 21t-20.5 52q0 30 21 51t52 21t52 -21t21 -51q0 -31 -20.5 -52t-52.5 -21zM460 0h-420v108l284 318h-275v104h407v-108l-285 -317h289v-105z" />
    <glyph glyph-name="Zcaron" unicode="&#x17d;" horiz-adv-x="608" 
d="M338 757h-78l-181 163l70 66l149 -139l149 139l70 -67zM568 0h-528v111l377 481h-359v108h500v-111l-377 -481h387v-108z" />
    <glyph glyph-name="zcaron" unicode="&#x17e;" horiz-adv-x="499" 
d="M287 598h-78l-188 170l70 65l156 -145l155 145l71 -67zM460 0h-420v108l284 318h-275v104h407v-108l-285 -317h289v-105z" />
    <glyph glyph-name="uni01CD" unicode="&#x1cd;" horiz-adv-x="729" 
d="M404 757h-78l-181 163l70 66l149 -139l149 139l70 -67zM142 0h-124l286 700h120l287 -700h-124l-71 173h-303zM365 545l-109 -266h217z" />
    <glyph glyph-name="uni01CE" unicode="&#x1ce;" horiz-adv-x="589" 
d="M324 598h-78l-188 170l70 65l156 -145l155 145l71 -67zM235 -11q-92 0 -147 42t-54 116q0 36 14.5 63.5t35.5 44t53.5 28t60 17t63.5 9.5q6 1 18 2q34 4 50 6.5t36 8t28 14.5t8 23q-1 39 -30 62.5t-79 23.5q-52 0 -87 -25.5t-40 -67.5h-119q8 84 77 137t171 53
q105 0 163.5 -52t58.5 -139v-240q0 -23 26 -23h29v-92h-56q-82 0 -96 62q-3 9 -5 18q-49 -91 -179 -91zM259 82q62 0 102 32t40 85v74q-9 -15 -31 -24t-41 -13t-55 -8q-30 -4 -47.5 -7.5t-37 -11t-28 -21t-8.5 -33.5q0 -35 27.5 -54t78.5 -19z" />
    <glyph glyph-name="uni01CF" unicode="&#x1cf;" horiz-adv-x="265" 
d="M172 757h-78l-181 163l70 66l149 -139l149 139l70 -67zM193 0h-120v700h120v-700z" />
    <glyph glyph-name="uni01D0" unicode="&#x1d0;" horiz-adv-x="239" 
d="M160 598h-78l-188 170l70 65l156 -145l155 145l71 -67zM178 0h-118l1 530h118z" />
    <glyph glyph-name="uni01D1" unicode="&#x1d1;" horiz-adv-x="781" 
d="M429 757h-78l-181 163l70 66l149 -139l149 139l70 -67zM390 -15q-156 0 -252.5 100.5t-96.5 266.5q0 161 95 262t254 101q157 0 254 -99.5t97 -263.5q0 -163 -95.5 -265t-255.5 -102zM390 94q105 0 167 70t62 188q0 117 -62 186t-167 69q-104 0 -165.5 -69t-61.5 -186
q0 -118 61.5 -188t165.5 -70z" />
    <glyph glyph-name="uni01D2" unicode="&#x1d2;" horiz-adv-x="607" 
d="M344 598h-78l-188 170l70 65l156 -145l155 145l71 -67zM304 -15q-126 0 -199 79.5t-73 205.5q0 127 76.5 201.5t195.5 74.5q125 0 198 -78t73 -198q0 -132 -75 -208.5t-196 -76.5zM304 86q70 0 110.5 51.5t40.5 132.5q0 79 -41 127t-110 48t-110.5 -48t-41.5 -127
q0 -85 42.5 -134.5t109.5 -49.5z" />
    <glyph glyph-name="uni01D3" unicode="&#x1d3;" horiz-adv-x="717" 
d="M398 757h-78l-181 163l70 66l149 -139l149 139l70 -67zM359 -15q-133 0 -212.5 70t-79.5 178v467h120v-464q0 -66 47.5 -103.5t123.5 -37.5t124 37.5t48 103.5v464h120v-467q0 -108 -79 -178t-212 -70z" />
    <glyph glyph-name="uni01D4" unicode="&#x1d4;" horiz-adv-x="582" 
d="M327 598h-78l-188 170l70 65l156 -145l155 145l71 -67zM250 -15q-93 0 -146 53t-53 141v351h118v-346q0 -44 28.5 -69.5t76.5 -25.5q59 0 94 34t36 87v320h118v-530h-95l-9 77q-23 -43 -68 -67.5t-100 -24.5z" />
    <glyph glyph-name="uni01D5" unicode="&#x1d5;" horiz-adv-x="717" 
d="M554 976h-390v93h390v-93zM253 753q-31 0 -52 21.5t-21 51.5t21 51t52 21q30 0 51 -21t21 -51t-21 -51.5t-51 -21.5zM464 753q-30 0 -51.5 21.5t-21.5 51.5t21.5 51t51.5 21t51 -21t21 -51t-21 -51.5t-51 -21.5zM359 -15q-133 0 -212.5 70t-79.5 178v467h120v-464
q0 -66 47.5 -103.5t123.5 -37.5t124 37.5t48 103.5v464h120v-467q0 -108 -79 -178t-212 -70z" />
    <glyph glyph-name="uni01D6" unicode="&#x1d6;" horiz-adv-x="582" 
d="M482 812h-390v93h390v-93zM182 592q-31 0 -52 21t-21 52q0 30 21 51t52 21q30 0 51 -21t21 -51q0 -31 -21 -52t-51 -21zM393 592q-30 0 -51.5 21t-21.5 52q0 30 21.5 51t51.5 21t51 -21t21 -51q0 -31 -21 -52t-51 -21zM250 -15q-93 0 -146 53t-53 141v351h118v-346
q0 -44 28.5 -69.5t76.5 -25.5q59 0 94 34t36 87v320h118v-530h-95l-9 77q-23 -43 -68 -67.5t-100 -24.5z" />
    <glyph glyph-name="uni01D7" unicode="&#x1d7;" horiz-adv-x="717" 
d="M617 1149l-275 -226l-64 71l274 226zM253 753q-31 0 -52 21.5t-21 51.5t21 51t52 21q30 0 51 -21t21 -51t-21 -51.5t-51 -21.5zM464 753q-30 0 -51.5 21.5t-21.5 51.5t21.5 51t51.5 21t51 -21t21 -51t-21 -51.5t-51 -21.5zM359 -15q-133 0 -212.5 70t-79.5 178v467h120
v-464q0 -66 47.5 -103.5t123.5 -37.5t124 37.5t48 103.5v464h120v-467q0 -108 -79 -178t-212 -70z" />
    <glyph glyph-name="uni01D8" unicode="&#x1d8;" horiz-adv-x="582" 
d="M552 999l-282 -230l-64 72l281 229zM182 592q-31 0 -52 21t-21 52q0 30 21 51t52 21q30 0 51 -21t21 -51q0 -31 -21 -52t-51 -21zM393 592q-30 0 -51.5 21t-21.5 52q0 30 21.5 51t51.5 21t51 -21t21 -51q0 -31 -21 -52t-51 -21zM250 -15q-93 0 -146 53t-53 141v351h118
v-346q0 -44 28.5 -69.5t76.5 -25.5q59 0 94 34t36 87v320h118v-530h-95l-9 77q-23 -43 -68 -67.5t-100 -24.5z" />
    <glyph glyph-name="uni01D9" unicode="&#x1d9;" horiz-adv-x="717" 
d="M398 946h-78l-181 163l70 66l149 -139l149 139l70 -67zM253 753q-31 0 -52 21.5t-21 51.5t21 51t52 21q30 0 51 -21t21 -51t-21 -51.5t-51 -21.5zM464 753q-30 0 -51.5 21.5t-21.5 51.5t21.5 51t51.5 21t51 -21t21 -51t-21 -51.5t-51 -21.5zM359 -15q-133 0 -212.5 70
t-79.5 178v467h120v-464q0 -66 47.5 -103.5t123.5 -37.5t124 37.5t48 103.5v464h120v-467q0 -108 -79 -178t-212 -70z" />
    <glyph glyph-name="uni01DA" unicode="&#x1da;" horiz-adv-x="582" 
d="M327 790h-78l-188 170l70 65l156 -145l155 145l71 -67zM182 592q-31 0 -52 21t-21 52q0 30 21 51t52 21q30 0 51 -21t21 -51q0 -31 -21 -52t-51 -21zM393 592q-30 0 -51.5 21t-21.5 52q0 30 21.5 51t51.5 21t51 -21t21 -51q0 -31 -21 -52t-51 -21zM250 -15q-93 0 -146 53
t-53 141v351h118v-346q0 -44 28.5 -69.5t76.5 -25.5q59 0 94 34t36 87v320h118v-530h-95l-9 77q-23 -43 -68 -67.5t-100 -24.5z" />
    <glyph glyph-name="uni01DB" unicode="&#x1db;" horiz-adv-x="717" 
d="M440 994l-65 -71l-274 226l64 71zM253 753q-31 0 -52 21.5t-21 51.5t21 51t52 21q30 0 51 -21t21 -51t-21 -51.5t-51 -21.5zM464 753q-30 0 -51.5 21.5t-21.5 51.5t21.5 51t51.5 21t51 -21t21 -51t-21 -51.5t-51 -21.5zM359 -15q-133 0 -212.5 70t-79.5 178v467h120v-464
q0 -66 47.5 -103.5t123.5 -37.5t124 37.5t48 103.5v464h120v-467q0 -108 -79 -178t-212 -70z" />
    <glyph glyph-name="uni01DC" unicode="&#x1dc;" horiz-adv-x="582" 
d="M368 841l-65 -72l-281 230l64 71zM182 592q-31 0 -52 21t-21 52q0 30 21 51t52 21q30 0 51 -21t21 -51q0 -31 -21 -52t-51 -21zM393 592q-30 0 -51.5 21t-21.5 52q0 30 21.5 51t51.5 21t51 -21t21 -51q0 -31 -21 -52t-51 -21zM250 -15q-93 0 -146 53t-53 141v351h118
v-346q0 -44 28.5 -69.5t76.5 -25.5q59 0 94 34t36 87v320h118v-530h-95l-9 77q-23 -43 -68 -67.5t-100 -24.5z" />
    <glyph glyph-name="uni0218" unicode="&#x218;" horiz-adv-x="654" 
d="M359 -15q-137 0 -223 63t-93 168h123q8 -58 59 -91t134 -33q68 0 103.5 24.5t35.5 69.5q0 38 -27 59t-84 39l-114 34q-27 8 -38 11.5t-38.5 14.5t-41.5 19.5t-34.5 24.5t-31 33t-18.5 42t-8 53q0 88 68 143.5t182 55.5q127 0 203 -64t83 -175h-122q-4 61 -47.5 96.5
t-120.5 35.5q-58 0 -92.5 -23t-34.5 -63q0 -27 17 -45.5t39.5 -27.5t58.5 -21q9 -3 14 -4l106 -33q38 -12 60 -20t53 -25t48 -36t29.5 -49.5t12.5 -68.5q0 -95 -70.5 -151t-190.5 -56zM396 -59l-113 -340l-90 28l108 341z" />
    <glyph glyph-name="uni0219" unicode="&#x219;" horiz-adv-x="500" 
d="M271 -15q-108 0 -170.5 48.5t-67.5 135.5h114q3 -42 35.5 -64.5t82.5 -22.5q92 0 92 64q0 26 -16 37.5t-55 23.5l-9 3l-70 23q-40 13 -64 23.5t-50 28.5t-38 44t-12 61q0 72 52.5 114t146.5 42q93 0 152 -48t69 -137h-112q-9 88 -110 88q-39 0 -60.5 -15.5t-21.5 -42.5
q0 -7 1.5 -12.5t5 -10.5t6.5 -9t9.5 -8t10.5 -6t12.5 -5.5t12.5 -5t13.5 -4.5t12.5 -4l64 -21q89 -30 128.5 -63t39.5 -99q0 -74 -53.5 -116t-150.5 -42zM326 -59l-113 -340l-90 28l108 341z" />
    <glyph glyph-name="uni021A" unicode="&#x21a;" horiz-adv-x="645" 
d="M383 0h-120v592h-234v108h587v-108h-233v-592zM376 -59l-113 -340l-90 28l108 341z" />
    <glyph glyph-name="uni021B" unicode="&#x21b;" horiz-adv-x="400" 
d="M364 0h-68q-86 0 -131.5 41.5t-45.5 120.5v268h-93v100h93v181h118v-181h137v-100h-137v-260q0 -70 67 -70h60v-100zM314 -59l-113 -340l-90 28l108 341z" />
    <glyph glyph-name="circumflex" unicode="&#x2c6;" horiz-adv-x="468" 
d="M234 722l-156 -145l-70 66l188 170h78l186 -168l-71 -68z" />
    <glyph glyph-name="caron" unicode="&#x2c7;" horiz-adv-x="468" 
d="M274 598h-78l-188 170l70 65l156 -145l155 145l71 -67z" />
    <glyph glyph-name="breve" unicode="&#x2d8;" horiz-adv-x="415" 
d="M209 605q-79 0 -128.5 44.5t-49.5 114.5v9h101v-9q0 -32 21.5 -52t55.5 -20q33 0 54 20t21 52v9h100v-9q0 -70 -49 -114.5t-126 -44.5z" />
    <glyph glyph-name="dotaccent" unicode="&#x2d9;" horiz-adv-x="197" 
d="M99 592q-31 0 -52 21t-21 52q0 30 21 51t52 21t52 -21t21 -51q0 -31 -21 -52t-52 -21z" />
    <glyph glyph-name="ring" unicode="&#x2da;" horiz-adv-x="274" 
d="M137 575q-49 0 -82.5 31.5t-33.5 78.5t33 78.5t83 31.5t83 -31.5t33 -78.5t-33.5 -78.5t-82.5 -31.5zM137 639q21 0 34 13.5t13 32.5t-13 33t-34 14q-22 0 -34.5 -13.5t-12.5 -33.5t12.5 -33t34.5 -13z" />
    <glyph glyph-name="tilde" unicode="&#x2dc;" horiz-adv-x="445" 
d="M319 623q-39 0 -91 35.5t-66 35.5q-16 0 -26.5 -18.5t-10.5 -47.5h-94q0 70 29 112t77 42q38 0 88 -35.5t65 -35.5q32 0 32 63h92q0 -73 -24.5 -112t-70.5 -39z" />
    <glyph glyph-name="hungarumlaut" unicode="&#x2dd;" horiz-adv-x="480" 
d="M318 871l-220 -278l-86 48l223 277zM468 846l-219 -280l-86 48l222 278z" />
    <glyph glyph-name="gravecomb" unicode="&#x300;" 
d="M-8 649l-65 -72l-281 230l64 71z" />
    <glyph glyph-name="acutecomb" unicode="&#x301;" 
d="M-8 807l-282 -230l-64 72l281 229z" />
    <glyph glyph-name="uni0302" unicode="&#x302;" 
d="M-234 722l-156 -145l-70 66l188 170h78l186 -168l-71 -68z" />
    <glyph glyph-name="tildecomb" unicode="&#x303;" 
d="M-126 623q-39 0 -91 35.5t-66 35.5q-16 0 -26.5 -18.5t-10.5 -47.5h-94q0 70 29 112t77 42q38 0 88 -35.5t65 -35.5q32 0 32 63h92q0 -73 -24.5 -112t-70.5 -39z" />
    <glyph glyph-name="uni0304" unicode="&#x304;" 
d="M-14 620h-390v93h390v-93z" />
    <glyph glyph-name="uni0306" unicode="&#x306;" 
d="M-206 605q-79 0 -128.5 44.5t-49.5 114.5v9h101v-9q0 -32 21.5 -52t55.5 -20q33 0 54 20t21 52v9h100v-9q0 -70 -49 -114.5t-126 -44.5z" />
    <glyph glyph-name="uni0307" unicode="&#x307;" 
d="M-98 592q-32 0 -52.5 21t-20.5 52q0 30 21 51t52 21t52 -21t21 -51q0 -31 -20.5 -52t-52.5 -21z" />
    <glyph glyph-name="uni0308" unicode="&#x308;" 
d="M-310 592q-31 0 -52 21t-21 52q0 30 21 51t52 21q30 0 51 -21t21 -51q0 -31 -21 -52t-51 -21zM-99 592q-30 0 -51.5 21t-21.5 52q0 30 21.5 51t51.5 21t51 -21t21 -51q0 -31 -21 -52t-51 -21z" />
    <glyph glyph-name="uni030A" unicode="&#x30a;" 
d="M-137 575q-49 0 -82.5 31.5t-33.5 78.5t33 78.5t83 31.5t83 -31.5t33 -78.5t-33.5 -78.5t-82.5 -31.5zM-137 639q21 0 34 13.5t13 32.5t-13 33t-34 14q-22 0 -34.5 -13.5t-12.5 -33.5t12.5 -33t34.5 -13z" />
    <glyph glyph-name="uni030B" unicode="&#x30b;" 
d="M-162 871l-220 -278l-86 48l223 277zM-12 846l-219 -280l-86 48l222 278z" />
    <glyph glyph-name="uni030C" unicode="&#x30c;" 
d="M-194 598h-78l-188 170l70 65l156 -145l155 145l71 -67z" />
    <glyph glyph-name="uni0326" unicode="&#x326;" 
d="M-11 -59l-113 -340l-90 28l108 341z" />
    <glyph glyph-name="uni0327" unicode="&#x327;" 
d="M-12 0l-79 -226l-92 18l78 224z" />
    <glyph glyph-name="uni0328" unicode="&#x328;" 
d="M-104 -216q-55 0 -87 25t-32 66q0 39 28 77t76 63h4v-15h65q-79 -43 -79 -90q0 -31 39 -31q17 0 47 10l15 -92q-39 -13 -76 -13z" />
    <glyph glyph-name="Wgrave" unicode="&#x1e80;" horiz-adv-x="967" 
d="M565 805l-65 -71l-274 226l64 71zM342 0h-131l-198 700h125l146 -525l143 525h112l144 -526l146 526h125l-198 -700h-131l-142 523z" />
    <glyph glyph-name="wgrave" unicode="&#x1e81;" horiz-adv-x="789" 
d="M477 649l-65 -72l-281 230l64 71zM294 0h-124l-157 530h121l107 -384l105 384h98l106 -380l105 380h121l-157 -530h-122l-102 362z" />
    <glyph glyph-name="Wacute" unicode="&#x1e82;" horiz-adv-x="967" 
d="M742 960l-275 -226l-64 71l274 226zM342 0h-131l-198 700h125l146 -525l143 525h112l144 -526l146 526h125l-198 -700h-131l-142 523z" />
    <glyph glyph-name="wacute" unicode="&#x1e83;" horiz-adv-x="789" 
d="M661 807l-282 -230l-64 72l281 229zM294 0h-124l-157 530h121l107 -384l105 384h98l106 -380l105 380h121l-157 -530h-122l-102 362z" />
    <glyph glyph-name="Wdieresis" unicode="&#x1e84;" horiz-adv-x="967" 
d="M378 753q-31 0 -52 21.5t-21 51.5t21 51t52 21q30 0 51 -21t21 -51t-21 -51.5t-51 -21.5zM589 753q-30 0 -51.5 21.5t-21.5 51.5t21.5 51t51.5 21t51 -21t21 -51t-21 -51.5t-51 -21.5zM342 0h-131l-198 700h125l146 -525l143 525h112l144 -526l146 526h125l-198 -700
h-131l-142 523z" />
    <glyph glyph-name="wdieresis" unicode="&#x1e85;" horiz-adv-x="789" 
d="M290 592q-31 0 -52 21t-21 52q0 30 21 51t52 21q30 0 51 -21t21 -51q0 -31 -21 -52t-51 -21zM501 592q-30 0 -51.5 21t-21.5 52q0 30 21.5 51t51.5 21t51 -21t21 -51q0 -31 -21 -52t-51 -21zM294 0h-124l-157 530h121l107 -384l105 384h98l106 -380l105 380h121
l-157 -530h-122l-102 362z" />
    <glyph glyph-name="uni1E9E" unicode="&#x1e9e;" horiz-adv-x="707" 
d="M423 -15q-75 0 -157 28v106q81 -32 146 -32q61 0 96.5 31t35.5 84q0 66 -56.5 106t-150.5 42v77l137 166h-212q-70 0 -70 -68v-525h-119v537q0 79 46 121t134 42h364v-99l-157 -192q93 -15 148.5 -72.5t55.5 -143.5q0 -93 -66 -150.5t-175 -57.5z" />
    <glyph glyph-name="Ygrave" unicode="&#x1ef2;" horiz-adv-x="672" 
d="M417 805l-65 -71l-274 226l64 71zM395 0h-120v299l-265 401h139l187 -287l187 287h139l-267 -401v-299z" />
    <glyph glyph-name="ygrave" unicode="&#x1ef3;" horiz-adv-x="577" 
d="M372 649l-65 -72l-281 230l64 71zM146 -200h-96v100h96q62 0 78 44l21 56h-22l-210 530h127l152 -402l149 402h123l-231 -621q-41 -109 -187 -109z" />
    <glyph glyph-name="endash" unicode="&#x2013;" horiz-adv-x="540" 
d="M504 258h-467v97h467v-97z" />
    <glyph glyph-name="emdash" unicode="&#x2014;" horiz-adv-x="886" 
d="M849 258h-812v97h812v-97z" />
    <glyph glyph-name="quoteleft" unicode="&#x2018;" horiz-adv-x="249" 
d="M39 432l114 346l91 -28l-110 -347z" />
    <glyph glyph-name="quoteright" unicode="&#x2019;" horiz-adv-x="249" 
d="M244 751l-115 -347l-90 28l110 348z" />
    <glyph glyph-name="quotesinglbase" unicode="&#x201a;" horiz-adv-x="247" 
d="M210 148l-114 -347l-91 28l110 348z" />
    <glyph glyph-name="quotedblleft" unicode="&#x201c;" horiz-adv-x="438" 
d="M39 432l114 347l91 -28l-110 -348zM228 432l114 347l91 -28l-110 -348z" />
    <glyph glyph-name="quotedblright" unicode="&#x201d;" horiz-adv-x="438" 
d="M244 751l-115 -347l-90 28l110 348zM433 751l-115 -347l-90 28l110 348z" />
    <glyph glyph-name="quotedblbase" unicode="&#x201e;" horiz-adv-x="436" 
d="M210 148l-114 -347l-91 28l110 348zM399 148l-114 -347l-91 28l110 348z" />
    <glyph glyph-name="dagger" unicode="&#x2020;" horiz-adv-x="538" 
d="M327 242h-115v301h-175v96h175v111h115v-111h174v-96h-174v-301z" />
    <glyph glyph-name="daggerdbl" unicode="&#x2021;" horiz-adv-x="550" 
d="M333 242h-115v112h-175v95h175v94h-175v96h175v111h115v-111h174v-96h-174v-94h174v-95h-174v-112z" />
    <glyph glyph-name="bullet" unicode="&#x2022;" horiz-adv-x="327" 
d="M163 200q-49 0 -83 34t-34 83q0 50 33.5 84t83.5 34t84 -34t34 -84t-34 -83.5t-84 -33.5z" />
    <glyph glyph-name="ellipsis" unicode="&#x2026;" horiz-adv-x="670" 
d="M114 -13q-32 0 -54 22t-22 55q0 32 22 54t54 22q33 0 55 -22t22 -54q0 -33 -22 -55t-55 -22zM335 -13q-33 0 -55 22t-22 55q0 32 22 54t55 22t55 -22t22 -54q0 -33 -22 -55t-55 -22zM555 -13q-32 0 -54 22t-22 55q0 32 22 54t54 22q33 0 55 -22t22 -54q0 -33 -22 -55
t-55 -22z" />
    <glyph glyph-name="perthousand" unicode="&#x2030;" horiz-adv-x="1251" 
d="M755 701l-505 -730l-87 42l504 729zM197 343q-74 0 -120.5 51t-46.5 132q0 84 46.5 136.5t120.5 52.5t121 -51t47 -132q0 -83 -47 -136t-121 -53zM197 424q35 0 57.5 29.5t22.5 76.5t-22 76t-57 29t-57.5 -29.5t-22.5 -76.5q0 -46 22 -75.5t57 -29.5zM712 -15
q-74 0 -121 51.5t-47 132.5q0 84 47 136.5t121 51.5t120.5 -52t46.5 -131q0 -83 -46.5 -136t-120.5 -53zM1054 -16q-73 0 -120.5 52t-47.5 132q0 84 47 136.5t121 51.5q73 -1 120 -51.5t47 -131.5q0 -82 -47 -135.5t-120 -53.5zM1054 62q36 0 59 30.5t23 78.5t-22.5 78
t-58.5 30q-38 0 -61 -30t-23 -79q0 -47 23 -77.5t60 -30.5zM712 66q35 0 57.5 29.5t22.5 76.5q0 46 -22 75.5t-57 29.5q-36 0 -58.5 -29.5t-22.5 -76.5q0 -46 22.5 -75.5t57.5 -29.5z" />
    <glyph glyph-name="guilsinglleft" unicode="&#x2039;" horiz-adv-x="350" 
d="M322 82l-72 -65l-213 213v98l211 211l70 -65l-194 -195z" />
    <glyph glyph-name="guilsinglright" unicode="&#x203a;" horiz-adv-x="350" 
d="M313 230l-213 -213l-72 65l198 197l-194 195l70 65l211 -211v-98z" />
    <glyph glyph-name="fraction" unicode="&#x2044;" horiz-adv-x="651" 
d="M623 699l-509 -736l-86 44l509 735z" />
    <glyph glyph-name="uni2070" unicode="&#x2070;" horiz-adv-x="404" 
d="M202 402q-74 0 -117.5 54.5t-43.5 146.5q0 94 43.5 150t117.5 56t117.5 -54t43.5 -146q0 -95 -43.5 -151t-117.5 -56zM202 479q34 0 53.5 34.5t19.5 93.5t-19 92.5t-53 32.5q-34 1 -53.5 -33t-19.5 -93q0 -60 19 -93.5t53 -33.5z" />
    <glyph glyph-name="uni2074" unicode="&#x2074;" horiz-adv-x="384" 
d="M303 412h-87v73h-184v81l185 234h86v-242h62v-73h-62v-73zM216 698l-111 -140h111v140z" />
    <glyph glyph-name="uni2075" unicode="&#x2075;" horiz-adv-x="384" 
d="M196 402q-64 0 -105.5 35.5t-48.5 95.5h90q4 -23 21.5 -39t43.5 -16q28 0 45.5 17.5t17.5 45.5q0 27 -17 44t-44 17q-29 0 -50 -19h-91l31 217h243v-77h-175l-11 -82q32 26 82 26q52 0 84.5 -34.5t32.5 -89.5q0 -62 -41 -101.5t-108 -39.5z" />
    <glyph glyph-name="uni2076" unicode="&#x2076;" horiz-adv-x="396" 
d="M209 402q-77 0 -122.5 55t-45.5 148q0 92 47.5 148t125.5 56q62 0 101.5 -33.5t45.5 -91.5h-88q-3 21 -18.5 35t-41.5 14q-42 0 -65 -34.5t-24 -92.5q30 62 106 62q55 0 91 -35t36 -93q0 -61 -41.5 -99.5t-106.5 -38.5zM210 476q29 0 46 18.5t17 46.5q0 27 -17 45t-45 18
q-29 0 -47 -18.5t-18 -46.5t17.5 -45.5t46.5 -17.5z" />
    <glyph glyph-name="uni2077" unicode="&#x2077;" horiz-adv-x="344" 
d="M160 412h-102l181 311h-217v77h302v-92z" />
    <glyph glyph-name="uni2078" unicode="&#x2078;" horiz-adv-x="392" 
d="M197 402q-71 0 -116.5 32.5t-45.5 84.5q0 33 23 59t60 37q-30 14 -48 37.5t-18 51.5q0 46 40 75.5t104 29.5t104 -29.5t40 -77.5q0 -28 -17 -51t-47 -36q38 -11 59.5 -36t21.5 -60q0 -52 -44.5 -84.5t-115.5 -32.5zM197 646q28 0 45 13t17 33t-17 32.5t-45 12.5
t-45 -12.5t-17 -32.5t17 -33t45 -13zM197 477q33 0 53 15t20 38q0 25 -20 40t-53 15t-53 -15t-20 -40q0 -23 20 -38t53 -15z" />
    <glyph glyph-name="uni2079" unicode="&#x2079;" horiz-adv-x="385" 
d="M184 402q-63 0 -104 33.5t-45 88.5h88q2 -21 19 -34t44 -13q39 0 58.5 33t17.5 88q-9 -25 -33 -39t-55 -14q-60 0 -98.5 35.5t-38.5 92.5q0 60 40.5 98t103.5 38q75 0 119 -54t44 -150q0 -92 -41 -147.5t-119 -55.5zM184 612q28 0 45.5 17.5t17.5 45.5q0 27 -17.5 44
t-45.5 17t-46 -17t-18 -44q0 -28 18 -45.5t46 -17.5z" />
    <glyph glyph-name="uni2080" unicode="&#x2080;" horiz-adv-x="404" 
d="M202 -109q-74 0 -117.5 54.5t-43.5 146.5q0 94 43.5 150t117.5 56t117.5 -54t43.5 -146q0 -95 -43.5 -151t-117.5 -56zM202 -32q34 -1 53.5 34t19.5 94t-19 92.5t-53 32.5q-34 1 -53.5 -33t-19.5 -93q0 -60 19 -94t53 -33z" />
    <glyph glyph-name="uni2081" unicode="&#x2081;" horiz-adv-x="280" 
d="M207 -100h-88v275q-19 -39 -82 -39h-14v90h14q82 0 82 57v6h88v-389z" />
    <glyph glyph-name="uni2082" unicode="&#x2082;" horiz-adv-x="374" 
d="M335 -100h-283v36q0 39 20 70.5t48 51t56 36.5t48 37t20 43q0 21 -13.5 34t-36.5 13q-29 0 -46 -17.5t-19 -45.5h-89q8 65 50 102.5t109 37.5q59 0 96 -32.5t37 -83.5q0 -39 -27 -72t-59.5 -52t-59.5 -41t-27 -40h176v-77z" />
    <glyph glyph-name="uni2083" unicode="&#x2083;" horiz-adv-x="381" 
d="M196 -109q-72 0 -117 36t-49 103h88q3 -30 24.5 -47t55.5 -17q29 0 46 14t17 39q0 22 -17.5 34.5t-48.5 12.5h-63v67h62q25 0 39.5 12.5t14.5 32.5q0 19 -13.5 32.5t-40.5 13.5q-26 0 -44.5 -16t-21.5 -41h-89q9 65 52.5 98t105.5 33q60 0 97.5 -29.5t37.5 -76.5
q0 -65 -72 -87q42 -10 64.5 -35.5t22.5 -62.5q0 -52 -42 -84t-109 -32z" />
    <glyph glyph-name="uni2084" unicode="&#x2084;" horiz-adv-x="384" 
d="M303 -100h-87v74h-184v81l185 234h86v-242h62v-73h-62v-74zM216 187l-111 -140h111v140z" />
    <glyph glyph-name="uni2085" unicode="&#x2085;" horiz-adv-x="384" 
d="M196 -109q-64 0 -105.5 35t-48.5 96h90q4 -24 21 -40t44 -16q28 0 45.5 18t17.5 46q0 27 -17 44t-44 17q-29 0 -50 -19h-91l31 217h243v-77h-175l-11 -82q32 26 82 26q52 0 84.5 -34.5t32.5 -89.5q0 -63 -41 -102t-108 -39z" />
    <glyph glyph-name="uni2086" unicode="&#x2086;" horiz-adv-x="396" 
d="M209 -109q-77 0 -122.5 55t-45.5 148q0 92 47.5 148t125.5 56q62 0 101.5 -33.5t45.5 -91.5h-88q-3 21 -18.5 35t-41.5 14q-42 0 -65 -34.5t-24 -92.5q30 62 106 62q55 0 91 -35t36 -93q0 -61 -41.5 -99.5t-106.5 -38.5zM210 -35q29 0 46 18t17 47q0 27 -17 45t-45 18
q-29 0 -47 -18.5t-18 -46.5t17.5 -45.5t46.5 -17.5z" />
    <glyph glyph-name="uni2087" unicode="&#x2087;" horiz-adv-x="344" 
d="M160 -100h-102l181 312h-217v77h302v-92z" />
    <glyph glyph-name="uni2088" unicode="&#x2088;" horiz-adv-x="392" 
d="M197 -109q-71 0 -116.5 32.5t-45.5 84.5q0 33 23 59t60 37q-30 14 -48 37.5t-18 51.5q0 46 40 75.5t104 29.5t104 -29.5t40 -77.5q0 -28 -17 -51t-47 -36q38 -11 59.5 -36t21.5 -60q0 -52 -44.5 -84.5t-115.5 -32.5zM197 135q28 0 45 13t17 33t-17 32.5t-45 12.5
t-45 -12.5t-17 -32.5t17 -33t45 -13zM197 -35q33 0 53 15t20 39q0 25 -20 40t-53 15t-53 -15t-20 -40q0 -24 20 -39t53 -15z" />
    <glyph glyph-name="uni2089" unicode="&#x2089;" horiz-adv-x="385" 
d="M184 -109q-63 0 -104 33.5t-45 88.5h88q2 -21 19 -34t44 -13q39 0 58.5 33t17.5 88q-9 -25 -33 -39t-55 -14q-60 0 -98.5 35.5t-38.5 92.5q0 60 40.5 98t103.5 38q75 0 119 -54t44 -150q0 -92 -41 -147.5t-119 -55.5zM184 101q28 0 45.5 17.5t17.5 45.5q0 27 -17.5 44
t-45.5 17t-46 -17t-18 -44q0 -28 18 -45.5t46 -17.5z" />
    <glyph glyph-name="Euro" unicode="&#x20ac;" horiz-adv-x="838" 
d="M460 94q85 0 141 46.5t73 129.5h123q-24 -136 -112 -210.5t-225 -74.5q-132 0 -222 70t-118 191h-105v71h94q-1 11 -1 35q0 15 1 23h-94v72h103q26 123 116 195.5t226 72.5t225 -75.5t112 -209.5h-123q-17 83 -74 130t-140 47q-82 0 -138 -42t-78 -118h305v-72h-317
q-1 -8 -1 -23q0 -24 1 -35h317v-71h-303q23 -72 79 -112t135 -40z" />
    <glyph glyph-name="uni2116" unicode="&#x2116;" horiz-adv-x="1063" 
d="M880 391q-68 0 -111.5 45.5t-43.5 117.5t43 116.5t112 44.5q67 0 109.5 -44.5t42.5 -116.5t-42.5 -117.5t-109.5 -45.5zM193 0h-120v700h130l347 -527v527h120v-700h-130l-347 527v-527zM880 473q30 0 49 23t19 58t-19 57t-49 22q-31 0 -50 -22t-19 -57t19 -58t50 -23z
M997 220h-235v97h235v-97z" />
    <glyph glyph-name="trademark" unicode="&#x2122;" horiz-adv-x="704" 
d="M190 362h-67v276h-104v62h274v-62h-103v-276zM382 362h-68v338h73l102 -263l101 263h72v-338h-67v198l-76 -198h-62l-75 195v-195z" />
    <glyph glyph-name="estimated" unicode="&#x212e;" horiz-adv-x="788" 
d="M417 -15q-163 0 -271.5 104t-108.5 261q0 155 105 260t262 105q152 0 251 -96t96 -245v-26h-566v-250q95 -82 232 -82q111 0 191 56t108 149h33q-23 -105 -114 -170.5t-218 -65.5zM185 606v-228h424v237q-83 69 -205 69q-128 0 -219 -78z" />
    <glyph glyph-name="arrowleft" unicode="&#x2190;" horiz-adv-x="947" 
d="M437 41l-84 -70l-312 313v109l312 312l83 -70l-243 -242h717v-109h-716z" />
    <glyph glyph-name="arrowup" unicode="&#x2191;" horiz-adv-x="800" 
d="M457 -70h-114v641l-235 -235l-77 74l312 311h114l312 -311l-75 -76l-237 238v-642z" />
    <glyph glyph-name="arrowright" unicode="&#x2192;" horiz-adv-x="947" 
d="M906 284l-312 -313l-84 70l243 243h-716v109h717l-243 242l83 70l312 -312v-109z" />
    <glyph glyph-name="arrowdown" unicode="&#x2193;" horiz-adv-x="800" 
d="M457 -21h-114l-312 311l77 74l235 -235v641h114v-641l237 237l75 -76z" />
    <glyph glyph-name="arrowboth" unicode="&#x2194;" horiz-adv-x="1067" 
d="M435 41l-82 -70l-312 313v109l312 312l81 -71l-242 -241h683l-242 241l81 71l312 -312v-109l-312 -313l-82 70l242 243h-681z" />
    <glyph glyph-name="uni2196" unicode="&#x2196;" horiz-adv-x="821" 
d="M790 67l-82 -77l-525 524v-353h-110v463l81 78h463v-109h-354z" />
    <glyph glyph-name="uni2197" unicode="&#x2197;" horiz-adv-x="821" 
d="M638 513l-525 -524l-82 77l527 526h-354v109h463l81 -78v-463h-110v353z" />
    <glyph glyph-name="uni2198" unicode="&#x2198;" horiz-adv-x="821" 
d="M667 -1h-463v109h354l-527 526l82 77l525 -524v353h110v-463z" />
    <glyph glyph-name="uni2199" unicode="&#x2199;" horiz-adv-x="821" 
d="M617 -1h-463l-81 78v463h110v-353l525 524l82 -77l-527 -526h354v-109z" />
    <glyph glyph-name="uni21B0" unicode="&#x21b0;" horiz-adv-x="925" 
d="M855 0h-110v375h-550l155 -155l-75 -74l-230 229v109l235 237l77 -74l-163 -163h661v-484z" />
    <glyph glyph-name="uni21B1" unicode="&#x21b1;" horiz-adv-x="925" 
d="M181 0h-110v484h660l-163 163l77 74l235 -237v-109l-229 -229l-75 74l155 155h-550v-375z" />
    <glyph glyph-name="uni21B2" unicode="&#x21b2;" horiz-adv-x="925" 
d="M357 53l-77 -74l-235 237v109l230 229l75 -74l-155 -155h550v375h110v-484h-661z" />
    <glyph glyph-name="uni21B3" unicode="&#x21b3;" horiz-adv-x="925" 
d="M882 216l-235 -237l-77 74l163 163h-660v484h110v-375h550l-155 155l75 74l229 -229v-109z" />
    <glyph glyph-name="partialdiff" unicode="&#x2202;" horiz-adv-x="600" 
d="M283 -15q-111 0 -180 71t-69 184q0 112 67 183t172 71q95 0 164 -66q-23 178 -260 252l30 108q352 -100 352 -444q0 -163 -73 -261t-203 -98zM286 91q73 0 115.5 65.5t39.5 174.5q-67 62 -143 62q-65 0 -104.5 -42t-39.5 -110q0 -66 37 -108t95 -42z" />
    <glyph glyph-name="emptyset" unicode="&#x2205;" horiz-adv-x="720" 
d="M670 669l-79 -98q89 -91 89 -227q0 -137 -91 -228t-229 -91q-95 0 -169 45l-80 -100l-61 40l83 104q-92 92 -92 230t90.5 229t228.5 91q97 0 176 -49l74 93zM151 344q0 -83 53 -142l261 326q-46 26 -104 26q-90 0 -150 -60t-60 -150zM361 135q90 0 149.5 60t59.5 149
q0 81 -49 138l-259 -324q44 -23 99 -23z" />
    <glyph glyph-name="product" unicode="&#x220f;" horiz-adv-x="731" 
d="M308 0h-120v592h-121v108h597v-108h-121v-592h-120v592h-115v-592z" />
    <glyph glyph-name="summation" unicode="&#x2211;" horiz-adv-x="591" 
d="M548 0h-505v113l215 245l-215 230v112h505v-111h-355l177 -184v-96l-176 -198h354v-111z" />
    <glyph glyph-name="minus" unicode="&#x2212;" horiz-adv-x="541" 
d="M504 258h-467v97h467v-97z" />
    <glyph glyph-name="radical" unicode="&#x221a;" horiz-adv-x="667" 
d="M436 0h-128l-146 418h-146v112h233l120 -359l190 602l117 -23z" />
    <glyph glyph-name="integral" unicode="&#x222b;" horiz-adv-x="598" 
d="M132 -147h-104v112h104q51 0 59 45l94 538q13 75 59.5 113.5t121.5 38.5h104v-112h-104q-51 0 -59 -45l-94 -537q-26 -153 -181 -153z" />
    <glyph glyph-name="approxequal" unicode="&#x2248;" horiz-adv-x="603" 
d="M432 283q-43 0 -89.5 25.5t-84 50.5t-58.5 25q-54 0 -54 -87h-109q0 96 36.5 145.5t105.5 49.5q39 0 82.5 -25.5t82 -51t63.5 -25.5q48 0 48 83h112q0 -190 -135 -190zM432 48q-34 0 -71 16t-62.5 34.5t-53 34.5t-45.5 16q-54 0 -54 -87h-109q0 96 36.5 145.5t105.5 49.5
q39 0 82.5 -25.5t82 -51t63.5 -25.5q48 0 48 83h112q0 -190 -135 -190z" />
    <glyph glyph-name="notequal" unicode="&#x2260;" horiz-adv-x="581" 
d="M224 135l-69 -110l-45 37l46 73h-113v98h175l76 120h-251v99h314l64 102l47 -33l-44 -69h115v-99h-177l-76 -120h253v-98h-315z" />
    <glyph glyph-name="lessequal" unicode="&#x2264;" horiz-adv-x="613" 
d="M561 244l-27 -97l-482 161v110l482 161l27 -98l-355 -118zM557 19h-505v98h505v-98z" />
    <glyph glyph-name="greaterequal" unicode="&#x2265;" horiz-adv-x="613" 
d="M561 308l-482 -161l-27 97l355 119l-355 118l27 98l482 -161v-110zM561 19h-505v98h505v-98z" />
    <glyph glyph-name="uni23CE" unicode="&#x23ce;" horiz-adv-x="926" 
d="M357 53l-77 -74l-235 237v109l230 229l75 -74l-155 -155h550v273h-325v102h435v-484h-661z" />
    <glyph glyph-name="uni2460" unicode="&#x2460;" horiz-adv-x="879" 
d="M440 -48q-171 0 -284.5 112t-113.5 286q0 172 111.5 285t286.5 113q171 0 284 -111.5t113 -286.5q0 -171 -111.5 -284.5t-285.5 -113.5zM440 30q135 0 224 89.5t89 230.5q0 138 -88 229t-225 91q-135 0 -224 -89.5t-89 -230.5q0 -138 87.5 -229t225.5 -91zM512 156h-88
v275q-20 -39 -82 -39h-15v90h15q82 0 82 56v6h88v-388z" />
    <glyph glyph-name="uni2461" unicode="&#x2461;" horiz-adv-x="879" 
d="M440 -48q-171 0 -284.5 112t-113.5 286q0 172 111.5 285t286.5 113q171 0 284 -111.5t113 -286.5q0 -171 -111.5 -284.5t-285.5 -113.5zM440 30q135 0 224 89.5t89 230.5q0 138 -88 229t-225 91q-135 0 -224 -89.5t-89 -230.5q0 -138 87.5 -229t225.5 -91zM588 156h-283
v36q0 39 20 70.5t48.5 51t56.5 36.5t48 37t20 43q0 20 -13.5 33.5t-36.5 13.5q-29 0 -46 -18t-20 -46h-88q7 65 49.5 103t109.5 38q59 0 95.5 -32.5t36.5 -83.5q0 -39 -27 -72.5t-59.5 -52.5t-59.5 -40.5t-27 -39.5h176v-77z" />
    <glyph glyph-name="uni2462" unicode="&#x2462;" horiz-adv-x="879" 
d="M440 -48q-171 0 -284.5 112t-113.5 286q0 172 111.5 285t286.5 113q171 0 284 -111.5t113 -286.5q0 -171 -111.5 -284.5t-285.5 -113.5zM440 30q135 0 224 89.5t89 230.5q0 138 -88 229t-225 91q-135 0 -224 -89.5t-89 -230.5q0 -138 87.5 -229t225.5 -91zM448 147
q-72 0 -117 36t-49 102h88q3 -29 24.5 -46t55.5 -17q29 0 46 14t17 38q0 22 -17.5 35t-48.5 13h-63v66h62q25 0 39.5 13t14.5 33q0 19 -13.5 32t-40.5 13q-26 0 -44.5 -15.5t-21.5 -40.5h-89q9 65 52.5 98t105.5 33q60 0 97.5 -30t37.5 -77q0 -31 -19 -53.5t-53 -33.5
q42 -9 64.5 -34.5t22.5 -62.5q0 -52 -42 -84t-109 -32z" />
    <glyph glyph-name="uni2463" unicode="&#x2463;" horiz-adv-x="879" 
d="M440 -48q-171 0 -284.5 112t-113.5 286q0 172 111.5 285t286.5 113q171 0 284 -111.5t113 -286.5q0 -171 -111.5 -284.5t-285.5 -113.5zM440 30q135 0 224 89.5t89 230.5q0 138 -88 229t-225 91q-135 0 -224 -89.5t-89 -230.5q0 -138 87.5 -229t225.5 -91zM536 156h-88
v74h-183v81l184 233h87v-241h61v-73h-61v-74zM448 442l-110 -139h110v139z" />
    <glyph glyph-name="uni2464" unicode="&#x2464;" horiz-adv-x="879" 
d="M440 -48q-171 0 -284.5 112t-113.5 286q0 172 111.5 285t286.5 113q171 0 284 -111.5t113 -286.5q0 -171 -111.5 -284.5t-285.5 -113.5zM440 30q135 0 224 89.5t89 230.5q0 138 -88 229t-225 91q-135 0 -224 -89.5t-89 -230.5q0 -138 87.5 -229t225.5 -91zM442 147
q-63 0 -105 35.5t-48 95.5h90q3 -24 20.5 -40t44.5 -16t44.5 18t17.5 46q0 26 -17 43t-43 17q-30 0 -51 -19h-90l30 217h244v-76h-175l-12 -83q32 26 82 26q53 0 85.5 -34.5t32.5 -89.5q0 -62 -41.5 -101t-108.5 -39z" />
    <glyph glyph-name="uni2465" unicode="&#x2465;" horiz-adv-x="879" 
d="M440 -48q-171 0 -284.5 112t-113.5 286q0 172 111.5 285t286.5 113q171 0 284 -111.5t113 -286.5q0 -171 -111.5 -284.5t-285.5 -113.5zM440 30q135 0 224 89.5t89 230.5q0 138 -88 229t-225 91q-135 0 -224 -89.5t-89 -230.5q0 -138 87.5 -229t225.5 -91zM443 147
q-77 0 -122.5 55t-45.5 147t47.5 148.5t125.5 56.5q61 0 101 -34t46 -91h-88q-3 21 -18.5 35t-41.5 14q-42 0 -65 -34.5t-24 -93.5q30 62 106 62q55 0 91 -35t36 -92q0 -61 -41.5 -99.5t-106.5 -38.5zM444 221q29 0 46 18t17 46t-17 46t-45 18q-29 0 -47 -18.5t-18 -46.5
t17.5 -45.5t46.5 -17.5z" />
    <glyph glyph-name="uni2466" unicode="&#x2466;" horiz-adv-x="879" 
d="M440 -48q-171 0 -284.5 112t-113.5 286q0 172 111.5 285t286.5 113q171 0 284 -111.5t113 -286.5q0 -171 -111.5 -284.5t-285.5 -113.5zM440 30q135 0 224 89.5t89 230.5q0 138 -88 229t-225 91q-135 0 -224 -89.5t-89 -230.5q0 -138 87.5 -229t225.5 -91zM432 156h-102
l181 312h-217v76h302v-92z" />
    <glyph glyph-name="uni2467" unicode="&#x2467;" horiz-adv-x="879" 
d="M440 -48q-171 0 -284.5 112t-113.5 286q0 172 111.5 285t286.5 113q171 0 284 -111.5t113 -286.5q0 -171 -111.5 -284.5t-285.5 -113.5zM440 30q135 0 224 89.5t89 230.5q0 138 -88 229t-225 91q-135 0 -224 -89.5t-89 -230.5q0 -138 87.5 -229t225.5 -91zM441 147
q-71 0 -116.5 32.5t-45.5 83.5q0 34 22.5 60t60.5 37q-30 13 -48 37t-18 52q0 46 40 75.5t104 29.5q63 0 103.5 -30t40.5 -78q0 -27 -17 -50t-47 -36q38 -11 59.5 -36.5t21.5 -60.5q0 -51 -44.5 -83.5t-115.5 -32.5zM441 391q28 0 45 13t17 33t-17 32.5t-45 12.5t-45 -12.5
t-17 -32.5t17 -33t45 -13zM441 221q33 0 53 15t20 39q0 25 -20 40t-53 15t-53 -15t-20 -40q0 -24 20 -39t53 -15z" />
    <glyph glyph-name="uni2468" unicode="&#x2468;" horiz-adv-x="879" 
d="M440 -48q-171 0 -284.5 112t-113.5 286q0 172 111.5 285t286.5 113q171 0 284 -111.5t113 -286.5q0 -171 -111.5 -284.5t-285.5 -113.5zM440 30q135 0 224 89.5t89 230.5q0 138 -88 229t-225 91q-135 0 -224 -89.5t-89 -230.5q0 -138 87.5 -229t225.5 -91zM444 147
q-64 0 -104.5 33.5t-44.5 88.5h88q2 -21 19 -34t44 -13q38 0 58 33t17 88q-8 -24 -32.5 -38.5t-55.5 -14.5q-60 0 -98 35.5t-38 92.5q0 60 40.5 98t103.5 38q74 0 118.5 -54.5t44.5 -150.5q0 -92 -41 -147t-119 -55zM443 357q28 0 46 17.5t18 44.5q0 28 -17.5 45t-45.5 17
t-46 -17.5t-18 -44.5t17.5 -44.5t45.5 -17.5z" />
    <glyph glyph-name="uni24EA" unicode="&#x24ea;" horiz-adv-x="879" 
d="M440 -48q-171 0 -284.5 112t-113.5 286q0 172 111.5 285t286.5 113q171 0 284 -111.5t113 -286.5q0 -171 -111.5 -284.5t-285.5 -113.5zM440 30q135 0 224 89.5t89 230.5q0 138 -88 229t-225 91q-135 0 -224 -89.5t-89 -230.5q0 -138 87.5 -229t225.5 -91zM440 147
q-74 0 -117.5 54.5t-43.5 146.5q0 94 44 150t117 56q74 0 117.5 -54.5t43.5 -146.5q0 -94 -43.5 -150t-117.5 -56zM440 224q34 -1 53.5 33.5t19.5 93.5t-19 92.5t-53 33.5t-53.5 -33.5t-19.5 -92.5q0 -60 19 -94t53 -33z" />
    <glyph glyph-name="uni24FF" unicode="&#x24ff;" horiz-adv-x="879" 
d="M440 -48q174 0 285.5 113.5t111.5 284.5q0 175 -113 286.5t-284 111.5q-175 0 -286.5 -113t-111.5 -285q0 -174 113.5 -286t284.5 -112zM435 147q-74 0 -117.5 54.5t-43.5 146.5q0 94 44 150t117 56q74 0 117.5 -54.5t43.5 -146.5q0 -94 -43.5 -150t-117.5 -56zM435 224
q34 -1 53.5 33.5t19.5 93.5t-19 92.5t-53 33.5t-53.5 -33.5t-19.5 -92.5q0 -60 19 -94t53 -33z" />
    <glyph glyph-name="lozenge" unicode="&#x25ca;" horiz-adv-x="579" 
d="M342 0h-106l-204 350l204 350h106l205 -350zM159 350l130 -225l131 225l-131 225z" />
    <glyph glyph-name="uni2600" unicode="&#x2600;" horiz-adv-x="857" 
d="M449 551h-39v187h39v-187zM371 544l-36 -15l-70 171l35 16zM595 701l-71 -172l-36 15l71 172zM302 507l-27 -28l-131 132l27 28zM716 611l-131 -132l-28 28l132 131zM253 446l-15 -36l-171 72l14 36zM794 482l-173 -72l-14 36l171 71zM430 201q-64 0 -107.5 43.5
t-43.5 107.5t43.5 107.5t107.5 43.5t107.5 -43.5t43.5 -107.5t-43.5 -107.5t-107.5 -43.5zM231 334h-188v37h188v-37zM815 334h-186v37h186v-37zM253 258l-172 -71l-15 35l172 72zM793 223l-14 -36l-172 71l14 36zM302 198l-131 -132l-28 27l132 132zM716 94l-27 -28
l-132 132l28 27zM371 161l-71 -173l-36 16l71 172zM595 4l-36 -16l-71 173l36 15zM449 -34h-39v187h39v-187z" />
    <glyph glyph-name="sun" unicode="&#x263c;" horiz-adv-x="857" 
d="M449 551h-39v187h39v-187zM371 544l-36 -15l-70 171l35 16zM595 701l-71 -172l-36 15l71 172zM302 507l-27 -28l-131 132l27 28zM716 611l-131 -132l-28 28l132 131zM253 446l-15 -36l-171 72l14 36zM794 482l-173 -72l-14 36l171 71zM430 201q-64 0 -107.5 43.5
t-43.5 107.5t43.5 107.5t107.5 43.5t107.5 -43.5t43.5 -107.5t-43.5 -107.5t-107.5 -43.5zM430 277q32 0 54 22t22 54t-22 53.5t-54 21.5t-53.5 -21.5t-21.5 -53.5t21.5 -54t53.5 -22zM231 334h-188v37h188v-37zM815 334h-186v37h186v-37zM253 258l-172 -71l-15 35l172 72z
M793 223l-14 -36l-172 71l14 36zM302 198l-131 -132l-28 27l132 132zM716 94l-27 -28l-132 132l28 27zM371 161l-71 -173l-36 16l71 172zM595 4l-36 -16l-71 173l36 15zM449 -34h-39v187h39v-187z" />
    <glyph glyph-name="uni2776" unicode="&#x2776;" horiz-adv-x="879" 
d="M440 -48q174 0 285.5 114t111.5 284q0 175 -113.5 286.5t-283.5 111.5q-175 0 -286.5 -113.5t-111.5 -284.5q0 -174 113.5 -286t284.5 -112zM512 156h-88v275q-20 -39 -82 -39h-15v90h15q82 0 82 56v6h88v-388z" />
    <glyph glyph-name="uni2777" unicode="&#x2777;" horiz-adv-x="879" 
d="M440 -48q174 0 285.5 114t111.5 284q0 175 -113.5 286.5t-283.5 111.5q-175 0 -286.5 -113.5t-111.5 -284.5q0 -174 113.5 -286t284.5 -112zM588 156h-283v36q0 39 20 70.5t48.5 51t56.5 36.5t48 37t20 43q0 20 -13.5 33.5t-36.5 13.5q-29 0 -46 -18t-20 -46h-88
q7 65 49.5 103t109.5 38q59 0 95.5 -32.5t36.5 -83.5q0 -39 -27 -72.5t-59.5 -52.5t-59.5 -40.5t-27 -39.5h176v-77z" />
    <glyph glyph-name="uni2778" unicode="&#x2778;" horiz-adv-x="879" 
d="M440 -48q174 0 285.5 114t111.5 284q0 175 -113.5 286.5t-283.5 111.5q-175 0 -286.5 -113.5t-111.5 -284.5q0 -174 113.5 -286t284.5 -112zM448 147q-72 0 -117 36t-49 102h88q3 -29 24.5 -46t55.5 -17q29 0 46 14t17 38q0 22 -17.5 35t-48.5 13h-63v66h62q25 0 39.5 13
t14.5 33q0 19 -13.5 32t-40.5 13q-26 0 -44.5 -15.5t-21.5 -40.5h-89q9 65 52.5 98t105.5 33q60 0 97.5 -30t37.5 -77q0 -31 -19 -53.5t-53 -33.5q42 -9 64.5 -34.5t22.5 -62.5q0 -52 -42 -84t-109 -32z" />
    <glyph glyph-name="uni2779" unicode="&#x2779;" horiz-adv-x="879" 
d="M440 -48q174 0 285.5 114t111.5 284q0 175 -113.5 286.5t-283.5 111.5q-175 0 -286.5 -113.5t-111.5 -284.5q0 -174 113.5 -286t284.5 -112zM536 156h-88v74h-183v81l184 233h87v-241h61v-73h-61v-74zM448 442l-110 -139h110v139z" />
    <glyph glyph-name="uni277A" unicode="&#x277a;" horiz-adv-x="879" 
d="M440 -48q174 0 285.5 114t111.5 284q0 175 -113.5 286.5t-283.5 111.5q-175 0 -286.5 -113.5t-111.5 -284.5q0 -174 113.5 -286t284.5 -112zM442 147q-63 0 -105 35.5t-48 95.5h90q3 -24 20.5 -40t44.5 -16t44.5 18t17.5 46q0 26 -17 43t-43 17q-30 0 -51 -19h-90l30 217
h244v-76h-175l-12 -83q32 26 82 26q53 0 85.5 -34.5t32.5 -89.5q0 -62 -41.5 -101t-108.5 -39z" />
    <glyph glyph-name="uni277B" unicode="&#x277b;" horiz-adv-x="879" 
d="M440 -48q174 0 285.5 114t111.5 284q0 175 -113.5 286.5t-283.5 111.5q-175 0 -286.5 -113.5t-111.5 -284.5q0 -174 113.5 -286t284.5 -112zM443 147q-77 0 -122.5 55t-45.5 147t47.5 148.5t125.5 56.5q61 0 101 -34t46 -91h-88q-3 21 -18.5 35t-41.5 14q-42 0 -65 -34.5
t-24 -93.5q30 62 106 62q55 0 91 -35t36 -92q0 -61 -41.5 -99.5t-106.5 -38.5zM444 221q29 0 46 18t17 46t-17 46t-45 18q-29 0 -47 -18.5t-18 -46.5t17.5 -45.5t46.5 -17.5z" />
    <glyph glyph-name="uni277C" unicode="&#x277c;" horiz-adv-x="879" 
d="M440 -48q174 0 285.5 114t111.5 284q0 175 -113.5 286.5t-283.5 111.5q-175 0 -286.5 -113.5t-111.5 -284.5q0 -174 113.5 -286t284.5 -112zM432 156h-102l181 312h-217v76h302v-92z" />
    <glyph glyph-name="uni277D" unicode="&#x277d;" horiz-adv-x="879" 
d="M440 -48q174 0 285.5 114t111.5 284q0 175 -113.5 286.5t-283.5 111.5q-175 0 -286.5 -113.5t-111.5 -284.5q0 -174 113.5 -286t284.5 -112zM441 147q-71 0 -116.5 32.5t-45.5 83.5q0 34 22.5 60t60.5 37q-30 13 -48 37t-18 52q0 46 40 75.5t104 29.5q63 0 103.5 -30
t40.5 -78q0 -27 -17 -50t-47 -36q38 -11 59.5 -36.5t21.5 -60.5q0 -51 -44.5 -83.5t-115.5 -32.5zM441 391q28 0 45 13t17 33t-17 32.5t-45 12.5t-45 -12.5t-17 -32.5t17 -33t45 -13zM441 221q33 0 53 15t20 39q0 25 -20 40t-53 15t-53 -15t-20 -40q0 -24 20 -39t53 -15z
" />
    <glyph glyph-name="uni277E" unicode="&#x277e;" horiz-adv-x="879" 
d="M440 -48q174 0 285.5 114t111.5 284q0 175 -113.5 286.5t-283.5 111.5q-175 0 -286.5 -113.5t-111.5 -284.5q0 -174 113.5 -286t284.5 -112zM444 147q-64 0 -104.5 33.5t-44.5 88.5h88q2 -21 19 -34t44 -13q38 0 58 33t17 88q-8 -24 -32.5 -38.5t-55.5 -14.5
q-60 0 -98 35.5t-38 92.5q0 60 40.5 98t103.5 38q74 0 118.5 -54.5t44.5 -150.5q0 -92 -41 -147t-119 -55zM443 357q28 0 46 17.5t18 44.5q0 28 -17.5 45t-45.5 17t-46 -17.5t-18 -44.5t17.5 -44.5t45.5 -17.5z" />
    <glyph glyph-name="uni3010" unicode="&#x3010;" horiz-adv-x="366" 
d="M323 -91h-237v899h237v-12q-72 -93 -109.5 -208t-36.5 -234q2 -241 146 -433v-12z" />
    <glyph glyph-name="uni3011" unicode="&#x3011;" horiz-adv-x="366" 
d="M281 808v-899h-237v12q144 192 146 433q1 119 -36.5 234t-109.5 208v12h237z" />
    <glyph glyph-name="uni301C" unicode="&#x301c;" horiz-adv-x="1218" 
d="M878 201q-70 0 -143 21t-125 45.5t-122.5 45.5t-136.5 21q-70 0 -140 -24.5t-120 -65.5l-54 83q63 50 146 79.5t167 29.5q78 0 156 -20.5t130.5 -45.5t119 -45.5t123.5 -20.5q69 0 123.5 27t110.5 90l68 -69q-67 -79 -140 -115t-163 -36z" />
    <glyph glyph-name="fi" unicode="&#xfb01;" horiz-adv-x="601" 
d="M482 600q-32 0 -54 22.5t-22 54.5t22 54t54 22q33 0 54.5 -22t21.5 -54q0 -33 -21.5 -55t-54.5 -22zM237 0h-118v430h-93v100h93v66q0 75 43.5 114.5t125.5 39.5h70v-100h-62q-59 0 -59 -62v-58h305v-530h-119v430h-186v-430z" />
    <glyph glyph-name="fl" unicode="&#xfb02;" horiz-adv-x="614" 
d="M237 0h-118v430h-93v100h93v66q0 75 43.5 114.5t125.5 39.5h265v-750h-119v650h-138q-59 0 -59 -62v-58h154v-100h-154v-430z" />
    <glyph glyph-name="u1F311" unicode="&#x1f311;" horiz-adv-x="639" 
d="M321 62q-124 0 -206.5 82.5t-82.5 206.5q0 122 82.5 204t206.5 82q122 0 204 -82t82 -204q0 -124 -82 -206.5t-204 -82.5z" />
    <glyph glyph-name="u1F312" unicode="&#x1f312;" horiz-adv-x="639" 
d="M321 62q-125 0 -207 82t-82 207q0 124 82 205t207 81q124 0 205 -81t81 -205q0 -125 -81 -207t-205 -82zM410 524v-348q48 24 75.5 70t27.5 105t-27.5 104.5t-75.5 68.5z" />
    <glyph glyph-name="u1F313" unicode="&#x1f313;" horiz-adv-x="639" 
d="M321 62q-125 0 -207 82t-82 207q0 124 82 205t207 81q124 0 205 -81t81 -205q0 -125 -81 -207t-205 -82zM321 544v-388q83 0 137.5 55t54.5 140q0 84 -54.5 138.5t-137.5 54.5z" />
    <glyph glyph-name="u1F314" unicode="&#x1f314;" horiz-adv-x="639" 
d="M321 62q-125 0 -207 82t-82 207q0 124 82 205t207 81q124 0 205 -81t81 -205q0 -125 -81 -207t-205 -82zM321 156q83 0 137.5 55t54.5 140q0 84 -54.5 138.5t-137.5 54.5q-57 0 -103 -27v-334q46 -27 103 -27z" />
    <glyph glyph-name="u1F315" unicode="&#x1f315;" horiz-adv-x="639" 
d="M321 62q-125 0 -207 82t-82 207q0 124 82 205t207 81q124 0 205 -81t81 -205q0 -125 -81 -207t-205 -82zM321 156q83 0 137.5 55t54.5 140q0 84 -54.5 138.5t-137.5 54.5q-84 0 -139 -54.5t-55 -138.5q0 -85 55 -140t139 -55z" />
    <glyph glyph-name="u1F316" unicode="&#x1f316;" horiz-adv-x="639" 
d="M318 62q-124 0 -205 82t-81 207q0 124 81 205t205 81q125 0 207 -81t82 -205q0 -125 -82 -207t-207 -82zM318 156q56 0 104 27v334q-48 27 -104 27q-83 0 -137.5 -54.5t-54.5 -138.5q0 -85 54.5 -140t137.5 -55z" />
    <glyph glyph-name="u1F317" unicode="&#x1f317;" horiz-adv-x="639" 
d="M318 62q-124 0 -205 82t-81 207q0 124 81 205t205 81q125 0 207 -81t82 -205q0 -125 -82 -207t-207 -82zM318 156v388q-83 0 -137.5 -54.5t-54.5 -138.5q0 -85 54.5 -140t137.5 -55z" />
    <glyph glyph-name="u1F318" unicode="&#x1f318;" horiz-adv-x="639" 
d="M318 62q-124 0 -205 82t-81 207q0 124 81 205t205 81q125 0 207 -81t82 -205q0 -125 -82 -207t-207 -82zM229 176v348q-47 -23 -75 -69t-28 -104q0 -59 28 -105t75 -70z" />
    <glyph glyph-name="a.ss02" horiz-adv-x="630" 
d="M278 -15q-108 0 -177 79t-69 204q0 123 68 200.5t174 77.5q61 0 110.5 -26.5t75.5 -72.5l10 83h95v-530h-117v72q-55 -87 -170 -87zM300 85q65 0 106.5 51.5t41.5 132.5q0 79 -40.5 128.5t-105.5 49.5q-66 0 -107.5 -50t-41.5 -130t41 -131t106 -51z" />
    <glyph glyph-name="aacute.ss02" horiz-adv-x="630" 
d="M576 807l-282 -230l-64 72l281 229zM278 -15q-108 0 -177 79t-69 204q0 123 68 200.5t174 77.5q61 0 110.5 -26.5t75.5 -72.5l10 83h95v-530h-117v72q-55 -87 -170 -87zM300 85q65 0 106.5 51.5t41.5 132.5q0 79 -40.5 128.5t-105.5 49.5q-66 0 -107.5 -50t-41.5 -130
t41 -131t106 -51z" />
    <glyph glyph-name="abreve.ss02" horiz-adv-x="630" 
d="M310 605q-79 0 -128.5 44.5t-49.5 114.5v9h101v-9q0 -32 21.5 -52t55.5 -20q33 0 54 20t21 52v9h100v-9q0 -70 -49 -114.5t-126 -44.5zM278 -15q-108 0 -177 79t-69 204q0 123 68 200.5t174 77.5q61 0 110.5 -26.5t75.5 -72.5l10 83h95v-530h-117v72q-55 -87 -170 -87z
M300 85q65 0 106.5 51.5t41.5 132.5q0 79 -40.5 128.5t-105.5 49.5q-66 0 -107.5 -50t-41.5 -130t41 -131t106 -51z" />
    <glyph glyph-name="acircumflex.ss02" horiz-adv-x="630" 
d="M310 722l-156 -145l-70 66l188 170h78l186 -168l-71 -68zM278 -15q-108 0 -177 79t-69 204q0 123 68 200.5t174 77.5q61 0 110.5 -26.5t75.5 -72.5l10 83h95v-530h-117v72q-55 -87 -170 -87zM300 85q65 0 106.5 51.5t41.5 132.5q0 79 -40.5 128.5t-105.5 49.5
q-66 0 -107.5 -50t-41.5 -130t41 -131t106 -51z" />
    <glyph glyph-name="adieresis.ss02" horiz-adv-x="630" 
d="M205 592q-31 0 -52 21t-21 52q0 30 21 51t52 21q30 0 51 -21t21 -51q0 -31 -21 -52t-51 -21zM416 592q-30 0 -51.5 21t-21.5 52q0 30 21.5 51t51.5 21t51 -21t21 -51q0 -31 -21 -52t-51 -21zM278 -15q-108 0 -177 79t-69 204q0 123 68 200.5t174 77.5q61 0 110.5 -26.5
t75.5 -72.5l10 83h95v-530h-117v72q-55 -87 -170 -87zM300 85q65 0 106.5 51.5t41.5 132.5q0 79 -40.5 128.5t-105.5 49.5q-66 0 -107.5 -50t-41.5 -130t41 -131t106 -51z" />
    <glyph glyph-name="agrave.ss02" horiz-adv-x="630" 
d="M392 649l-65 -72l-281 230l64 71zM278 -15q-108 0 -177 79t-69 204q0 123 68 200.5t174 77.5q61 0 110.5 -26.5t75.5 -72.5l10 83h95v-530h-117v72q-55 -87 -170 -87zM300 85q65 0 106.5 51.5t41.5 132.5q0 79 -40.5 128.5t-105.5 49.5q-66 0 -107.5 -50t-41.5 -130
t41 -131t106 -51z" />
    <glyph glyph-name="amacron.ss02" horiz-adv-x="630" 
d="M505 620h-390v93h390v-93zM278 -15q-108 0 -177 79t-69 204q0 123 68 200.5t174 77.5q61 0 110.5 -26.5t75.5 -72.5l10 83h95v-530h-117v72q-55 -87 -170 -87zM300 85q65 0 106.5 51.5t41.5 132.5q0 79 -40.5 128.5t-105.5 49.5q-66 0 -107.5 -50t-41.5 -130t41 -131
t106 -51z" />
    <glyph glyph-name="aogonek.ss02" horiz-adv-x="630" 
d="M560 -111l15 -92q-39 -13 -76 -13q-55 0 -87 25t-32 66q0 71 79 125h-11v72q-55 -87 -170 -87q-108 0 -177 79t-69 204q0 123 68 200.5t174 77.5q61 0 110.5 -26.5t75.5 -72.5l10 83h95v-530h-12q-79 -43 -79 -90q0 -31 39 -31q17 0 47 10zM300 85q65 0 106.5 51.5
t41.5 132.5q0 79 -40.5 128.5t-105.5 49.5q-66 0 -107.5 -50t-41.5 -130t41 -131t106 -51z" />
    <glyph glyph-name="aring.ss02" horiz-adv-x="630" 
d="M310 575q-49 0 -82.5 31.5t-33.5 78.5t33 78.5t83 31.5t83 -31.5t33 -78.5t-33.5 -78.5t-82.5 -31.5zM310 639q21 0 34 13.5t13 32.5t-13 33t-34 14q-22 0 -34.5 -13.5t-12.5 -33.5t12.5 -33t34.5 -13zM278 -15q-108 0 -177 79t-69 204q0 123 68 200.5t174 77.5
q61 0 110.5 -26.5t75.5 -72.5l10 83h95v-530h-117v72q-55 -87 -170 -87zM300 85q65 0 106.5 51.5t41.5 132.5q0 79 -40.5 128.5t-105.5 49.5q-66 0 -107.5 -50t-41.5 -130t41 -131t106 -51z" />
    <glyph glyph-name="atilde.ss02" horiz-adv-x="630" 
d="M407 623q-39 0 -91 35.5t-66 35.5q-16 0 -26.5 -18.5t-10.5 -47.5h-94q0 70 29 112t77 42q38 0 88 -35.5t65 -35.5q32 0 32 63h92q0 -73 -24.5 -112t-70.5 -39zM278 -15q-108 0 -177 79t-69 204q0 123 68 200.5t174 77.5q61 0 110.5 -26.5t75.5 -72.5l10 83h95v-530h-117
v72q-55 -87 -170 -87zM300 85q65 0 106.5 51.5t41.5 132.5q0 79 -40.5 128.5t-105.5 49.5q-66 0 -107.5 -50t-41.5 -130t41 -131t106 -51z" />
    <glyph glyph-name="g.ss03" horiz-adv-x="563" 
d="M264 -216q-110 1 -175 40.5t-65 105.5q0 78 83 108q-41 30 -41 77q0 36 23.5 64t63.5 34q-40 26 -61.5 66.5t-21.5 86.5q0 76 54.5 128t142.5 52q48 0 90 -16h200v-88h-117q34 -42 34 -98q0 -72 -54.5 -117.5t-142.5 -45.5q-24 0 -51 5q-61 -10 -61 -47q0 -16 12 -25.5
t32 -9.5h151q81 0 127.5 -37.5t46.5 -102.5q0 -83 -74.5 -131.5t-195.5 -48.5zM276 270q45 0 73 26t28 68t-28 68.5t-73 26.5q-44 0 -72.5 -26.5t-28.5 -68.5t28.5 -68t72.5 -26zM273 -124q72 -1 114 21.5t42 60.5q0 25 -19 39t-52 14h-163q-31 0 -50 -15.5t-19 -41.5
q0 -35 39.5 -56t107.5 -22z" />
    <glyph glyph-name="gbreve.ss03" horiz-adv-x="563" 
d="M276 605q-79 0 -128.5 44.5t-49.5 114.5v9h101v-9q0 -32 21.5 -52t55.5 -20q33 0 54 20t21 52v9h100v-9q0 -70 -49 -114.5t-126 -44.5zM264 -216q-110 1 -175 40.5t-65 105.5q0 78 83 108q-41 30 -41 77q0 36 23.5 64t63.5 34q-40 26 -61.5 66.5t-21.5 86.5
q0 76 54.5 128t142.5 52q48 0 90 -16h200v-88h-117q34 -42 34 -98q0 -72 -54.5 -117.5t-142.5 -45.5q-24 0 -51 5q-61 -10 -61 -47q0 -16 12 -25.5t32 -9.5h151q81 0 127.5 -37.5t46.5 -102.5q0 -83 -74.5 -131.5t-195.5 -48.5zM276 270q45 0 73 26t28 68t-28 68.5t-73 26.5
q-44 0 -72.5 -26.5t-28.5 -68.5t28.5 -68t72.5 -26zM273 -124q72 -1 114 21.5t42 60.5q0 25 -19 39t-52 14h-163q-31 0 -50 -15.5t-19 -41.5q0 -35 39.5 -56t107.5 -22z" />
    <glyph glyph-name="uni0123.ss03" horiz-adv-x="563" 
d="M224 589l112 340l91 -28l-108 -341zM264 -216q-110 1 -175 40.5t-65 105.5q0 78 83 108q-41 30 -41 77q0 36 23.5 64t63.5 34q-40 26 -61.5 66.5t-21.5 86.5q0 76 54.5 128t142.5 52q48 0 90 -16h200v-88h-117q34 -42 34 -98q0 -72 -54.5 -117.5t-142.5 -45.5
q-24 0 -51 5q-61 -10 -61 -47q0 -16 12 -25.5t32 -9.5h151q81 0 127.5 -37.5t46.5 -102.5q0 -83 -74.5 -131.5t-195.5 -48.5zM276 270q45 0 73 26t28 68t-28 68.5t-73 26.5q-44 0 -72.5 -26.5t-28.5 -68.5t28.5 -68t72.5 -26zM273 -124q72 -1 114 21.5t42 60.5q0 25 -19 39
t-52 14h-163q-31 0 -50 -15.5t-19 -41.5q0 -35 39.5 -56t107.5 -22z" />
    <glyph glyph-name="gdotaccent.ss03" horiz-adv-x="563" 
d="M277 592q-31 0 -52 21t-21 52q0 30 21 51t52 21t52 -21t21 -51q0 -31 -21 -52t-52 -21zM264 -216q-110 1 -175 40.5t-65 105.5q0 78 83 108q-41 30 -41 77q0 36 23.5 64t63.5 34q-40 26 -61.5 66.5t-21.5 86.5q0 76 54.5 128t142.5 52q48 0 90 -16h200v-88h-117
q34 -42 34 -98q0 -72 -54.5 -117.5t-142.5 -45.5q-24 0 -51 5q-61 -10 -61 -47q0 -16 12 -25.5t32 -9.5h151q81 0 127.5 -37.5t46.5 -102.5q0 -83 -74.5 -131.5t-195.5 -48.5zM276 270q45 0 73 26t28 68t-28 68.5t-73 26.5q-44 0 -72.5 -26.5t-28.5 -68.5t28.5 -68t72.5 -26
zM273 -124q72 -1 114 21.5t42 60.5q0 25 -19 39t-52 14h-163q-31 0 -50 -15.5t-19 -41.5q0 -35 39.5 -56t107.5 -22z" />
    <glyph glyph-name="i.loclTRK" horiz-adv-x="239" 
d="M121 592q-31 0 -52 21t-21 52q0 30 21 51t52 21t52 -21t21 -51q0 -31 -21 -52t-52 -21zM178 0h-118l1 530h118z" />
    <glyph glyph-name="r.ss04" horiz-adv-x="403" 
d="M178 0h-118v530h95l15 -117l165 133l69 -79l-226 -177v-290z" />
    <glyph glyph-name="racute.ss04" horiz-adv-x="403" 
d="M506 807l-282 -230l-64 72l281 229zM178 0h-118v530h95l15 -117l165 133l69 -79l-226 -177v-290z" />
    <glyph glyph-name="rcaron.ss04" horiz-adv-x="403" 
d="M280 598h-78l-188 170l70 65l156 -145l155 145l71 -67zM178 0h-118v530h95l15 -117l165 133l69 -79l-226 -177v-290z" />
    <glyph glyph-name="uni0157.ss04" horiz-adv-x="403" 
d="M178 0h-118v530h95l15 -117l165 133l69 -79l-226 -177v-290zM171 -59l-113 -340l-91 28l109 341z" />
    <glyph glyph-name="y.ss05" horiz-adv-x="589" 
d="M294 123l159 407h123l-294 -748l-112 26l75 192h-22l-210 530h127z" />
    <glyph glyph-name="yacute.ss05" horiz-adv-x="589" 
d="M497 878l65 -71l-282 -230l-64 72zM294 123l159 407h123l-294 -748l-112 26l75 192h-22l-210 530h127z" />
    <glyph glyph-name="ycircumflex.ss05" horiz-adv-x="589" 
d="M452 577l-155 145l-156 -145l-70 66l188 170h78l186 -168zM294 123l159 407h123l-294 -748l-112 26l75 192h-22l-210 530h127z" />
    <glyph glyph-name="ydieresis.ss05" horiz-adv-x="589" 
d="M192 592q-31 0 -52 21t-21 52q0 30 21 51t52 21q30 0 51 -21t21 -51q0 -31 -21 -52t-51 -21zM403 592q-30 0 -51.5 21t-21.5 52q0 30 21.5 51t51.5 21t51 -21t21 -51q0 -31 -21 -52t-51 -21zM294 123l159 407h123l-294 -748l-112 26l75 192h-22l-210 530h127z" />
    <glyph glyph-name="ygrave.ss05" horiz-adv-x="589" 
d="M96 878l282 -229l-65 -72l-281 230zM294 123l159 407h123l-294 -748l-112 26l75 192h-22l-210 530h127z" />
    <glyph glyph-name="f_f_i" horiz-adv-x="920" 
d="M801 600q-32 0 -54 22.5t-22 54.5t22 54t54 22q33 0 54.5 -22t21.5 -54q0 -33 -21.5 -55t-54.5 -22zM237 0h-118v430h-93v100h93v66q0 75 43.5 114.5t125.5 39.5h115v-100h-107q-59 0 -59 -62v-58h200v66q0 75 43.5 114.5t125.5 39.5h70v-100h-62q-58 0 -58 -62v-58h305
v-530h-119v430h-186v-430h-119v430h-200v-430z" />
    <glyph glyph-name="f_i" horiz-adv-x="601" 
d="M482 600q-32 0 -54 22.5t-22 54.5t22 54t54 22q33 0 54.5 -22t21.5 -54q0 -33 -21.5 -55t-54.5 -22zM237 0h-118v430h-93v100h93v66q0 75 43.5 114.5t125.5 39.5h70v-100h-62q-59 0 -59 -62v-58h305v-530h-119v430h-186v-430z" />
    <glyph glyph-name="f_l" horiz-adv-x="614" 
d="M237 0h-118v430h-93v100h93v66q0 75 43.5 114.5t125.5 39.5h265v-750h-119v650h-138q-59 0 -59 -62v-58h154v-100h-154v-430z" />
    <glyph glyph-name="w_w_w" horiz-adv-x="2188" 
d="M294 0h-124l-157 530h121l107 -384l105 384h98l106 -380l105 380h179l106 -384l106 384h97l106 -380l105 380h180l106 -384l106 384h97l106 -380l105 380h121l-157 -530h-122l-101 362l-101 -362h-124l-126 425l-126 -425h-122l-101 362l-101 -362h-124l-125 424
l-126 -424h-122l-102 362z" />
    <glyph glyph-name="zero.squared" horiz-adv-x="889" 
d="M814 -19h-738v738h738v-738zM159 643v-585h571v585h-571zM445 147q-74 0 -117.5 54.5t-43.5 146.5q0 94 44 150t117 56q74 0 117.5 -54.5t43.5 -146.5q0 -94 -43.5 -150t-117.5 -56zM445 224q34 -1 53.5 33.5t19.5 93.5t-19 92.5t-53 33.5t-53.5 -33.5t-19.5 -92.5
q0 -60 19 -94t53 -33z" />
    <glyph glyph-name="one.squared" horiz-adv-x="889" 
d="M814 -19h-738v738h738v-738zM159 643v-585h572v585h-572zM524 156h-88v275q-19 -39 -82 -39h-14v90h14q82 0 82 56v6h88v-388z" />
    <glyph glyph-name="two.squared" horiz-adv-x="889" 
d="M814 -19h-738v738h738v-738zM159 643v-585h572v585h-572zM596 156h-283v36q0 39 20 70.5t48.5 51t56.5 36.5t48 37t20 43q0 20 -13.5 33.5t-36.5 13.5q-29 0 -46 -18t-20 -46h-88q7 65 49.5 103t109.5 38q59 0 95.5 -32.5t36.5 -83.5q0 -39 -27 -72.5t-59.5 -52.5
t-59.5 -40.5t-27 -39.5h176v-77z" />
    <glyph glyph-name="three.squared" horiz-adv-x="889" 
d="M814 -19h-738v738h738v-738zM159 643v-585h572v585h-572zM458 147q-72 0 -117 36t-49 102h88q3 -29 24.5 -46t55.5 -17q29 0 46 14t17 38q0 22 -17.5 35t-48.5 13h-63v66h62q25 0 39.5 13t14.5 33q0 19 -13.5 32t-40.5 13q-26 0 -44.5 -15.5t-21.5 -40.5h-89
q9 65 52.5 98t105.5 33q60 0 97.5 -30t37.5 -77q0 -31 -19 -53.5t-53 -33.5q42 -9 64.5 -34.5t22.5 -62.5q0 -52 -42 -84t-109 -32z" />
    <glyph glyph-name="four.squared" horiz-adv-x="889" 
d="M814 -19h-738v738h738v-738zM159 643v-585h572v585h-572zM553 156h-87v74h-184v81l185 233h86v-241h62v-73h-62v-74zM466 442l-111 -139h111v139z" />
    <glyph glyph-name="five.squared" horiz-adv-x="889" 
d="M814 -19h-738v738h738v-738zM159 643v-585h572v585h-572zM452 147q-63 0 -105 35.5t-48 95.5h90q3 -24 20.5 -40t44.5 -16t44.5 18t17.5 46q0 26 -17 43t-43 17q-30 0 -51 -19h-90l30 217h244v-76h-175l-12 -83q32 26 82 26q53 0 85.5 -34.5t32.5 -89.5q0 -62 -41.5 -101
t-108.5 -39z" />
    <glyph glyph-name="six.squared" horiz-adv-x="889" 
d="M814 -19h-738v738h738v-738zM159 643v-585h572v585h-572zM457 153q-77 0 -123 55.5t-46 147.5q0 91 48 147.5t126 56.5q61 0 100.5 -33.5t46.5 -91.5h-88q-3 21 -18.5 35t-41.5 14q-42 0 -65.5 -34.5t-24.5 -92.5q30 62 106 62q56 0 91.5 -35t35.5 -93q0 -61 -41 -99.5
t-106 -38.5zM458 227q29 0 45.5 18.5t16.5 46.5q0 27 -17 45t-45 18q-29 0 -46.5 -18.5t-17.5 -46.5t17.5 -45.5t46.5 -17.5z" />
    <glyph glyph-name="seven.squared" horiz-adv-x="889" 
d="M814 -19h-738v738h738v-738zM159 643v-585h572v585h-572zM440 156h-102l182 312h-217v76h301v-92z" />
    <glyph glyph-name="eight.squared" horiz-adv-x="889" 
d="M814 -19h-738v738h738v-738zM159 643v-585h572v585h-572zM446 147q-71 0 -116.5 32.5t-45.5 83.5q0 34 22.5 60t60.5 37q-30 13 -48 37t-18 52q0 46 40 75.5t104 29.5q63 0 103.5 -30t40.5 -78q0 -27 -17 -50t-47 -36q38 -11 59.5 -36.5t21.5 -60.5q0 -51 -44.5 -83.5
t-115.5 -32.5zM446 391q28 0 45 13t17 33t-17 32.5t-45 12.5t-45 -12.5t-17 -32.5t17 -33t45 -13zM446 221q33 0 53 15t20 39q0 25 -20 40t-53 15t-53 -15t-20 -40q0 -24 20 -39t53 -15z" />
    <glyph glyph-name="nine.squared" horiz-adv-x="889" 
d="M814 -19h-738v738h738v-738zM159 643v-585h572v585h-572zM449 147q-63 0 -104 33.5t-45 88.5h88q2 -21 19 -34t44 -13q39 0 58.5 33t17.5 88q-9 -25 -33 -39t-55 -14q-60 0 -98.5 35.5t-38.5 92.5q0 60 40.5 98t103.5 38q74 0 118.5 -54.5t44.5 -150.5q0 -92 -41 -147
t-119 -55zM449 357q28 0 45.5 17.5t17.5 44.5q0 28 -17.5 45t-45.5 17t-46 -17.5t-18 -44.5t18 -44.5t46 -17.5z" />
    <glyph glyph-name="zero.blacksquared" horiz-adv-x="889" 
d="M76 719v-738h738v738h-738zM445 147q-74 0 -117.5 54.5t-43.5 146.5q0 94 44 150t117 56q74 0 117.5 -54.5t43.5 -146.5q0 -94 -43.5 -150t-117.5 -56zM445 224q34 -1 53.5 33.5t19.5 93.5t-19 92.5t-53 33.5t-53.5 -33.5t-19.5 -92.5q0 -60 19 -94t53 -33z" />
    <glyph glyph-name="one.blacksquared" horiz-adv-x="889" 
d="M76 719v-738h738v738h-738zM524 156h-88v275q-19 -39 -82 -39h-14v90h14q82 0 82 56v6h88v-388z" />
    <glyph glyph-name="two.blacksquared" horiz-adv-x="889" 
d="M76 719v-738h738v738h-738zM596 156h-283v36q0 39 20 70.5t48.5 51t56.5 36.5t48 37t20 43q0 20 -13.5 33.5t-36.5 13.5q-29 0 -46 -18t-20 -46h-88q7 65 49.5 103t109.5 38q59 0 95.5 -32.5t36.5 -83.5q0 -39 -27 -72.5t-59.5 -52.5t-59.5 -40.5t-27 -39.5h176v-77z" />
    <glyph glyph-name="three.blacksquared" horiz-adv-x="889" 
d="M76 719v-738h738v738h-738zM458 147q-72 0 -117 36t-49 102h88q3 -29 24.5 -46t55.5 -17q29 0 46 14t17 38q0 22 -17.5 35t-48.5 13h-63v66h62q25 0 39.5 13t14.5 33q0 19 -13.5 32t-40.5 13q-26 0 -44.5 -15.5t-21.5 -40.5h-89q9 65 52.5 98t105.5 33q60 0 97.5 -30
t37.5 -77q0 -31 -19 -53.5t-53 -33.5q42 -9 64.5 -34.5t22.5 -62.5q0 -52 -42 -84t-109 -32z" />
    <glyph glyph-name="four.blacksquared" horiz-adv-x="889" 
d="M76 719v-738h738v738h-738zM553 156h-87v74h-184v81l185 233h86v-241h62v-73h-62v-74zM466 442l-111 -139h111v139z" />
    <glyph glyph-name="five.blacksquared" horiz-adv-x="889" 
d="M76 719v-738h738v738h-738zM452 147q-63 0 -105 35.5t-48 95.5h90q3 -24 20.5 -40t44.5 -16t44.5 18t17.5 46q0 26 -17 43t-43 17q-30 0 -51 -19h-90l30 217h244v-76h-175l-12 -83q32 26 82 26q53 0 85.5 -34.5t32.5 -89.5q0 -62 -41.5 -101t-108.5 -39z" />
    <glyph glyph-name="six.blacksquared" horiz-adv-x="889" 
d="M76 719v-738h738v738h-738zM457 153q-77 0 -123 55.5t-46 147.5q0 91 48 147.5t126 56.5q61 0 100.5 -33.5t46.5 -91.5h-88q-3 21 -18.5 35t-41.5 14q-42 0 -65.5 -34.5t-24.5 -92.5q30 62 106 62q56 0 91.5 -35t35.5 -93q0 -61 -41 -99.5t-106 -38.5zM458 227
q29 0 45.5 18.5t16.5 46.5q0 27 -17 45t-45 18q-29 0 -46.5 -18.5t-17.5 -46.5t17.5 -45.5t46.5 -17.5z" />
    <glyph glyph-name="seven.blacksquared" horiz-adv-x="889" 
d="M76 719v-738h738v738h-738zM440 156h-102l182 312h-217v76h301v-92z" />
    <glyph glyph-name="eight.blacksquared" horiz-adv-x="889" 
d="M76 719v-738h738v738h-738zM446 147q-71 0 -116.5 32.5t-45.5 83.5q0 34 22.5 60t60.5 37q-30 13 -48 37t-18 52q0 46 40 75.5t104 29.5q63 0 103.5 -30t40.5 -78q0 -27 -17 -50t-47 -36q38 -11 59.5 -36.5t21.5 -60.5q0 -51 -44.5 -83.5t-115.5 -32.5zM446 391
q28 0 45 13t17 33t-17 32.5t-45 12.5t-45 -12.5t-17 -32.5t17 -33t45 -13zM446 221q33 0 53 15t20 39q0 25 -20 40t-53 15t-53 -15t-20 -40q0 -24 20 -39t53 -15z" />
    <glyph glyph-name="nine.blacksquared" horiz-adv-x="889" 
d="M76 719v-738h738v738h-738zM449 147q-63 0 -104 33.5t-45 88.5h88q2 -21 19 -34t44 -13q39 0 58.5 33t17.5 88q-9 -25 -33 -39t-55 -14q-60 0 -98.5 35.5t-38.5 92.5q0 60 40.5 98t103.5 38q74 0 118.5 -54.5t44.5 -150.5q0 -92 -41 -147t-119 -55zM449 357
q28 0 45.5 17.5t17.5 44.5q0 28 -17.5 45t-45.5 17t-46 -17.5t-18 -44.5t18 -44.5t46 -17.5z" />
    <glyph glyph-name="copyright.ss06" horiz-adv-x="865" 
d="M433 -40q-173 0 -281.5 109t-108.5 281t108.5 281t281.5 109q172 0 280.5 -108.5t108.5 -281.5t-108.5 -281.5t-280.5 -108.5zM441 158q69 0 117 41.5t56 110.5h-80q-4 -37 -29.5 -59t-62.5 -22q-47 0 -77.5 34t-30.5 89q0 53 29.5 86.5t74.5 33.5q37 0 63 -21.5
t33 -58.5h80q-7 70 -55 111t-121 41q-83 0 -135 -53.5t-52 -138.5q0 -86 53 -140t137 -54z" />
    <glyph glyph-name="registered.ss07" horiz-adv-x="607" 
d="M304 205q-117 0 -194.5 76t-77.5 195q0 117 76.5 194t195.5 77q117 0 194 -76t77 -195q0 -117 -76 -194t-195 -77zM198 600v-247h61v79h64q19 0 24 -17l18 -62h63l-25 76q-7 23 -33 30q23 8 37 25.5t14 41.5q0 32 -24.5 53t-63.5 21h-135zM335 482h-76v64h76
q13 0 21 -9.5t8 -22.5t-8 -22.5t-21 -9.5z" />
    <glyph glyph-name="circled" horiz-adv-x="880" 
d="M440 -48q-171 0 -284 112t-113 286q0 172 111.5 285t285.5 113q172 0 285 -111.5t113 -286.5q0 -171 -111.5 -284.5t-286.5 -113.5zM440 30q135 0 224 89.5t89 230.5q0 138 -87.5 229t-225.5 91q-135 0 -224 -89.5t-89 -230.5q0 -138 88 -229t225 -91z" />
    <glyph glyph-name="blackcircled" horiz-adv-x="880" 
d="M440 -48q-171 0 -284 112t-113 286q0 172 111.5 285t285.5 113q172 0 285 -111.5t113 -286.5q0 -171 -111.5 -284.5t-286.5 -113.5z" />
    <glyph glyph-name="squared" horiz-adv-x="889" 
d="M814 -19h-738v738h738v-738zM159 643v-585h572v585h-572z" />
    <glyph glyph-name="blacksquared" horiz-adv-x="889" 
d="M814 -19h-738v738h738v-738z" />
    <glyph glyph-name="uni0308.case" 
d="M-310 583q-31 0 -52 21.5t-21 51.5t21 51t52 21q30 0 51 -21t21 -51t-21 -51.5t-51 -21.5zM-99 583q-30 0 -51.5 21.5t-21.5 51.5t21.5 51t51.5 21t51 -21t21 -51t-21 -51.5t-51 -21.5z" />
    <glyph glyph-name="uni0307.case" 
d="M-98 583q-31 0 -52 21t-21 52t21 51.5t52 20.5t52 -20.5t21 -51.5t-21 -52t-52 -21z" />
    <glyph glyph-name="gravecomb.case" 
d="M-8 635l-65 -71l-274 226l64 71z" />
    <glyph glyph-name="acutecomb.case" 
d="M-8 790l-275 -226l-64 71l274 226z" />
    <glyph glyph-name="uni030B.case" 
d="M-162 859l-220 -278l-86 48l223 277zM-12 834l-219 -280l-86 48l222 278z" />
    <glyph glyph-name="uni0302.case" 
d="M-229 708l-149 -139l-70 66l181 164h78l179 -162l-70 -68z" />
    <glyph glyph-name="uni030C.case" 
d="M-189 587h-78l-181 163l70 66l149 -139l149 139l70 -67z" />
    <glyph glyph-name="uni0306.case" 
d="M-206 595q-79 0 -128.5 44.5t-49.5 114.5v9h101v-9q0 -32 21.5 -52t55.5 -20q33 0 54 20t21 52v9h100v-9q0 -70 -49 -114.5t-126 -44.5z" />
    <glyph glyph-name="uni030A.case" 
d="M-141 567q-49 0 -82.5 31.5t-33.5 78.5t33 78.5t83 31.5t83 -31.5t33 -78.5t-33.5 -78.5t-82.5 -31.5zM-141 628q22 0 35.5 14.5t13.5 34.5q0 21 -13 35t-36 14t-36 -14t-13 -35q0 -20 13.5 -34.5t35.5 -14.5z" />
    <glyph glyph-name="tildecomb.case" 
d="M-126 602q-39 0 -90.5 35.5t-65.5 35.5q-17 0 -27.5 -18t-10.5 -47h-94q0 70 29 112t77 42q29 0 59 -18t54.5 -36t39.5 -18q32 0 32 64h92q0 -74 -24.5 -113t-70.5 -39z" />
    <glyph glyph-name="uni0304.case" 
d="M-14 617h-390v93h390v-93z" />
    <glyph glyph-name="exclam.ss01" horiz-adv-x="223" 
d="M125 170h-26v580h26v-580zM112 -2q-16 0 -26 10t-10 25q0 16 10 26t26 10q15 0 25 -10t10 -26q0 -15 -10 -25t-25 -10z" />
    <glyph glyph-name="exclamdown.ss01" horiz-adv-x="223" 
d="M112 475q-16 0 -26 10t-10 26q0 15 10 25t26 10q15 0 25 -10t10 -25q0 -16 -10 -26t-25 -10zM125 -207h-26v581h26v-581z" />
    <glyph glyph-name="question.ss01" horiz-adv-x="522" 
d="M280 152h-26v38q0 45 19.5 82.5t47 64t55.5 53t47.5 61.5t19.5 76q0 69 -47 112.5t-123 43.5q-84 0 -136.5 -51.5t-58.5 -138.5h-26q7 98 67 156t154 58q88 0 142.5 -49.5t54.5 -128.5q0 -45 -19.5 -81.5t-47.5 -62.5l-56 -52t-47.5 -62.5t-19.5 -80.5v-38zM267 -2
q-16 0 -26 10t-10 25q0 16 10 26t26 10q15 0 25 -10t10 -26q0 -15 -10 -25t-25 -10z" />
    <glyph glyph-name="questiondown.ss01" horiz-adv-x="522" 
d="M255 546q16 0 26 -10t10 -25q0 -16 -10 -26t-26 -10q-15 0 -25 10t-10 26q0 15 10 25t25 10zM242 392h26v-38q0 -45 -19.5 -82.5t-47 -64t-55.5 -53t-47.5 -61.5t-19.5 -76q0 -70 47 -113.5t123 -43.5q84 0 136.5 52t58.5 139h26q-7 -99 -67 -157t-154 -58
q-88 0 -142.5 49.5t-54.5 129.5q0 45 19.5 81.5t47.5 62.5l56 52t47.5 62.5t19.5 80.5v38z" />
    <glyph glyph-name="asterisk.ss01" horiz-adv-x="492" 
d="M258 289h-24v196l-182 -105l-12 17l184 106l-184 107l11 18l183 -107v199h24v-199l183 107l11 -18l-184 -107l184 -106l-12 -17l-182 105v-196z" />
    <glyph glyph-name="numbersign.ss01" horiz-adv-x="775" 
d="M252 212l-52 -223l-25 6l50 217h-190v24h196l55 240h-188v24h194l50 217l25 -6l-49 -211h195l50 217l25 -6l-49 -211h201v-24h-206l-56 -240h199v-24h-204l-52 -223l-25 6l50 217h-194zM313 476l-56 -240h195l55 240h-194z" />
    <glyph glyph-name="slash.ss01" horiz-adv-x="219" 
d="M219 733l-184 -789l-27 6l184 789z" />
    <glyph glyph-name="backslash.ss01" horiz-adv-x="215" 
d="M215 -50l-27 -6l-184 789l27 6z" />
    <glyph glyph-name="parenleft.ss01" horiz-adv-x="258" 
d="M242 -135l-24 -14q-71 91 -112.5 213.5t-41.5 239.5t41.5 239.5t112.5 213.5l24 -14q-68 -86 -109 -205t-41 -234t41 -234t109 -205z" />
    <glyph glyph-name="parenright.ss01" horiz-adv-x="258" 
d="M40 -149l-24 14q68 86 109 205t41 234t-41 234t-109 205l24 14q71 -91 112.5 -213.5t41.5 -239.5t-41.5 -239.5t-112.5 -213.5z" />
    <glyph glyph-name="braceleft.ss01" horiz-adv-x="368" 
d="M333 -128h-64q-58 0 -89 31.5t-31 90.5v227q0 85 -84 85v26q84 0 84 94v216q0 59 31 90.5t89 31.5h64v-24h-64q-94 0 -94 -98v-216q0 -90 -76 -107q76 -17 76 -98v-227q0 -98 94 -98h64v-24z" />
    <glyph glyph-name="braceright.ss01" horiz-adv-x="368" 
d="M99 -128h-64v24h64q94 0 94 98v227q0 81 76 98q-76 17 -76 107v216q0 98 -94 98h-64v24h64q58 0 89 -31.5t31 -90.5v-216q0 -94 84 -94v-26q-84 0 -84 -85v-227q0 -59 -31 -90.5t-89 -31.5z" />
    <glyph glyph-name="bracketleft.ss01" horiz-adv-x="342" 
d="M301 -128h-207v892h207v-23h-181v-846h181v-23z" />
    <glyph glyph-name="bracketright.ss01" horiz-adv-x="342" 
d="M248 764v-892h-207v23h181v846h-181v23h207z" />
    <glyph glyph-name="hyphen.ss01" horiz-adv-x="455" 
d="M401 301h-347v24h347v-24z" />
    <glyph glyph-name="endash.ss01" horiz-adv-x="535" 
d="M481 301h-427v24h427v-24z" />
    <glyph glyph-name="emdash.ss01" horiz-adv-x="880" 
d="M826 301h-772v24h772v-24z" />
    <glyph glyph-name="underscore.ss01" horiz-adv-x="535" 
d="M481 -31h-427v24h427v-24z" />
    <glyph glyph-name="uni301C.ss01" horiz-adv-x="1125" 
d="M816 235q-67 0 -132.5 25t-111 54.5t-109 54.5t-126.5 25q-133 0 -264 -104l-17 21q137 109 281 109q65 0 130.5 -25t112 -54.5t111 -54.5t126.5 -25q135 0 231 119l21 -17q-102 -128 -253 -128z" />
    <glyph glyph-name="quotesinglbase.ss01" horiz-adv-x="183" 
d="M157 162l-106 -335l-24 7l104 335z" />
    <glyph glyph-name="quotedblbase.ss01" horiz-adv-x="304" 
d="M157 162l-106 -335l-24 7l104 335zM278 162l-106 -335l-24 7l104 335z" />
    <glyph glyph-name="quotedblleft.ss01" horiz-adv-x="304" 
d="M26 419l106 335l24 -7l-104 -335zM147 419l106 335l24 -7l-104 -335z" />
    <glyph glyph-name="quotedblright.ss01" horiz-adv-x="304" 
d="M157 747l-106 -335l-24 7l104 335zM278 747l-106 -335l-24 7l104 335z" />
    <glyph glyph-name="quoteleft.ss01" horiz-adv-x="183" 
d="M156 747l-104 -335l-26 7l106 335z" />
    <glyph glyph-name="quoteright.ss01" horiz-adv-x="183" 
d="M157 747l-106 -335l-24 7l104 335z" />
    <glyph glyph-name="quotedbl.ss01" horiz-adv-x="269" 
d="M86 418h-26v332h26v-332zM209 418h-26v332h26v-332z" />
    <glyph glyph-name="quotesingle.ss01" horiz-adv-x="146" 
d="M86 418h-26v332h26v-332z" />
    <glyph glyph-name="guillemotleft.ss01" horiz-adv-x="493" 
d="M291 65l-21 -17l-217 217v28l217 217l21 -17l-217 -214zM448 65l-21 -17l-217 217v28l217 217l21 -17l-217 -214z" />
    <glyph glyph-name="guillemotright.ss01" horiz-adv-x="493" 
d="M283 265l-217 -217l-21 17l217 214l-217 214l21 17l217 -217v-28zM440 265l-217 -217l-21 17l217 214l-217 214l21 17l217 -217v-28z" />
    <glyph glyph-name="guilsinglleft.ss01" horiz-adv-x="336" 
d="M291 65l-21 -17l-217 217v28l217 217l21 -17l-217 -214z" />
    <glyph glyph-name="guilsinglright.ss01" horiz-adv-x="336" 
d="M283 265l-217 -217l-21 17l217 214l-217 214l21 17l217 -217v-28z" />
    <glyph glyph-name="cent.ss01" horiz-adv-x="590" 
d="M311 -51h-27v125q-105 7 -169.5 83.5t-64.5 194.5q0 117 65 192.5t169 81.5v116h27v-116q94 -4 156 -63t73 -153h-29q-12 83 -66 134t-134 55v-499q80 2 134 53t65 138h29q-10 -98 -72 -157t-156 -61v-124zM284 101v498q-91 -6 -148 -74t-57 -173t57 -174t148 -77z" />
    <glyph glyph-name="currency.ss01" horiz-adv-x="541" 
d="M414 186l82 -82l-19 -19l-82 82q-52 -44 -124 -44t-124 44l-82 -82l-19 19l82 82q-45 51 -45 124q0 74 48 125l-86 86l19 19l86 -86q50 41 121 41q70 0 119 -41l86 86l19 -19l-85 -85q48 -51 48 -126q0 -72 -44 -124zM271 150q68 0 113.5 46t45.5 114t-45.5 113
t-113.5 45t-114 -45.5t-46 -112.5q0 -68 46 -114t114 -46z" />
    <glyph glyph-name="dollar.ss01" horiz-adv-x="640" 
d="M585 172q0 -82 -66 -130t-179 -49v-128h-27v129q-116 5 -183.5 61.5t-74.5 153.5h29q5 -85 65 -134.5t164 -54.5v317l-68 20q-92 27 -132.5 60t-40.5 104q0 83 67 134.5t173 51.5h1v120h27v-121q91 -8 152 -64t75 -142h-29q-15 77 -68 124.5t-130 55.5v-323l73 -21
q91 -26 131.5 -60.5t40.5 -103.5zM252 383l61 -18v316h-2q-93 0 -151.5 -44.5t-58.5 -115.5q0 -60 33.5 -86.5t117.5 -51.5zM340 329v-310q100 1 158 41t58 110q0 59 -34 87.5t-113 51.5z" />
    <glyph glyph-name="Euro.ss01" horiz-adv-x="814" 
d="M454 20q109 0 183 65.5t98 183.5h29q-22 -130 -103.5 -203t-206.5 -73q-128 0 -216 77t-110 205h-99v24h96q-3 25 -3 53t3 54h-96v24h100q22 125 110 201t215 76q125 0 207 -74.5t103 -201.5h-29q-24 116 -97 182.5t-184 66.5q-114 0 -194 -68t-102 -182h359v-24h-363
q-3 -26 -3 -54t3 -53h363v-24h-359q21 -116 101 -185.5t195 -69.5z" />
    <glyph glyph-name="sterling.ss01" horiz-adv-x="600" 
d="M404 0h-371v24q68 0 106.5 37t38.5 99q0 8 -1 17t-2 16t-3.5 16.5t-4 15.5t-5.5 16.5t-5.5 15t-7 16t-7 15t-7.5 16.5t-7 16h-95v27h84q-34 79 -34 150q0 93 62.5 151.5t161.5 58.5q91 0 149.5 -56t71.5 -157h-28q-14 89 -65 138.5t-128 49.5q-87 0 -141.5 -51.5
t-54.5 -133.5q0 -67 35 -150h261v-27h-249q17 -38 24 -54t15.5 -46.5t8.5 -56.5q0 -56 -30 -93.5t-84 -45.5h312q55 0 84 30t29 87v90h28v-90q0 -69 -36.5 -105t-104.5 -36z" />
    <glyph glyph-name="yen.ss01" horiz-adv-x="628" 
d="M327 0h-26v166h-220v24h220v95h-220v24h220l-267 391h34l246 -362l246 362h34l-267 -391h215v-24h-215v-95h215v-24h-215v-166z" />
    <glyph glyph-name="plus.ss01" horiz-adv-x="556" 
d="M291 105h-26v194h-211v24h211v205h26v-205h211v-24h-211v-194z" />
    <glyph glyph-name="minus.ss01" horiz-adv-x="526" 
d="M472 299h-418v24h418v-24z" />
    <glyph glyph-name="multiply.ss01" horiz-adv-x="498" 
d="M249 271l-181 -181l-20 18l182 182l-182 183l19 18l182 -182l182 182l19 -18l-182 -183l182 -182l-20 -18z" />
    <glyph glyph-name="divide.ss01" horiz-adv-x="566" 
d="M285 460q-16 0 -26 10t-10 25q0 16 10 26t26 10q15 0 25 -10t10 -26q0 -15 -10 -25t-25 -10zM512 299h-458v24h458v-24zM285 102q-16 0 -26 10t-10 25q0 16 10 26t26 10q15 0 25 -10t10 -26q0 -15 -10 -25t-25 -10z" />
    <glyph glyph-name="equal.ss01" horiz-adv-x="554" 
d="M500 387h-446v24h446v-24zM500 174h-446v24h446v-24z" />
    <glyph glyph-name="notequal.ss01" horiz-adv-x="554" 
d="M218 174l-79 -125l-19 14l70 111h-136v24h152l119 189h-271v24h287l77 122l19 -14l-68 -108h131v-24h-147l-120 -189h267v-24h-282z" />
    <glyph glyph-name="greater.ss01" horiz-adv-x="584" 
d="M532 265l-446 -232l-14 21l436 227l-436 226l14 21l446 -232v-31z" />
    <glyph glyph-name="less.ss01" horiz-adv-x="584" 
d="M512 54l-14 -21l-446 232v31l446 232l14 -21l-436 -226z" />
    <glyph glyph-name="greaterequal.ss01" horiz-adv-x="631" 
d="M565 333l-484 -161l-7 23l458 152l-458 152l7 23l484 -161v-28zM565 60h-499v24h499v-24z" />
    <glyph glyph-name="lessequal.ss01" horiz-adv-x="631" 
d="M557 195l-7 -23l-484 161v28l484 161l7 -23l-458 -152zM565 60h-499v24h499v-24z" />
    <glyph glyph-name="plusminus.ss01" horiz-adv-x="588" 
d="M307 154h-26v179h-225v24h225v171h26v-171h225v-24h-225v-179zM532 60h-476v24h476v-24z" />
    <glyph glyph-name="approxequal.ss01" horiz-adv-x="587" 
d="M418 299q-37 0 -74.5 22t-63.5 48t-57 48t-56 22q-41 0 -64 -32.5t-23 -89.5h-26q0 70 30 108.5t84 38.5q32 0 65 -22t57 -48t59.5 -48t71.5 -22q39 0 62.5 32t23.5 87h26q0 -66 -30.5 -105t-84.5 -39zM418 70q-37 0 -74.5 22t-63.5 48t-57 48t-56 22q-41 0 -64 -32.5
t-23 -89.5h-26q0 70 30 108.5t84 38.5q32 0 65 -22t57 -48t59.5 -48t71.5 -22q39 0 62.5 32t23.5 87h26q0 -66 -30.5 -105t-84.5 -39z" />
    <glyph glyph-name="asciitilde.ss01" horiz-adv-x="587" 
d="M418 208q-37 0 -74.5 22t-63.5 48t-57 48t-56 22q-41 0 -64 -32.5t-23 -89.5h-26q0 70 30 108.5t84 38.5q32 0 65 -22t57 -48t59.5 -48t71.5 -22q39 0 62.5 32t23.5 87h26q0 -66 -30.5 -105t-84.5 -39z" />
    <glyph glyph-name="logicalnot.ss01" horiz-adv-x="552" 
d="M482 17h-26v272h-416v24h442v-296z" />
    <glyph glyph-name="asciicircum.ss01" horiz-adv-x="432" 
d="M76 432h-28l156 268h23l157 -268h-28l-140 240z" />
    <glyph glyph-name="emptyset.ss01" horiz-adv-x="726" 
d="M177 93l-81 -104l-21 15l82 105q-104 91 -104 235q0 132 89 221t221 89q101 0 180 -55l79 101l21 -15l-80 -101q110 -91 110 -240q0 -132 -89 -221t-221 -89q-103 0 -186 59zM174 130l352 448q-71 49 -163 49q-121 0 -202 -81t-81 -202q0 -131 94 -214zM363 61
q121 0 202 81t81 202q0 135 -99 218l-353 -448q73 -53 169 -53z" />
    <glyph glyph-name="integral.ss01" horiz-adv-x="509" 
d="M75 -147h-69v26h69q91 0 111 109l102 577q25 135 144 135h71v-26h-71q-93 0 -113 -109l-102 -577q-25 -135 -142 -135z" />
    <glyph glyph-name="summation.ss01" horiz-adv-x="588" 
d="M522 0h-456v24l283 326l-283 326v24h456v-24h-419l265 -306v-40l-265 -306h419v-24z" />
    <glyph glyph-name="radical.ss01" horiz-adv-x="658" 
d="M395 0h-32l-176 506h-154v24h175l172 -487l221 694l28 -7z" />
    <glyph glyph-name="partialdiff.ss01" horiz-adv-x="588" 
d="M277 -7q-97 0 -158.5 70t-61.5 180t65.5 179.5t170.5 69.5q123 0 202 -96q-28 258 -287 333l7 26q146 -39 228 -145.5t82 -270.5q0 -157 -68 -251.5t-180 -94.5zM279 20q103 0 161.5 90t57.5 250q-33 49 -86 77.5t-116 28.5q-93 0 -152 -62t-59 -161t54 -161t140 -62z
" />
    <glyph glyph-name="product.ss01" horiz-adv-x="684" 
d="M235 0h-27v676h-139v24h546v-24h-139v-676h-27v676h-214v-676z" />
    <glyph glyph-name="percent.ss01" horiz-adv-x="828" 
d="M664 723l-473 -756l-24 11l473 756zM195 347q-65 0 -107 50.5t-42 130.5q0 79 42 129t107 50t107 -50t42 -129q0 -80 -42 -130.5t-107 -50.5zM195 371q54 0 87.5 43.5t33.5 113.5q0 69 -33.5 112t-88.5 43q-53 0 -86.5 -43.5t-33.5 -112.5t33.5 -112.5t87.5 -43.5z
M633 -11q-65 0 -107 50.5t-42 130.5q0 79 42 129t107 50t107 -50t42 -129q0 -80 -42 -130.5t-107 -50.5zM633 13q54 0 87.5 43.5t33.5 113.5q0 69 -33.5 112t-88.5 43q-53 0 -86.5 -43.5t-33.5 -112.5t33.5 -112.5t87.5 -43.5z" />
    <glyph glyph-name="perthousand.ss01" horiz-adv-x="1152" 
d="M664 723l-473 -756l-24 11l473 756zM195 347q-65 0 -107 50.5t-42 130.5q0 79 42 129t107 50t107 -50t42 -129q0 -80 -42 -130.5t-107 -50.5zM195 371q54 0 87.5 43.5t33.5 113.5q0 69 -33.5 112t-88.5 43q-53 0 -86.5 -43.5t-33.5 -112.5t33.5 -112.5t87.5 -43.5z
M633 -11q-65 0 -107 50.5t-42 130.5q0 79 42 129t107 50t107 -50t42 -129q0 -80 -42 -130.5t-107 -50.5zM957 -11q-65 0 -107 50.5t-42 130.5q0 79 42 129t107 50t107 -50t42 -129q0 -80 -42 -130.5t-107 -50.5zM633 13q54 0 87.5 43.5t33.5 113.5q0 69 -33.5 112t-88.5 43
q-53 0 -86.5 -43.5t-33.5 -112.5t33.5 -112.5t87.5 -43.5zM957 13q54 0 87.5 43.5t33.5 113.5q0 69 -33.5 112t-88.5 43q-53 0 -86.5 -43.5t-33.5 -112.5t33.5 -112.5t87.5 -43.5z" />
    <glyph glyph-name="arrowup.ss01" horiz-adv-x="760" 
d="M393 -70h-26v755l-294 -294l-18 19l312 311h26l312 -311l-18 -19l-294 294v-755z" />
    <glyph glyph-name="uni2197.ss01" horiz-adv-x="810" 
d="M684 633l-609 -608l-20 20l610 609h-463v24h487l21 -19v-486h-26v460z" />
    <glyph glyph-name="arrowright.ss01" horiz-adv-x="951" 
d="M891 327l-312 -312l-20 17l296 295h-795v24h795l-296 295l20 17l312 -312v-24z" />
    <glyph glyph-name="uni2198.ss01" horiz-adv-x="810" 
d="M689 22h-487v24h463l-610 609l20 20l609 -608v460h26v-486z" />
    <glyph glyph-name="arrowdown.ss01" horiz-adv-x="760" 
d="M393 -21h-26l-312 311l18 19l294 -294v755h26v-755l294 294l18 -19z" />
    <glyph glyph-name="uni2199.ss01" horiz-adv-x="810" 
d="M608 22h-487l-21 19v486h26v-460l609 608l20 -20l-610 -609h463v-24z" />
    <glyph glyph-name="arrowleft.ss01" horiz-adv-x="951" 
d="M392 32l-20 -17l-312 312v24l312 312l20 -17l-296 -295h795v-24h-795z" />
    <glyph glyph-name="uni2196.ss01" horiz-adv-x="810" 
d="M755 45l-20 -20l-609 608v-460h-26v486l21 19h487v-24h-463z" />
    <glyph glyph-name="arrowboth.ss01" horiz-adv-x="1072" 
d="M392 32l-20 -17l-312 312v24l312 312l20 -17l-296 -295h880l-296 295l20 17l312 -312v-24l-312 -312l-20 17l296 295h-880z" />
    <glyph glyph-name="uni21B0.ss01" horiz-adv-x="953" 
d="M833 0h-26v419h-716l218 -217l-20 -17l-234 234v24l234 234l20 -17l-218 -217h742v-443z" />
    <glyph glyph-name="uni21B1.ss01" horiz-adv-x="953" 
d="M146 0h-26v443h742l-218 217l20 17l234 -234v-24l-234 -234l-20 17l218 217h-716v-419z" />
    <glyph glyph-name="uni21B2.ss01" horiz-adv-x="953" 
d="M309 40l-20 -17l-234 234v24l234 234l20 -17l-218 -217h716v419h26v-443h-742z" />
    <glyph glyph-name="uni21B3.ss01" horiz-adv-x="953" 
d="M898 257l-234 -234l-20 17l218 217h-742v443h26v-419h716l-218 217l20 17l234 -234v-24z" />
    <glyph glyph-name="lozenge.ss01" horiz-adv-x="513" 
d="M268 0h-24l-204 350l204 350h24l205 -350zM70 350l186 -319l187 319l-187 318z" />
    <glyph glyph-name="at.ss01" horiz-adv-x="895" 
d="M462 -98q-181 0 -288 98t-107 269q0 176 112 291t287 115q161 0 261.5 -96t100.5 -252q0 -103 -44 -170t-113 -67q-47 0 -71 32t-17 88h-6q-49 -120 -161 -120q-70 0 -113.5 47t-43.5 130q0 99 55.5 167.5t139.5 68.5q56 0 93.5 -30.5t49.5 -82.5l17 99h23l-31 -279
q-5 -44 13 -70t54 -26q56 0 92 60t36 151q0 146 -93 235t-241 89q-163 0 -267.5 -107.5t-104.5 -272.5q0 -159 100.5 -250t271.5 -91q110 0 206 44v-30q-97 -40 -211 -40zM414 116q67 0 112.5 50.5t56.5 133.5q9 79 -26 128t-101 49q-75 0 -122 -60t-47 -149
q0 -73 34.5 -112.5t92.5 -39.5z" />
    <glyph glyph-name="ampersand.ss01" horiz-adv-x="695" 
d="M300 -7q-110 0 -176 52t-66 138q0 76 46 122.5t130 87.5q-34 42 -48.5 63t-27 50t-12.5 58q0 63 44.5 102.5t115.5 39.5q64 0 106.5 -38t42.5 -95q0 -28 -11 -53t-25 -41.5t-42 -35.5t-46.5 -29t-54.5 -28q95 -107 247 -252q70 100 70 253h27q0 -165 -78 -271
q31 -30 110 -102l-21 -20l-106 100q-87 -101 -225 -101zM259 406q35 17 52 25.5t44 26t39.5 31.5t23 35.5t10.5 45.5q0 47 -35 79t-87 32q-59 0 -96 -32.5t-37 -84.5q0 -35 20.5 -70.5t65.5 -87.5zM300 20q127 0 206 93q-150 144 -255 261q-38 -20 -62.5 -35.5t-50.5 -39
t-39 -53t-13 -64.5q0 -73 58.5 -117.5t155.5 -44.5z" />
    <glyph glyph-name="paragraph.ss01" horiz-adv-x="550" 
d="M318 -103h-26v380h-23q-97 0 -160.5 57.5t-63.5 160.5q0 88 59.5 146.5t164.5 58.5h201v-803h-26v779h-126v-779z" />
    <glyph glyph-name="section.ss01" horiz-adv-x="586" 
d="M302 -88q-88 0 -146.5 44.5t-63.5 118.5h26q6 -61 56.5 -99t128.5 -38q75 0 117 27t42 80q0 41 -23 61.5t-72 40.5l-113 46q-42 17 -60 25.5t-45.5 26t-38.5 38.5t-11 49q0 81 116 122q-51 21 -78 48.5t-27 74.5q0 60 48.5 95t125.5 35t130.5 -44.5t63.5 -116.5h-29
q-10 64 -54.5 99.5t-110.5 35.5q-65 0 -105.5 -27.5t-40.5 -76.5q0 -57 63 -89q15 -8 73 -31l108 -42q55 -22 83.5 -47t28.5 -71q0 -89 -135 -119l18 -7q57 -23 84.5 -48.5t27.5 -76.5q0 -64 -50.5 -99t-136.5 -35zM263 216l77 -30q127 34 127 109q0 35 -24.5 56t-70.5 40
l-107 43l-32 12q-50 -17 -78 -46.5t-28 -63.5q0 -24 9.5 -42t33 -33t40 -22.5t53.5 -22.5z" />
    <glyph glyph-name="copyright.ss01" horiz-adv-x="944" 
d="M472 -40q-168 0 -279 109.5t-111 280.5q0 168 109.5 279t280.5 111q168 0 279 -109.5t111 -280.5q0 -168 -109.5 -279t-280.5 -111zM472 -13q156 0 259 102t103 261q0 157 -101.5 260t-260.5 103q-156 0 -259 -102t-103 -261q0 -157 101.5 -260t260.5 -103zM480 162
q-78 0 -127 53t-49 137q0 82 48 134t125 52q65 0 109 -39.5t54 -106.5h-28q-9 55 -45.5 87t-89.5 32q-64 0 -104.5 -44t-40.5 -115q0 -72 42 -117t109 -45q52 0 87 32.5t42 87.5h28q-8 -68 -51 -108t-109 -40z" />
    <glyph glyph-name="registered.ss01" horiz-adv-x="554" 
d="M277 252q-97 0 -161.5 63.5t-64.5 162.5q0 97 63.5 161.5t162.5 64.5q97 0 161.5 -63.5t64.5 -162.5q0 -97 -63.5 -161.5t-162.5 -64.5zM277 276q87 0 144 56.5t57 145.5q0 87 -56.5 144.5t-144.5 57.5q-87 0 -144 -56.5t-57 -145.5q0 -87 56.5 -144.5t144.5 -57.5z
M218 358h-23v236h113q30 0 49 -18t19 -46q0 -21 -12.5 -38t-32.5 -23q18 -3 25 -21l30 -90h-24l-27 82q-6 17 -18 17h-99v-99zM218 574v-97h93q18 0 29.5 14t11.5 36q0 21 -11.5 34t-29.5 13h-93z" />
    <glyph glyph-name="trademark.ss01" horiz-adv-x="682" 
d="M171 362h-26v313h-124v25h274v-25h-124v-313zM352 362h-26v338h27l130 -307l132 307h26v-338h-26v277l-118 -277h-27l-118 277v-277z" />
    <glyph glyph-name="degree.ss01" horiz-adv-x="361" 
d="M180 415q-58 0 -96.5 38.5t-38.5 95.5t38.5 95t96.5 38t97 -38t39 -95t-39 -95.5t-97 -38.5zM180 440q46 0 77.5 31t31.5 78q0 46 -31 77t-78 31q-46 0 -77 -30.5t-31 -77.5t31 -78t77 -31z" />
    <glyph glyph-name="bar.ss01" horiz-adv-x="234" 
d="M131 -115h-28v865h28v-865z" />
    <glyph glyph-name="brokenbar.ss01" horiz-adv-x="234" 
d="M131 370h-28v380h28v-380zM131 -115h-28v380h28v-380z" />
    <glyph glyph-name="dagger.ss01" horiz-adv-x="516" 
d="M271 242h-26v333h-202v24h202v151h26v-151h202v-24h-202v-333z" />
    <glyph glyph-name="daggerdbl.ss01" horiz-adv-x="516" 
d="M271 242h-26v156h-202v24h202v153h-202v24h202v151h26v-151h202v-24h-202v-153h202v-24h-202v-156z" />
    <glyph glyph-name="uni2116.ss01" horiz-adv-x="1052" 
d="M863 394q-65 0 -105.5 44.5t-40.5 114.5q0 68 41 110.5t105 42.5t105 -42.5t41 -110.5q0 -70 -40.5 -114.5t-105.5 -44.5zM120 0h-27v700h40l471 -670v670h27v-700h-38l-473 676v-676zM864 418q53 0 86 37.5t33 96.5q0 57 -33.5 93.5t-85.5 36.5q-53 0 -87 -36.5
t-34 -93.5q0 -59 34 -96.5t87 -37.5zM972 301h-217v24h217v-24z" />
    <glyph glyph-name="uni23CE.ss01" horiz-adv-x="953" 
d="M309 40l-20 -17l-234 234v24l234 234l20 -17l-218 -217h716v395h-382v24h408v-443h-742z" />
    </font>
</defs>
</svg>
